<svg xmlns="http://www.w3.org/2000/svg" xmlns:xlink="http://www.w3.org/1999/xlink" width="1366" zoomAndPan="magnify" viewBox="0 0 1024.5 341.249999" height="455" preserveAspectRatio="xMidYMid meet" version="1.0"><defs><g/><clipPath id="225076d1a8"><path d="M 215 250.824219 L 293 250.824219 L 293 324 L 215 324 Z M 215 250.824219 " clip-rule="nonzero"/></clipPath><clipPath id="d20e1db341"><path d="M 133 250.824219 L 211 250.824219 L 211 324 L 133 324 Z M 133 250.824219 " clip-rule="nonzero"/></clipPath><clipPath id="ee1c40ae84"><path d="M 298 250.824219 L 376 250.824219 L 376 324 L 298 324 Z M 298 250.824219 " clip-rule="nonzero"/></clipPath><clipPath id="b317a31a81"><path d="M 381 250.824219 L 459 250.824219 L 459 324 L 381 324 Z M 381 250.824219 " clip-rule="nonzero"/></clipPath><clipPath id="395fd6bb1e"><path d="M 464 250.824219 L 541.300781 250.824219 L 541.300781 324 L 464 324 Z M 464 250.824219 " clip-rule="nonzero"/></clipPath></defs><g clip-path="url(#225076d1a8)"><path fill="#ffb000" d="M 254.410156 250.824219 L 263.476562 278.726562 L 292.832031 278.726562 L 269.078125 295.980469 L 278.144531 323.90625 L 254.410156 306.652344 L 230.65625 323.90625 L 239.742188 295.980469 L 215.988281 278.726562 L 245.34375 278.726562 Z M 254.410156 250.824219 " fill-opacity="1" fill-rule="nonzero"/></g><g clip-path="url(#d20e1db341)"><path fill="#ffb000" d="M 171.675781 250.824219 L 180.742188 278.726562 L 210.09375 278.726562 L 186.34375 295.980469 L 195.410156 323.90625 L 171.675781 306.652344 L 147.921875 323.90625 L 156.988281 295.980469 L 133.253906 278.726562 L 162.609375 278.726562 Z M 171.675781 250.824219 " fill-opacity="1" fill-rule="nonzero"/></g><g clip-path="url(#ee1c40ae84)"><path fill="#ffb000" d="M 337.144531 250.824219 L 346.210938 278.726562 L 375.566406 278.726562 L 351.8125 295.980469 L 360.878906 323.90625 L 337.144531 306.652344 L 313.394531 323.90625 L 322.480469 295.980469 L 298.726562 278.726562 L 328.078125 278.726562 Z M 337.144531 250.824219 " fill-opacity="1" fill-rule="nonzero"/></g><g clip-path="url(#b317a31a81)"><path fill="#ffb000" d="M 419.882812 250.824219 L 428.949219 278.726562 L 458.300781 278.726562 L 434.550781 295.980469 L 443.617188 323.90625 L 419.882812 306.652344 L 396.128906 323.90625 L 405.214844 295.980469 L 381.460938 278.726562 L 410.816406 278.726562 Z M 419.882812 250.824219 " fill-opacity="1" fill-rule="nonzero"/></g><g clip-path="url(#395fd6bb1e)"><path fill="#ffb000" d="M 502.617188 250.824219 L 511.683594 278.726562 L 541.039062 278.726562 L 517.285156 295.980469 L 526.351562 323.90625 L 502.617188 306.652344 L 478.863281 323.90625 L 487.949219 295.980469 L 464.195312 278.726562 L 493.550781 278.726562 Z M 502.617188 250.824219 " fill-opacity="1" fill-rule="nonzero"/></g><g fill="#000000" fill-opacity="1"><g transform="translate(555.50365, 323.220075)"><g><path d="M 27.828125 0.859375 C 23.523438 0.859375 19.6875 0.0664062 16.3125 -1.515625 C 12.945312 -3.097656 10.285156 -5.28125 8.328125 -8.0625 C 6.367188 -10.84375 5.347656 -14.03125 5.265625 -17.625 L 18.0625 -17.625 C 18.21875 -15.207031 19.226562 -13.25 21.09375 -11.75 C 22.96875 -10.25 25.210938 -9.5 27.828125 -9.5 C 30.910156 -9.5 33.445312 -10.515625 35.4375 -12.546875 C 37.425781 -14.578125 38.421875 -17.21875 38.421875 -20.46875 C 38.421875 -23.726562 37.410156 -26.390625 35.390625 -28.453125 C 33.378906 -30.515625 30.800781 -31.554688 27.65625 -31.578125 C 25.800781 -31.578125 24.019531 -31.203125 22.3125 -30.453125 C 20.613281 -29.703125 19.285156 -28.675781 18.328125 -27.375 L 6.609375 -29.484375 L 9.5625 -62.359375 L 47.6875 -62.359375 L 47.6875 -51.578125 L 20.4375 -51.578125 L 18.8125 -35.96875 L 19.1875 -35.96875 C 20.28125 -37.507812 21.929688 -38.785156 24.140625 -39.796875 C 26.359375 -40.816406 28.835938 -41.328125 31.578125 -41.328125 C 35.335938 -41.328125 38.6875 -40.441406 41.625 -38.671875 C 44.570312 -36.910156 46.894531 -34.484375 48.59375 -31.390625 C 50.300781 -28.304688 51.144531 -24.773438 51.125 -20.796875 C 51.144531 -16.597656 50.175781 -12.867188 48.21875 -9.609375 C 46.257812 -6.347656 43.53125 -3.785156 40.03125 -1.921875 C 36.53125 -0.0664062 32.460938 0.859375 27.828125 0.859375 Z M 27.828125 0.859375 "/></g></g></g></svg>