<svg version="1.1" id="Layer_1" xmlns="http://www.w3.org/2000/svg" xmlns:xlink="http://www.w3.org/1999/xlink" x="0px" y="0px"
	 width="100%" viewBox="0 0 800 800" enable-background="new 0 0 800 800" xml:space="preserve">
<path fill="#FFFFFF" opacity="1.000000" stroke="none" 
	d="
M801.000000,315.000000 
	C801.000000,477.333344 801.000000,639.166687 801.000000,801.000000 
	C534.333313,801.000000 267.666656,801.000000 1.000000,801.000000 
	C1.000000,534.333313 1.000000,267.666656 1.000000,1.000000 
	C267.666656,1.000000 534.333313,1.000000 801.000000,1.000000 
	C801.000000,105.500000 801.000000,210.000000 801.000000,315.000000 
M348.856232,650.841431 
	C348.978577,650.966064 349.100952,651.090637 349.420410,652.084839 
	C349.340912,653.656860 349.261383,655.228882 349.185242,656.734375 
	C341.797424,657.521667 334.871948,658.192444 327.970367,659.054565 
	C326.660370,659.218262 324.741058,659.864136 324.378998,660.787720 
	C323.997742,661.760437 324.857361,663.560364 325.677917,664.602783 
	C328.773163,668.535156 332.073120,672.306396 335.505676,676.386719 
	C322.209167,678.982178 309.730408,681.338196 297.291534,683.888733 
	C292.851349,684.799194 292.450592,686.305664 295.359772,689.849548 
	C298.869781,694.125427 302.456207,698.338623 306.085571,702.669617 
	C305.206573,703.239014 304.828156,703.603333 304.377625,703.758850 
	C285.785919,710.176880 267.165955,716.514587 248.624863,723.075256 
	C246.823822,723.712585 245.505188,725.713257 243.962585,727.081055 
	C245.946350,727.661011 247.995544,728.892151 249.901794,728.700623 
	C255.974777,728.090454 261.982452,726.862610 268.037109,726.032166 
	C290.166199,722.996887 312.307251,720.049011 334.436279,717.013306 
	C339.565582,716.309631 339.978516,715.063171 336.551178,710.882874 
	C333.450989,707.101562 330.242310,703.409180 326.828094,699.378418 
	C334.609161,697.807617 341.669403,696.382324 349.460175,694.809509 
	C349.460175,702.520142 349.488556,709.787964 349.442688,717.055237 
	C349.429199,719.193970 350.310211,721.773987 346.860657,722.504578 
	C346.440247,722.593628 346.142670,725.795959 346.331299,725.856323 
	C350.920746,727.323242 349.224823,731.096863 349.447205,734.082153 
	C349.902771,740.197449 353.114258,742.884033 359.369598,742.223572 
	C363.160126,741.823486 366.949066,741.407654 370.739502,741.006531 
	C386.875824,739.298706 403.017822,737.642578 419.145538,735.857117 
	C423.809296,735.340820 427.811584,733.726074 431.391663,730.139038 
	C439.374542,722.140564 448.100128,714.887085 456.172852,706.972839 
	C460.023621,703.197693 464.029816,699.068909 466.331085,694.309875 
	C479.493469,667.089783 492.103027,639.602783 505.075958,612.289856 
	C506.793091,608.674622 507.551361,605.522583 505.233582,602.026245 
	C502.755402,598.287903 498.966644,598.728394 495.412323,599.093262 
	C483.544342,600.311340 471.710083,601.860779 459.839264,603.046814 
	C453.669312,603.663208 448.341766,605.469116 444.177643,610.405334 
	C441.879974,613.129028 438.940338,615.311218 436.138214,617.876587 
	C433.741486,607.127930 431.705597,605.845032 421.300323,607.691345 
	C419.167450,608.069763 416.910034,607.746277 414.733582,607.746277 
	C416.996307,604.358154 420.207397,601.467041 420.970581,598.032104 
	C422.920776,589.254761 428.450867,586.320740 436.564117,586.272400 
	C436.893250,586.270447 437.224792,586.208679 437.550385,586.148560 
	C442.647369,585.206909 443.121613,583.955444 439.759308,579.851685 
	C436.659180,576.067932 433.441315,572.380554 430.145386,568.497681 
	C444.139282,565.608704 457.418945,562.833130 470.715881,560.142700 
	C474.758423,559.324768 474.817291,557.330200 472.541504,554.607056 
	C469.712708,551.222290 466.777527,547.926514 463.691895,544.365601 
	C468.057312,542.772400 471.931793,541.338684 475.819946,539.943054 
	C488.883698,535.253784 501.978271,530.647522 514.980164,525.792969 
	C516.319031,525.293152 517.115967,523.341980 518.164307,522.064209 
	C516.661316,521.416504 515.120850,520.140076 513.661560,520.226929 
	C506.214539,520.669800 498.784332,521.422058 491.355865,522.144592 
	C471.552948,524.070923 451.751648,526.015076 431.957977,528.033386 
	C430.465942,528.185486 429.039490,528.980957 427.582581,529.477417 
	C428.158386,531.092834 428.379272,532.983032 429.376984,534.271790 
	C432.288483,538.032532 435.510284,541.553101 438.926483,545.536316 
	C433.363770,546.514526 428.551819,547.360657 423.537109,548.242493 
	C423.323029,546.652344 423.047089,545.519409 423.036133,544.383972 
	C422.864685,526.594482 408.820648,517.064087 394.699127,518.021179 
	C386.930634,518.547607 379.169800,519.234009 371.422394,520.015198 
	C358.060516,521.362671 344.702362,522.758972 331.362366,524.304993 
	C326.301514,524.891602 321.578033,525.867126 317.524078,529.934937 
	C308.253693,539.237244 298.550446,548.129578 288.696655,556.818298 
	C284.797852,560.256226 283.386200,564.065369 283.414398,569.031738 
	C283.526062,588.691895 283.459717,608.352966 283.460510,628.013733 
	C283.460785,634.678406 283.337158,641.346252 283.505737,648.006714 
	C283.646515,653.568787 287.341888,657.304016 292.187531,656.777283 
	C310.970978,654.735596 329.740479,652.565857 348.856232,650.841431 
M557.099365,175.786942 
	C558.100525,180.142776 554.728027,180.477264 551.967773,181.331711 
	C543.249146,184.030609 535.430725,193.869980 536.081177,201.692673 
	C533.260437,201.941452 530.446228,202.189651 528.223328,202.385712 
	C530.258118,198.354309 533.007935,194.819824 533.775391,190.897491 
	C534.717407,186.082367 534.570923,180.853180 533.798096,175.976868 
	C533.311829,172.908539 531.435181,169.424438 529.078979,167.431061 
	C525.103149,164.067535 524.394043,162.591019 528.360779,159.224487 
	C531.974731,156.157333 533.644897,152.559326 533.205811,147.859665 
	C533.070984,146.416458 533.329346,144.936508 533.413513,143.364731 
	C535.447510,142.994202 537.220337,142.645416 539.002136,142.350800 
	C551.440125,140.294159 551.973877,138.889313 544.163330,128.842377 
	C540.359619,123.949539 536.588074,119.031624 532.533997,113.777748 
	C563.478821,104.731880 593.462585,95.952934 623.459717,87.219574 
	C626.491699,86.336845 629.509766,85.434692 628.985657,81.461586 
	C628.446472,77.374207 625.216675,77.473312 622.096130,77.571854 
	C574.299622,79.081123 526.501343,80.541245 478.709595,82.187401 
	C476.366058,82.268120 472.906067,83.382118 472.098480,85.048477 
	C471.315887,86.663231 472.771667,89.976540 474.140076,91.909843 
	C479.099487,98.916451 484.435242,105.656654 489.915863,112.875198 
	C486.922546,113.318314 484.627258,113.694443 482.321991,113.993637 
	C462.182037,116.607597 442.034882,119.166664 421.902344,121.836349 
	C415.601562,122.671875 414.444977,125.765350 418.270630,130.967041 
	C419.695465,132.904327 421.120483,134.841461 422.925598,137.295532 
	C418.966919,137.295532 415.935669,137.076187 412.947144,137.340317 
	C406.320435,137.925919 399.524628,138.025314 393.155090,139.690033 
	C386.880981,141.329788 380.815796,141.918289 374.380585,141.754166 
	C368.610687,141.606995 362.817993,143.051666 357.011658,143.433243 
	C351.584351,143.789917 346.978210,145.475021 343.478790,149.782745 
	C341.957550,151.655334 340.419983,151.673599 337.917328,150.921860 
	C332.461975,149.283173 326.654968,147.396149 321.118286,147.727341 
	C307.357056,148.550522 293.628021,150.292175 279.973694,152.270004 
	C276.317535,152.799622 272.532990,154.952805 269.585754,157.326904 
	C264.028961,161.803162 259.357361,167.393417 253.728729,171.761505 
	C247.019867,176.967926 244.728806,183.296951 245.019897,191.624008 
	C245.513412,205.741348 245.155548,219.888443 245.155548,234.199554 
	C240.937256,234.701096 237.149750,235.516739 233.362045,235.517761 
	C227.392395,235.519379 223.025345,238.193985 218.958328,242.240738 
	C212.826904,248.341660 206.459549,254.211700 200.061874,260.036438 
	C196.103333,263.640503 195.756073,267.900757 197.970673,272.210175 
	C206.892227,289.570709 216.004349,306.833801 225.124893,324.091278 
	C228.299606,330.098297 230.888336,331.303253 237.631302,330.529572 
	C247.715714,329.372498 257.797058,328.182007 267.895203,327.158752 
	C269.378113,327.008484 271.600128,327.164124 272.365112,328.094788 
	C276.222443,332.787689 279.710388,337.784241 283.654877,343.116180 
	C282.007721,343.610901 281.098602,343.910278 280.175446,344.157410 
	C250.465042,352.109955 220.752563,360.054688 191.042496,368.008484 
	C186.064026,369.341278 180.984451,370.418091 176.188293,372.237244 
	C174.717255,372.795258 173.031250,375.598816 173.275467,377.070038 
	C173.516235,378.520630 175.955673,379.813965 177.670059,380.725952 
	C178.546356,381.192169 179.947021,380.670166 181.110931,380.598694 
	C200.731232,379.393982 220.351471,378.187927 239.971954,376.986206 
	C270.234375,375.132690 300.500885,373.340240 330.751923,371.316437 
	C333.079559,371.160736 336.232910,369.934021 337.263702,368.182098 
	C338.044739,366.854645 336.509857,363.581879 335.218475,361.720947 
	C330.220703,354.519135 324.907684,347.536102 319.217438,339.799042 
	C329.626343,338.463043 339.163666,337.215881 348.707336,336.019440 
	C362.747375,334.259247 376.800446,332.600464 390.830292,330.763458 
	C396.340179,330.042023 397.721741,326.538422 394.490936,321.962891 
	C392.685059,319.405457 390.773560,316.922577 388.502380,313.856232 
	C396.311676,312.059448 404.817047,313.961273 408.921204,307.909302 
	C413.742126,308.695312 417.532898,310.100830 421.165253,309.769592 
	C437.055786,308.320435 452.888489,306.248413 468.767853,304.659546 
	C474.698700,304.066132 480.402496,303.443787 484.263153,297.844849 
	C487.782257,301.846771 491.965332,302.150482 496.660278,301.585114 
	C513.669617,299.536865 530.728882,297.891541 547.717957,295.696655 
	C550.950989,295.278992 554.358948,293.576294 556.967163,291.543762 
	C561.541931,287.978638 565.203918,283.205994 569.887146,279.823761 
	C579.313416,273.015991 584.320923,264.635040 582.048462,252.726074 
	C581.741638,251.118240 582.517700,249.173798 581.898743,247.782791 
	C580.639038,244.951370 579.325317,241.678391 577.023315,239.883255 
	C573.393921,237.053024 572.582703,235.470337 576.237244,232.493729 
	C580.807861,228.770981 582.596130,224.291748 582.061707,218.518784 
	C581.755859,215.214355 582.034424,211.858170 582.000549,208.525787 
	C581.924316,201.027222 577.936218,197.398956 570.355164,197.814011 
	C568.432983,197.919235 566.500183,197.829773 565.454956,197.829773 
	C568.728149,194.311813 572.272827,190.899002 575.320496,187.088684 
	C577.392761,184.497879 578.021606,181.434357 574.114014,179.420837 
	C574.872131,178.804230 575.232849,178.450485 575.648499,178.181778 
	C583.085449,173.374756 582.899292,166.382263 575.215881,162.017212 
	C574.706726,161.727951 574.154419,161.459900 573.745972,161.056580 
	C570.689331,158.038452 566.945007,158.401855 564.116211,161.518372 
	C561.532593,164.364746 558.606140,166.937469 555.616333,169.366821 
	C552.756653,171.690369 549.620789,173.673981 546.606323,175.807007 
	C546.860046,176.233078 547.113708,176.659149 547.367432,177.085205 
	C550.246948,176.063644 553.126526,175.042068 556.157410,174.450668 
	C556.327332,174.724838 556.569580,174.897263 557.099365,175.786942 
M312.703674,386.027435 
	C312.009094,390.385681 313.951691,392.247986 318.258453,392.014618 
	C325.220490,391.637329 332.221497,391.616974 339.125488,390.780975 
	C340.903473,390.565674 343.450592,388.054657 343.761261,386.270386 
	C344.312622,383.103607 341.811432,381.797333 338.620972,381.975555 
	C331.487061,382.374023 324.338348,382.550934 317.217010,383.096313 
	C315.767395,383.207336 314.411499,384.541779 312.703674,386.027435 
M456.858978,106.824417 
	C458.204590,105.008659 460.694580,103.161797 460.646240,101.383934 
	C460.558502,98.156975 457.506775,97.662842 454.630402,97.993607 
	C447.884918,98.769279 441.121948,99.421616 434.401978,100.376686 
	C431.441498,100.797447 428.835266,102.176147 429.546265,105.934601 
	C430.223175,109.512581 433.042084,109.404861 435.773773,109.121216 
	C442.528992,108.419807 449.278198,107.660889 456.858978,106.824417 
M337.010834,728.551514 
	C337.818756,728.385498 338.781433,728.441101 339.402313,728.007324 
	C340.690094,727.107605 341.796326,725.948059 342.977142,724.895325 
	C341.682404,724.255981 340.364197,723.035339 339.097351,723.086487 
	C335.324219,723.238708 331.518951,723.657654 327.841003,724.483521 
	C326.680267,724.744263 325.881439,726.616638 324.916992,727.751404 
	C326.227264,728.418579 327.520355,729.597046 328.851532,729.641785 
	C331.289795,729.723572 333.750549,729.135986 337.010834,728.551514 
M316.766327,673.684631 
	C317.293732,672.611877 317.821136,671.539185 318.348572,670.466492 
	C317.213348,669.968994 316.009857,668.934509 314.954865,669.068542 
	C310.747803,669.602966 306.553223,670.364197 302.437378,671.379578 
	C301.608643,671.584045 301.143860,673.263916 300.511292,674.263550 
	C301.504791,674.878174 302.569550,676.107910 303.479584,676.002441 
	C307.686920,675.514709 311.851257,674.655884 316.766327,673.684631 
M431.238068,593.332214 
	C430.258972,594.601624 429.279907,595.871033 428.300781,597.140442 
	C429.892120,597.597717 431.510101,598.510559 433.069336,598.419312 
	C436.524750,598.216919 439.995453,597.699524 443.363190,596.902161 
	C444.470642,596.640015 445.280426,595.120605 446.226288,594.176086 
	C445.118713,593.443604 443.996887,592.071228 442.906189,592.095520 
	C439.277466,592.176331 435.659912,592.758911 431.238068,593.332214 
M425.034302,105.191910 
	C423.716919,102.101814 421.172729,101.342407 418.652832,102.967079 
	C417.445953,103.745201 416.496796,106.482506 416.943329,107.832054 
	C417.400360,109.213310 419.660614,110.760635 421.214050,110.853340 
	C424.200684,111.031563 425.603882,108.980835 425.034302,105.191910 
M356.915192,387.046906 
	C356.047485,385.146332 355.531311,382.901093 354.155945,381.498199 
	C353.518555,380.848053 350.186096,381.405151 349.861237,382.171692 
	C349.103607,383.959534 348.564148,386.800232 349.489899,388.144653 
	C351.528259,391.104889 354.306976,390.201447 356.915192,387.046906 
z"/>
<path fill="#0450BD" opacity="1.000000" stroke="none" 
	d="
M556.006042,174.020477 
	C553.126526,175.042068 550.246948,176.063644 547.367432,177.085205 
	C547.113708,176.659149 546.860046,176.233078 546.606323,175.807007 
	C549.620789,173.673981 552.756653,171.690369 555.616333,169.366821 
	C558.606140,166.937469 561.532593,164.364746 564.116211,161.518372 
	C566.945007,158.401855 570.689331,158.038452 573.745972,161.056580 
	C574.154419,161.459900 574.706726,161.727951 575.215881,162.017212 
	C582.899292,166.382263 583.085449,173.374756 575.648499,178.181778 
	C575.232849,178.450485 574.872131,178.804230 574.114014,179.420837 
	C578.021606,181.434357 577.392761,184.497879 575.320496,187.088684 
	C572.272827,190.899002 568.728149,194.311813 565.454956,197.829773 
	C566.500183,197.829773 568.432983,197.919235 570.355164,197.814011 
	C577.936218,197.398956 581.924316,201.027222 582.000549,208.525787 
	C582.034424,211.858170 581.755859,215.214355 582.061707,218.518784 
	C582.596130,224.291748 580.807861,228.770981 576.237244,232.493729 
	C572.582703,235.470337 573.393921,237.053024 577.023315,239.883255 
	C579.325317,241.678391 580.639038,244.951370 581.898743,247.782791 
	C582.517700,249.173798 581.741638,251.118240 582.048462,252.726074 
	C584.320923,264.635040 579.313416,273.015991 569.887146,279.823761 
	C565.203918,283.205994 561.541931,287.978638 556.967163,291.543762 
	C554.358948,293.576294 550.950989,295.278992 547.717957,295.696655 
	C530.728882,297.891541 513.669617,299.536865 496.660278,301.585114 
	C491.965332,302.150482 487.782257,301.846771 484.263153,297.844849 
	C480.402496,303.443787 474.698700,304.066132 468.767853,304.659546 
	C452.888489,306.248413 437.055786,308.320435 421.165253,309.769592 
	C417.532898,310.100830 413.742126,308.695312 408.921204,307.909302 
	C404.817047,313.961273 396.311676,312.059448 388.502380,313.856232 
	C390.773560,316.922577 392.685059,319.405457 394.490936,321.962891 
	C397.721741,326.538422 396.340179,330.042023 390.830292,330.763458 
	C376.800446,332.600464 362.747375,334.259247 348.707336,336.019440 
	C339.163666,337.215881 329.626343,338.463043 319.217438,339.799042 
	C324.907684,347.536102 330.220703,354.519135 335.218475,361.720947 
	C336.509857,363.581879 338.044739,366.854645 337.263702,368.182098 
	C336.232910,369.934021 333.079559,371.160736 330.751923,371.316437 
	C300.500885,373.340240 270.234375,375.132690 239.971954,376.986206 
	C220.351471,378.187927 200.731232,379.393982 181.110931,380.598694 
	C179.947021,380.670166 178.546356,381.192169 177.670059,380.725952 
	C175.955673,379.813965 173.516235,378.520630 173.275467,377.070038 
	C173.031250,375.598816 174.717255,372.795258 176.188293,372.237244 
	C180.984451,370.418091 186.064026,369.341278 191.042496,368.008484 
	C220.752563,360.054688 250.465042,352.109955 280.175446,344.157410 
	C281.098602,343.910278 282.007721,343.610901 283.654877,343.116180 
	C279.710388,337.784241 276.222443,332.787689 272.365112,328.094788 
	C271.600128,327.164124 269.378113,327.008484 267.895203,327.158752 
	C257.797058,328.182007 247.715714,329.372498 237.631302,330.529572 
	C230.888336,331.303253 228.299606,330.098297 225.124893,324.091278 
	C216.004349,306.833801 206.892227,289.570709 197.970673,272.210175 
	C195.756073,267.900757 196.103333,263.640503 200.061874,260.036438 
	C206.459549,254.211700 212.826904,248.341660 218.958328,242.240738 
	C223.025345,238.193985 227.392395,235.519379 233.362045,235.517761 
	C237.149750,235.516739 240.937256,234.701096 245.155548,234.199554 
	C245.155548,219.888443 245.513412,205.741348 245.019897,191.624008 
	C244.728806,183.296951 247.019867,176.967926 253.728729,171.761505 
	C259.357361,167.393417 264.028961,161.803162 269.585754,157.326904 
	C272.532990,154.952805 276.317535,152.799622 279.973694,152.270004 
	C293.628021,150.292175 307.357056,148.550522 321.118286,147.727341 
	C326.654968,147.396149 332.461975,149.283173 337.917328,150.921860 
	C340.419983,151.673599 341.957550,151.655334 343.478790,149.782745 
	C346.978210,145.475021 351.584351,143.789917 357.011658,143.433243 
	C362.817993,143.051666 368.610687,141.606995 374.380585,141.754166 
	C380.815796,141.918289 386.880981,141.329788 393.155090,139.690033 
	C399.524628,138.025314 406.320435,137.925919 412.947144,137.340317 
	C415.935669,137.076187 418.966919,137.295532 422.925598,137.295532 
	C421.120483,134.841461 419.695465,132.904327 418.270630,130.967041 
	C414.444977,125.765350 415.601562,122.671875 421.902344,121.836349 
	C442.034882,119.166664 462.182037,116.607597 482.321991,113.993637 
	C484.627258,113.694443 486.922546,113.318314 489.915863,112.875198 
	C484.435242,105.656654 479.099487,98.916451 474.140076,91.909843 
	C472.771667,89.976540 471.315887,86.663231 472.098480,85.048477 
	C472.906067,83.382118 476.366058,82.268120 478.709595,82.187401 
	C526.501343,80.541245 574.299622,79.081123 622.096130,77.571854 
	C625.216675,77.473312 628.446472,77.374207 628.985657,81.461586 
	C629.509766,85.434692 626.491699,86.336845 623.459717,87.219574 
	C593.462585,95.952934 563.478821,104.731880 532.533997,113.777748 
	C536.588074,119.031624 540.359619,123.949539 544.163330,128.842377 
	C551.973877,138.889313 551.440125,140.294159 539.002136,142.350800 
	C537.220337,142.645416 535.447510,142.994202 533.413513,143.364731 
	C533.329346,144.936508 533.070984,146.416458 533.205811,147.859665 
	C533.644897,152.559326 531.974731,156.157333 528.360779,159.224487 
	C524.394043,162.591019 525.103149,164.067535 529.078979,167.431061 
	C531.435181,169.424438 533.311829,172.908539 533.798096,175.976868 
	C534.570923,180.853180 534.717407,186.082367 533.775391,190.897491 
	C533.007935,194.819824 530.258118,198.354309 528.223328,202.385712 
	C530.446228,202.189651 533.260437,201.941452 536.081177,201.692673 
	C535.430725,193.869980 543.249146,184.030609 551.967773,181.331711 
	C554.728027,180.477264 558.100525,180.142776 557.366150,175.300583 
	C560.318054,173.051422 563.003113,171.288605 565.688232,169.525803 
	C565.201904,168.911224 564.715576,168.296646 564.229248,167.682068 
	C561.488159,169.794876 558.747131,171.907684 556.006042,174.020477 
M542.972534,200.902100 
	C548.532776,200.298294 554.093018,199.694473 558.954224,199.166580 
	C557.294434,196.310760 555.670166,193.516129 554.375061,190.138199 
	C555.138611,187.776855 557.978088,185.700928 555.840881,182.131866 
	C554.713135,185.569107 553.855591,188.182724 552.557922,191.324936 
	C549.036926,194.216080 545.515869,197.107208 541.443176,200.049149 
	C541.112488,200.427612 540.781799,200.806061 540.451172,201.184540 
	C541.007019,201.104935 541.562927,201.025330 542.972534,200.902100 
M339.110535,189.687378 
	C337.776062,187.182098 336.441589,184.676819 335.107147,182.171539 
	C333.101196,183.915039 333.327118,183.465286 333.681091,183.167923 
	C339.266174,178.475998 341.196136,171.140625 338.606354,164.355042 
	C336.527374,158.907822 331.283112,156.297226 323.270721,156.836151 
	C319.457214,157.092667 315.647675,157.450211 311.848602,157.872025 
	C300.645142,159.115967 289.447815,160.414841 278.329559,161.682922 
	C278.329559,181.041122 278.329559,199.946228 278.329559,219.117630 
	C293.546234,217.348099 308.452179,215.896515 323.268433,213.808578 
	C336.756378,211.907822 342.157379,203.734985 339.110535,189.687378 
M278.561218,250.514771 
	C278.561218,263.168457 278.561218,275.822174 278.561218,288.835022 
	C275.754944,289.229187 273.194336,289.588837 269.994141,290.038300 
	C269.994141,281.108490 270.046387,272.655731 269.951569,264.204620 
	C269.931854,262.444275 269.717072,260.528076 268.990417,258.963074 
	C266.716553,254.065765 264.272369,249.235825 261.620575,244.534073 
	C260.974823,243.389114 259.206635,242.032562 258.080261,242.136490 
	C248.736679,242.998505 239.422607,244.180634 229.478958,245.338226 
	C236.961609,259.525085 244.135910,273.167236 251.353195,286.786591 
	C253.498611,290.835114 254.842957,296.512695 258.233948,298.359009 
	C261.648560,300.218170 267.152435,298.240601 271.740753,297.942627 
	C272.239441,297.910248 272.739441,297.884796 273.235443,297.827118 
	C283.094849,296.680145 292.953735,295.528961 302.626404,294.400330 
	C302.626404,274.922272 302.626404,256.054504 302.626404,237.019714 
	C294.513275,237.975372 286.783936,238.885818 278.560944,239.854416 
	C278.560944,243.271072 278.560944,246.396851 278.561218,250.514771 
M506.120514,160.502289 
	C501.553162,160.964218 496.985840,161.426147 492.192963,161.910873 
	C492.192963,156.392502 492.192963,151.280838 492.192963,145.786819 
	C494.672638,145.505875 497.074097,145.233780 499.971008,144.905548 
	C499.971008,147.757187 499.971008,150.182755 499.971008,153.162125 
	C508.264160,152.224060 516.046875,151.343735 523.774048,150.469696 
	C523.774048,144.711624 523.774048,139.588730 523.774048,134.122498 
	C504.781586,136.270401 486.051453,138.388641 467.509277,140.485611 
	C467.509277,159.983398 467.509277,178.722031 467.509277,197.857178 
	C485.856293,195.820435 503.827301,193.857605 521.780396,191.742661 
	C522.732788,191.630463 524.244141,190.269592 524.287537,189.427811 
	C524.531494,184.691620 524.405151,179.936356 524.405151,175.048203 
	C515.919434,176.013382 508.180450,176.893616 500.245789,177.796112 
	C500.078613,180.643005 499.925812,183.244919 499.756653,186.125198 
	C497.182373,186.369049 494.798737,186.594849 492.260193,186.835327 
	C492.260193,181.006546 492.260193,175.753906 492.260193,170.308716 
	C500.321198,169.368286 508.153076,168.454590 515.800171,167.562454 
	C515.800171,164.632553 515.800171,162.211044 515.800171,159.459671 
	C512.617065,159.773010 509.817902,160.048538 506.120514,160.502289 
M540.155579,225.543854 
	C540.155579,223.280884 540.155579,221.017914 540.155579,218.509018 
	C543.190613,218.221268 545.603333,217.992523 548.237244,217.742813 
	C548.483582,220.681030 548.686218,223.098251 548.915771,225.836151 
	C557.043579,224.924652 564.743286,224.061172 572.455139,223.196320 
	C572.455139,217.595566 572.455139,212.379517 572.455139,206.837997 
	C553.446960,208.978088 534.847656,211.072144 516.390259,213.150223 
	C516.390259,232.477615 516.390259,251.348618 516.390259,270.559509 
	C535.432556,268.413269 554.053711,266.314514 572.699219,264.213013 
	C572.699219,258.533325 572.699219,253.284210 572.699219,247.785782 
	C566.936218,248.447205 561.496765,249.105133 556.049438,249.688354 
	C548.855591,250.458542 548.857544,250.433624 548.457153,257.684845 
	C548.440735,257.982788 548.180664,258.267273 547.888550,258.846802 
	C545.512390,259.046417 542.980957,259.259094 540.523254,259.465546 
	C540.523254,253.601028 540.523254,248.372253 540.523254,243.062332 
	C548.873169,242.084854 556.872681,241.148392 564.766602,240.224289 
	C564.766602,237.146988 564.766602,234.693192 564.766602,232.113434 
	C556.527771,232.971191 548.526917,233.804153 540.155579,234.675705 
	C540.155579,231.436676 540.155579,228.960022 540.155579,225.543854 
M265.031372,366.343201 
	C284.684692,365.167786 304.338013,363.992340 324.866028,362.764587 
	C318.890320,354.671539 313.497833,347.514526 308.272369,340.237579 
	C305.041534,335.738312 306.355927,332.649445 311.730591,331.919739 
	C324.266205,330.217773 336.815704,328.617981 349.359222,326.974152 
	C360.495728,325.514740 371.631775,324.051758 382.938293,322.568024 
	C378.671600,314.537231 378.654327,314.559692 370.589447,315.540710 
	C363.654541,316.384277 356.688721,316.996643 349.774078,317.976257 
	C344.163208,318.771179 338.838348,319.082550 334.781494,313.117004 
	C329.381317,321.453033 321.133850,321.557861 313.159851,321.917389 
	C305.452087,322.264954 297.040527,326.963379 290.536774,318.800568 
	C287.671753,321.152740 284.896240,323.431427 282.008057,325.802612 
	C286.010406,331.190247 290.043488,336.484772 293.926331,341.887299 
	C297.218658,346.468140 296.275024,349.169891 290.964111,350.691010 
	C287.928772,351.560394 284.841766,352.247437 281.789459,353.059601 
	C263.935730,357.810333 246.085358,362.573761 228.233856,367.332886 
	C228.279221,367.772644 228.324585,368.212402 228.369934,368.652161 
	C240.279938,367.915222 252.189941,367.178253 265.031372,366.343201 
M545.326965,100.752235 
	C559.083069,96.698471 572.839172,92.644699 586.595276,88.590935 
	C586.549194,88.333199 586.503174,88.075470 586.457153,87.817734 
	C552.787048,88.872894 519.117004,89.928055 484.614258,91.009315 
	C490.463837,98.775337 495.808044,105.736618 500.998810,112.810463 
	C504.264557,117.260956 502.957458,120.330544 497.515747,121.080025 
	C487.463013,122.464592 477.391357,123.711678 467.328033,125.019524 
	C454.687683,126.662285 442.047760,128.308548 429.295288,129.967911 
	C430.964020,134.247879 433.547455,135.146652 437.660461,134.742050 
	C445.152191,134.005112 452.727539,134.128372 460.265839,133.836761 
	C460.875549,133.813187 461.449799,133.292679 462.072693,133.117432 
	C464.759338,132.361588 467.416809,131.309631 470.159149,130.976425 
	C484.350800,129.252090 498.555328,127.618347 512.776672,126.161255 
	C518.457397,125.579231 524.192871,125.531387 529.906616,125.240211 
	C527.842651,122.517899 525.231384,119.136719 522.688599,115.704788 
	C518.984436,110.705238 519.826599,108.154747 525.870483,106.337502 
	C532.073608,104.472389 538.317017,102.741219 545.326965,100.752235 
M391.997681,239.517380 
	C391.997681,235.421295 391.997681,231.325226 391.997681,227.032364 
	C383.423004,228.044662 375.409637,228.990707 367.484497,229.926331 
	C367.484497,249.280563 367.484497,268.014221 367.484497,287.236328 
	C386.566864,285.085938 405.279785,282.977203 423.694519,280.902039 
	C423.694519,272.355072 423.694519,264.582428 423.694519,256.414429 
	C415.657196,257.310486 407.965942,258.167938 399.845825,259.073212 
	C399.845825,264.744873 399.845825,269.985199 399.845825,275.526276 
	C397.012665,275.712311 394.647156,275.867645 391.997681,276.041626 
	C391.997681,263.786957 391.997681,252.149887 391.997681,239.517380 
M458.254822,219.664032 
	C454.119232,220.096771 449.992157,220.716904 445.845459,220.904449 
	C442.371185,221.061584 441.465515,222.611603 441.495026,225.924393 
	C441.640442,242.252274 441.552063,258.582184 441.579376,274.911285 
	C441.581482,276.168640 441.840149,277.425568 442.001160,278.877502 
	C460.870331,276.754944 479.323700,274.679138 497.801392,272.600586 
	C497.801392,264.171906 497.801392,256.212860 497.801392,248.083954 
	C489.855194,248.999405 482.119812,249.890579 473.976685,250.828705 
	C473.976685,256.364960 473.976685,261.630554 473.976685,267.095703 
	C471.160767,267.399475 468.766235,267.657806 465.929535,267.963806 
	C465.929535,251.353561 465.929535,235.249283 465.929535,218.772568 
	C463.377167,219.072525 461.264374,219.320801 458.254822,219.664032 
M377.833588,177.500015 
	C377.833588,168.717484 377.833588,159.934952 377.833588,150.539169 
	C369.247864,151.479660 361.264954,152.354111 353.214691,153.235962 
	C353.214691,172.676407 353.214691,191.601303 353.214691,210.695816 
	C361.477966,209.740448 369.509155,208.811920 377.833527,207.849487 
	C377.833527,197.755219 377.833527,188.127625 377.833588,177.500015 
M445.944885,180.550064 
	C440.386780,174.164642 439.930481,167.759781 445.411774,160.953217 
	C447.144135,158.802017 447.996918,155.952545 449.316925,153.456863 
	C451.252625,149.797104 453.246552,146.168137 455.597839,141.819107 
	C447.380310,142.718857 440.289581,143.411606 433.222656,144.295074 
	C427.411041,145.021606 423.249237,149.112396 423.101685,155.168854 
	C422.801697,167.479874 422.587219,179.827347 423.283386,192.106171 
	C423.478180,195.541443 426.933044,201.606155 428.966339,201.637283 
	C437.919952,201.774307 446.900604,200.145996 456.566925,199.080658 
	C452.770233,192.582489 449.463623,186.923157 445.944885,180.550064 
M347.152191,271.498352 
	C347.152191,258.410645 347.152191,245.322922 347.152191,232.079102 
	C338.873993,233.022186 331.143890,233.902832 323.226440,234.804825 
	C323.226440,253.953537 323.226440,272.844482 323.226440,292.173737 
	C331.276367,291.256165 339.083710,290.366211 347.152252,289.446503 
	C347.152252,283.439453 347.152252,277.968445 347.152191,271.498352 
M413.348572,203.979996 
	C416.553955,204.067703 415.985046,201.737839 415.988037,199.815491 
	C416.001099,191.485382 415.993744,183.155243 415.993774,174.825104 
	C415.993805,165.369751 415.993774,155.914383 415.993774,146.219910 
	C407.611511,147.182434 399.732269,148.087204 391.562012,149.025375 
	C391.562012,158.834717 391.562012,168.138077 391.562012,177.441437 
	C391.562012,186.877472 391.562012,196.313522 391.562012,206.310608 
	C398.964478,205.496826 405.699249,204.756439 413.348572,203.979996 
M409.085632,241.244263 
	C411.012573,238.494095 412.939514,235.743927 415.166595,232.565384 
	C410.345032,232.966019 405.852936,233.339294 401.398254,233.709457 
	C401.398254,239.120041 401.398254,244.276321 401.398254,249.665649 
	C404.085510,249.323593 406.324402,249.038605 408.699432,248.736298 
	C408.816040,246.330383 408.919220,244.201874 409.085632,241.244263 
M483.087799,234.067657 
	C485.164612,230.729492 487.241455,227.391327 489.293335,224.093246 
	C484.757172,224.634628 480.033722,225.198364 475.320374,225.760895 
	C475.320374,231.134583 475.320374,236.145035 475.320374,241.334976 
	C478.071259,240.977036 480.456299,240.666687 483.025024,240.332443 
	C483.025024,238.194687 483.025024,236.553635 483.087799,234.067657 
z"/>
<path fill="#034FBC" opacity="1.000000" stroke="none" 
	d="
M348.515198,650.443726 
	C329.740479,652.565857 310.970978,654.735596 292.187531,656.777283 
	C287.341888,657.304016 283.646515,653.568787 283.505737,648.006714 
	C283.337158,641.346252 283.460785,634.678406 283.460510,628.013733 
	C283.459717,608.352966 283.526062,588.691895 283.414398,569.031738 
	C283.386200,564.065369 284.797852,560.256226 288.696655,556.818298 
	C298.550446,548.129578 308.253693,539.237244 317.524078,529.934937 
	C321.578033,525.867126 326.301514,524.891602 331.362366,524.304993 
	C344.702362,522.758972 358.060516,521.362671 371.422394,520.015198 
	C379.169800,519.234009 386.930634,518.547607 394.699127,518.021179 
	C408.820648,517.064087 422.864685,526.594482 423.036133,544.383972 
	C423.047089,545.519409 423.323029,546.652344 423.537109,548.242493 
	C428.551819,547.360657 433.363770,546.514526 438.926483,545.536316 
	C435.510284,541.553101 432.288483,538.032532 429.376984,534.271790 
	C428.379272,532.983032 428.158386,531.092834 427.582581,529.477417 
	C429.039490,528.980957 430.465942,528.185486 431.957977,528.033386 
	C451.751648,526.015076 471.552948,524.070923 491.355865,522.144592 
	C498.784332,521.422058 506.214539,520.669800 513.661560,520.226929 
	C515.120850,520.140076 516.661316,521.416504 518.164307,522.064209 
	C517.115967,523.341980 516.319031,525.293152 514.980164,525.792969 
	C501.978271,530.647522 488.883698,535.253784 475.819946,539.943054 
	C471.931793,541.338684 468.057312,542.772400 463.691895,544.365601 
	C466.777527,547.926514 469.712708,551.222290 472.541504,554.607056 
	C474.817291,557.330200 474.758423,559.324768 470.715881,560.142700 
	C457.418945,562.833130 444.139282,565.608704 430.145386,568.497681 
	C433.441315,572.380554 436.659180,576.067932 439.759308,579.851685 
	C443.121613,583.955444 442.647369,585.206909 437.550385,586.148560 
	C437.224792,586.208679 436.893250,586.270447 436.564117,586.272400 
	C428.450867,586.320740 422.920776,589.254761 420.970581,598.032104 
	C420.207397,601.467041 416.996307,604.358154 414.733582,607.746277 
	C416.910034,607.746277 419.167450,608.069763 421.300323,607.691345 
	C431.705597,605.845032 433.741486,607.127930 436.138214,617.876587 
	C438.940338,615.311218 441.879974,613.129028 444.177643,610.405334 
	C448.341766,605.469116 453.669312,603.663208 459.839264,603.046814 
	C471.710083,601.860779 483.544342,600.311340 495.412323,599.093262 
	C498.966644,598.728394 502.755402,598.287903 505.233582,602.026245 
	C507.551361,605.522583 506.793091,608.674622 505.075958,612.289856 
	C492.103027,639.602783 479.493469,667.089783 466.331085,694.309875 
	C464.029816,699.068909 460.023621,703.197693 456.172852,706.972839 
	C448.100128,714.887085 439.374542,722.140564 431.391663,730.139038 
	C427.811584,733.726074 423.809296,735.340820 419.145538,735.857117 
	C403.017822,737.642578 386.875824,739.298706 370.739502,741.006531 
	C366.949066,741.407654 363.160126,741.823486 359.369598,742.223572 
	C353.114258,742.884033 349.902771,740.197449 349.447205,734.082153 
	C349.224823,731.096863 350.920746,727.323242 346.331299,725.856323 
	C346.142670,725.795959 346.440247,722.593628 346.860657,722.504578 
	C350.310211,721.773987 349.429199,719.193970 349.442688,717.055237 
	C349.488556,709.787964 349.460175,702.520142 349.460175,694.809509 
	C341.669403,696.382324 334.609161,697.807617 326.828094,699.378418 
	C330.242310,703.409180 333.450989,707.101562 336.551178,710.882874 
	C339.978516,715.063171 339.565582,716.309631 334.436279,717.013306 
	C312.307251,720.049011 290.166199,722.996887 268.037109,726.032166 
	C261.982452,726.862610 255.974777,728.090454 249.901794,728.700623 
	C247.995544,728.892151 245.946350,727.661011 243.962601,727.081055 
	C245.505188,725.713257 246.823822,723.712585 248.624863,723.075256 
	C267.165955,716.514587 285.785919,710.176880 304.377625,703.758850 
	C304.828156,703.603333 305.206573,703.239014 306.085571,702.669617 
	C302.456207,698.338623 298.869781,694.125427 295.359772,689.849548 
	C292.450592,686.305664 292.851349,684.799194 297.291534,683.888733 
	C309.730408,681.338196 322.209167,678.982178 335.505676,676.386719 
	C332.073120,672.306396 328.773163,668.535156 325.677917,664.602783 
	C324.857361,663.560364 323.997742,661.760437 324.378998,660.787720 
	C324.741058,659.864136 326.660370,659.218262 327.970367,659.054565 
	C334.871948,658.192444 341.797424,657.521667 349.185242,656.734375 
	C349.261383,655.228882 349.340912,653.656860 349.515198,651.531494 
	C349.245056,650.800110 348.880127,650.621948 348.515198,650.443726 
M339.505066,615.011841 
	C352.888062,613.525269 366.289948,612.187256 379.646240,610.490662 
	C386.538239,609.615234 393.604523,608.869690 400.136658,606.696594 
	C409.812714,603.477539 415.932495,596.309082 416.899780,585.882812 
	C417.750427,576.713867 414.894867,569.173828 404.654633,565.847229 
	C411.971405,561.722412 414.720398,555.630188 415.316498,548.078918 
	C416.348297,535.009338 409.717499,526.530884 396.672974,525.787842 
	C390.591766,525.441406 384.409698,526.372742 378.305145,527.023254 
	C360.981964,528.869141 343.675171,530.868774 326.366394,532.807373 
	C326.366394,560.852051 326.366394,588.552429 326.366394,616.553223 
	C330.704926,616.055359 334.654907,615.602051 339.505066,615.011841 
M472.881531,662.348328 
	C481.505402,644.057983 490.129242,625.767639 499.127777,606.682617 
	C484.329041,608.365234 470.382019,609.850464 456.480377,611.680237 
	C455.022003,611.872192 453.363892,613.865540 452.595886,615.417603 
	C448.988800,622.706970 445.381012,630.021912 442.348206,637.558960 
	C440.790405,641.430298 439.789368,645.766113 439.661774,649.926514 
	C439.306152,661.524658 439.538208,673.140869 439.538208,685.274414 
	C435.359711,685.625122 431.652313,685.936279 427.451172,686.288879 
	C427.451172,662.283508 427.451172,638.878357 427.451172,614.823669 
	C423.384766,615.252258 419.827484,615.893555 416.261047,615.949463 
	C407.976715,616.079346 400.769196,618.188904 395.209106,624.911377 
	C393.209076,627.329529 391.898224,629.403503 391.922546,632.709534 
	C392.080627,654.187561 392.003662,675.667358 392.003693,697.146545 
	C392.003693,698.757080 392.003693,700.367615 392.003693,701.985291 
	C394.427460,701.985291 396.270966,702.156982 398.073730,701.958740 
	C416.176636,699.967529 434.264191,697.832825 452.377655,695.945679 
	C456.342346,695.532715 458.438782,693.669434 460.003418,690.141968 
	C464.041840,681.037415 468.405945,672.077393 472.881531,662.348328 
M349.162720,662.378113 
	C343.729340,662.799500 338.295959,663.220825 331.767517,663.727112 
	C335.488556,668.085876 338.291565,671.321045 341.040344,674.601624 
	C344.321167,678.517212 343.751587,680.051331 338.824951,681.008606 
	C326.422546,683.418518 314.028259,685.869934 300.957733,688.436951 
	C304.461578,692.536621 307.678894,696.276367 310.868652,700.039368 
	C314.654297,704.505371 314.348785,705.632080 308.945343,707.505798 
	C298.423035,711.154480 287.905487,714.816956 277.385986,718.473755 
	C277.452637,718.827820 277.519318,719.181946 277.585999,719.536072 
	C295.011902,717.258484 312.437775,714.980896 330.984680,712.556763 
	C327.411102,708.334900 324.307465,704.812195 321.369202,701.156555 
	C318.395935,697.457520 318.987488,695.875122 323.637634,694.869812 
	C332.156158,693.028381 340.690399,691.259583 349.490204,689.402954 
	C349.490204,680.461548 349.490204,671.828735 349.162720,662.378113 
M480.290558,532.853271 
	C483.989014,531.429932 487.687469,530.006531 491.385925,528.583130 
	C491.297455,528.257874 491.208984,527.932556 491.120514,527.607300 
	C472.757843,529.321106 454.395172,531.034973 435.097076,532.836121 
	C437.520691,535.700378 439.164825,537.745605 440.915619,539.695129 
	C449.560944,549.321838 448.141541,549.416016 436.507782,551.111023 
	C428.458771,552.283630 420.453705,553.386292 418.519073,563.437622 
	C418.433990,563.879639 418.155884,564.284363 417.967682,564.706421 
	C418.368591,564.591248 418.769470,564.476013 419.170380,564.360779 
	C421.455353,570.425537 423.740356,576.490356 426.042694,582.601257 
	C428.287598,582.301025 430.948761,581.945190 434.206055,581.509644 
	C431.341400,578.151794 428.742889,575.390991 426.494629,572.369507 
	C425.013275,570.378723 424.036316,568.012634 422.833527,565.814575 
	C425.208405,564.883484 427.582184,563.949524 429.960876,563.028320 
	C430.106720,562.971802 430.296234,563.040405 430.456848,563.008057 
	C442.290161,560.628845 454.122650,558.245239 466.531799,555.745911 
	C463.709900,552.459473 461.354858,549.710815 458.993256,546.967773 
	C455.481598,542.889038 455.660431,541.860657 460.483307,540.028809 
	C466.804413,537.627930 473.169647,535.343262 480.290558,532.853271 
z"/>
<path fill="#0350BE" opacity="1.000000" stroke="none" 
	d="
M312.858032,385.669830 
	C314.411499,384.541779 315.767395,383.207336 317.217010,383.096313 
	C324.338348,382.550934 331.487061,382.374023 338.620972,381.975555 
	C341.811432,381.797333 344.312622,383.103607 343.761261,386.270386 
	C343.450592,388.054657 340.903473,390.565674 339.125488,390.780975 
	C332.221497,391.616974 325.220490,391.637329 318.258453,392.014618 
	C313.951691,392.247986 312.009094,390.385681 312.858032,385.669830 
z"/>
<path fill="#0450BD" opacity="1.000000" stroke="none" 
	d="
M456.444397,106.874756 
	C449.278198,107.660889 442.528992,108.419807 435.773773,109.121216 
	C433.042084,109.404861 430.223175,109.512581 429.546265,105.934601 
	C428.835266,102.176147 431.441498,100.797447 434.401978,100.376686 
	C441.121948,99.421616 447.884918,98.769279 454.630402,97.993607 
	C457.506775,97.662842 460.558502,98.156975 460.646240,101.383934 
	C460.694580,103.161797 458.204590,105.008659 456.444397,106.874756 
z"/>
<path fill="#0C57C0" opacity="1.000000" stroke="none" 
	d="
M336.606384,728.689514 
	C333.750549,729.135986 331.289795,729.723572 328.851532,729.641785 
	C327.520355,729.597046 326.227264,728.418579 324.916992,727.751404 
	C325.881439,726.616638 326.680267,724.744263 327.841003,724.483521 
	C331.518951,723.657654 335.324219,723.238708 339.097351,723.086487 
	C340.364197,723.035339 341.682404,724.255981 342.977173,724.895264 
	C341.796326,725.948059 340.690094,727.107605 339.402313,728.007324 
	C338.781433,728.441101 337.818756,728.385498 336.606384,728.689514 
z"/>
<path fill="#0F58C1" opacity="1.000000" stroke="none" 
	d="
M316.398682,673.807373 
	C311.851257,674.655884 307.686920,675.514709 303.479584,676.002441 
	C302.569550,676.107910 301.504791,674.878174 300.511292,674.263550 
	C301.143860,673.263916 301.608643,671.584045 302.437378,671.379578 
	C306.553223,670.364197 310.747803,669.602966 314.954865,669.068542 
	C316.009857,668.934509 317.213348,669.968994 318.348572,670.466492 
	C317.821136,671.539185 317.293732,672.611877 316.398682,673.807373 
z"/>
<path fill="#0C57C0" opacity="1.000000" stroke="none" 
	d="
M431.638062,593.240601 
	C435.659912,592.758911 439.277466,592.176331 442.906189,592.095520 
	C443.996887,592.071228 445.118713,593.443604 446.226288,594.176086 
	C445.280426,595.120605 444.470642,596.640015 443.363190,596.902161 
	C439.995453,597.699524 436.524750,598.216919 433.069336,598.419312 
	C431.510101,598.510559 429.892120,597.597717 428.300781,597.140442 
	C429.279907,595.871033 430.258972,594.601624 431.638062,593.240601 
z"/>
<path fill="#135BC2" opacity="1.000000" stroke="none" 
	d="
M425.071686,105.548134 
	C425.603882,108.980835 424.200684,111.031563 421.214050,110.853340 
	C419.660614,110.760635 417.400360,109.213310 416.943329,107.832054 
	C416.496796,106.482506 417.445953,103.745201 418.652832,102.967079 
	C421.172729,101.342407 423.716919,102.101814 425.071686,105.548134 
z"/>
<path fill="#135BC2" opacity="1.000000" stroke="none" 
	d="
M356.742340,387.406738 
	C354.306976,390.201447 351.528259,391.104889 349.489899,388.144653 
	C348.564148,386.800232 349.103607,383.959534 349.861237,382.171692 
	C350.186096,381.405151 353.518555,380.848053 354.155945,381.498199 
	C355.531311,382.901093 356.047485,385.146332 356.742340,387.406738 
z"/>
<path fill="#E4EDF8" opacity="1.000000" stroke="none" 
	d="
M556.081726,174.235565 
	C558.747131,171.907684 561.488159,169.794876 564.229248,167.682068 
	C564.715576,168.296646 565.201904,168.911224 565.688232,169.525803 
	C563.003113,171.288605 560.318054,173.051422 557.258606,174.891083 
	C556.569580,174.897263 556.327332,174.724838 556.081726,174.235565 
z"/>
<path fill="#F4F4F5" opacity="1.000000" stroke="none" 
	d="
M339.352356,189.999146 
	C342.157379,203.734985 336.756378,211.907822 323.268433,213.808578 
	C308.452179,215.896515 293.546234,217.348099 278.329559,219.117630 
	C278.329559,199.946228 278.329559,181.041122 278.329559,161.682922 
	C289.447815,160.414841 300.645142,159.115967 311.848602,157.872025 
	C315.647675,157.450211 319.457214,157.092667 323.270721,156.836151 
	C331.283112,156.297226 336.527374,158.907822 338.606354,164.355042 
	C341.196136,171.140625 339.266174,178.475998 333.681091,183.167923 
	C333.327118,183.465286 333.101196,183.915039 335.107147,182.171539 
	C336.441589,184.676819 337.776062,187.182098 339.352356,189.999146 
M302.996338,204.287476 
	C303.132812,205.505264 303.269287,206.723038 303.423737,208.101486 
	C306.163513,207.780334 308.439911,207.513504 310.710083,207.247406 
	C310.710083,193.289169 310.710083,179.734329 310.710083,166.018936 
	C307.996887,166.421967 305.596375,166.778549 302.996246,167.164780 
	C302.996246,179.414932 302.996246,191.373184 302.996338,204.287476 
z"/>
<path fill="#F4F5F5" opacity="1.000000" stroke="none" 
	d="
M278.561096,250.018707 
	C278.560944,246.396851 278.560944,243.271072 278.560944,239.854416 
	C286.783936,238.885818 294.513275,237.975372 302.626404,237.019714 
	C302.626404,256.054504 302.626404,274.922272 302.626404,294.400330 
	C292.953735,295.528961 283.094849,296.680145 273.235443,297.827118 
	C272.739441,297.884796 272.239441,297.910248 271.740753,297.942627 
	C267.152435,298.240601 261.648560,300.218170 258.233948,298.359009 
	C254.842957,296.512695 253.498611,290.835114 251.353195,286.786591 
	C244.135910,273.167236 236.961609,259.525085 229.478958,245.338226 
	C239.422607,244.180634 248.736679,242.998505 258.080261,242.136490 
	C259.206635,242.032562 260.974823,243.389114 261.620575,244.534073 
	C264.272369,249.235825 266.716553,254.065765 268.990417,258.963074 
	C269.717072,260.528076 269.931854,262.444275 269.951569,264.204620 
	C270.046387,272.655731 269.994141,281.108490 269.994141,290.038300 
	C273.194336,289.588837 275.754944,289.229187 278.561218,288.835022 
	C278.561218,275.822174 278.561218,263.168457 278.561096,250.018707 
z"/>
<path fill="#F2F3F4" opacity="1.000000" stroke="none" 
	d="
M506.569641,160.413177 
	C509.817902,160.048538 512.617065,159.773010 515.800171,159.459671 
	C515.800171,162.211044 515.800171,164.632553 515.800171,167.562454 
	C508.153076,168.454590 500.321198,169.368286 492.260193,170.308716 
	C492.260193,175.753906 492.260193,181.006546 492.260193,186.835327 
	C494.798737,186.594849 497.182373,186.369049 499.756653,186.125198 
	C499.925812,183.244919 500.078613,180.643005 500.245789,177.796112 
	C508.180450,176.893616 515.919434,176.013382 524.405151,175.048203 
	C524.405151,179.936356 524.531494,184.691620 524.287537,189.427811 
	C524.244141,190.269592 522.732788,191.630463 521.780396,191.742661 
	C503.827301,193.857605 485.856293,195.820435 467.509277,197.857178 
	C467.509277,178.722031 467.509277,159.983398 467.509277,140.485611 
	C486.051453,138.388641 504.781586,136.270401 523.774048,134.122498 
	C523.774048,139.588730 523.774048,144.711624 523.774048,150.469696 
	C516.046875,151.343735 508.264160,152.224060 499.971008,153.162125 
	C499.971008,150.182755 499.971008,147.757187 499.971008,144.905548 
	C497.074097,145.233780 494.672638,145.505875 492.192963,145.786819 
	C492.192963,151.280838 492.192963,156.392502 492.192963,161.910873 
	C496.985840,161.426147 501.553162,160.964218 506.569641,160.413177 
z"/>
<path fill="#F3F4F5" opacity="1.000000" stroke="none" 
	d="
M540.155579,226.013611 
	C540.155579,228.960022 540.155579,231.436676 540.155579,234.675705 
	C548.526917,233.804153 556.527771,232.971191 564.766602,232.113434 
	C564.766602,234.693192 564.766602,237.146988 564.766602,240.224289 
	C556.872681,241.148392 548.873169,242.084854 540.523254,243.062332 
	C540.523254,248.372253 540.523254,253.601028 540.523254,259.465546 
	C542.980957,259.259094 545.512390,259.046417 547.888550,258.846802 
	C548.180664,258.267273 548.440735,257.982788 548.457153,257.684845 
	C548.857544,250.433624 548.855591,250.458542 556.049438,249.688354 
	C561.496765,249.105133 566.936218,248.447205 572.699219,247.785782 
	C572.699219,253.284210 572.699219,258.533325 572.699219,264.213013 
	C554.053711,266.314514 535.432556,268.413269 516.390259,270.559509 
	C516.390259,251.348618 516.390259,232.477615 516.390259,213.150223 
	C534.847656,211.072144 553.446960,208.978088 572.455139,206.837997 
	C572.455139,212.379517 572.455139,217.595566 572.455139,223.196320 
	C564.743286,224.061172 557.043579,224.924652 548.915771,225.836151 
	C548.686218,223.098251 548.483582,220.681030 548.237244,217.742813 
	C545.603333,217.992523 543.190613,218.221268 540.155579,218.509018 
	C540.155579,221.017914 540.155579,223.280884 540.155579,226.013611 
z"/>
<path fill="#F8AD05" opacity="1.000000" stroke="none" 
	d="
M264.565674,366.392242 
	C252.189941,367.178253 240.279938,367.915222 228.369934,368.652161 
	C228.324585,368.212402 228.279221,367.772644 228.233856,367.332886 
	C246.085358,362.573761 263.935730,357.810333 281.789459,353.059601 
	C284.841766,352.247437 287.928772,351.560394 290.964111,350.691010 
	C296.275024,349.169891 297.218658,346.468140 293.926331,341.887299 
	C290.043488,336.484772 286.010406,331.190247 282.008057,325.802612 
	C284.896240,323.431427 287.671753,321.152740 290.536774,318.800568 
	C297.040527,326.963379 305.452087,322.264954 313.159851,321.917389 
	C321.133850,321.557861 329.381317,321.453033 334.781494,313.117004 
	C338.838348,319.082550 344.163208,318.771179 349.774078,317.976257 
	C356.688721,316.996643 363.654541,316.384277 370.589447,315.540710 
	C378.654327,314.559692 378.671600,314.537231 382.938293,322.568024 
	C371.631775,324.051758 360.495728,325.514740 349.359222,326.974152 
	C336.815704,328.617981 324.266205,330.217773 311.730591,331.919739 
	C306.355927,332.649445 305.041534,335.738312 308.272369,340.237579 
	C313.497833,347.514526 318.890320,354.671539 324.866028,362.764587 
	C304.338013,363.992340 284.684692,365.167786 264.565674,366.392242 
z"/>
<path fill="#F8AD06" opacity="1.000000" stroke="none" 
	d="
M544.934875,100.851837 
	C538.317017,102.741219 532.073608,104.472389 525.870483,106.337502 
	C519.826599,108.154747 518.984436,110.705238 522.688599,115.704788 
	C525.231384,119.136719 527.842651,122.517899 529.906616,125.240211 
	C524.192871,125.531387 518.457397,125.579231 512.776672,126.161255 
	C498.555328,127.618347 484.350800,129.252090 470.159149,130.976425 
	C467.416809,131.309631 464.759338,132.361588 462.072693,133.117432 
	C461.449799,133.292679 460.875549,133.813187 460.265839,133.836761 
	C452.727539,134.128372 445.152191,134.005112 437.660461,134.742050 
	C433.547455,135.146652 430.964020,134.247879 429.295288,129.967911 
	C442.047760,128.308548 454.687683,126.662285 467.328033,125.019524 
	C477.391357,123.711678 487.463013,122.464592 497.515747,121.080025 
	C502.957458,120.330544 504.264557,117.260956 500.998810,112.810463 
	C495.808044,105.736618 490.463837,98.775337 484.614258,91.009315 
	C519.117004,89.928055 552.787048,88.872894 586.457153,87.817734 
	C586.503174,88.075470 586.549194,88.333199 586.595276,88.590935 
	C572.839172,92.644699 559.083069,96.698471 544.934875,100.851837 
z"/>
<path fill="#F3F3F4" opacity="1.000000" stroke="none" 
	d="
M391.997681,240.015106 
	C391.997681,252.149887 391.997681,263.786957 391.997681,276.041626 
	C394.647156,275.867645 397.012665,275.712311 399.845825,275.526276 
	C399.845825,269.985199 399.845825,264.744873 399.845825,259.073212 
	C407.965942,258.167938 415.657196,257.310486 423.694519,256.414429 
	C423.694519,264.582428 423.694519,272.355072 423.694519,280.902039 
	C405.279785,282.977203 386.566864,285.085938 367.484497,287.236328 
	C367.484497,268.014221 367.484497,249.280563 367.484497,229.926331 
	C375.409637,228.990707 383.423004,228.044662 391.997681,227.032364 
	C391.997681,231.325226 391.997681,235.421295 391.997681,240.015106 
z"/>
<path fill="#F4F4F5" opacity="1.000000" stroke="none" 
	d="
M458.703217,219.616562 
	C461.264374,219.320801 463.377167,219.072525 465.929535,218.772568 
	C465.929535,235.249283 465.929535,251.353561 465.929535,267.963806 
	C468.766235,267.657806 471.160767,267.399475 473.976685,267.095703 
	C473.976685,261.630554 473.976685,256.364960 473.976685,250.828705 
	C482.119812,249.890579 489.855194,248.999405 497.801392,248.083954 
	C497.801392,256.212860 497.801392,264.171906 497.801392,272.600586 
	C479.323700,274.679138 460.870331,276.754944 442.001160,278.877502 
	C441.840149,277.425568 441.581482,276.168640 441.579376,274.911285 
	C441.552063,258.582184 441.640442,242.252274 441.495026,225.924393 
	C441.465515,222.611603 442.371185,221.061584 445.845459,220.904449 
	C449.992157,220.716904 454.119232,220.096771 458.703217,219.616562 
z"/>
<path fill="#F2F3F4" opacity="1.000000" stroke="none" 
	d="
M377.833557,178.000031 
	C377.833527,188.127625 377.833527,197.755219 377.833527,207.849487 
	C369.509155,208.811920 361.477966,209.740448 353.214691,210.695816 
	C353.214691,191.601303 353.214691,172.676407 353.214691,153.235962 
	C361.264954,152.354111 369.247864,151.479660 377.833588,150.539169 
	C377.833588,159.934952 377.833588,168.717484 377.833557,178.000031 
z"/>
<path fill="#F4F4F5" opacity="1.000000" stroke="none" 
	d="
M446.050964,180.906952 
	C449.463623,186.923157 452.770233,192.582489 456.566925,199.080658 
	C446.900604,200.145996 437.919952,201.774307 428.966339,201.637283 
	C426.933044,201.606155 423.478180,195.541443 423.283386,192.106171 
	C422.587219,179.827347 422.801697,167.479874 423.101685,155.168854 
	C423.249237,149.112396 427.411041,145.021606 433.222656,144.295074 
	C440.289581,143.411606 447.380310,142.718857 455.597839,141.819107 
	C453.246552,146.168137 451.252625,149.797104 449.316925,153.456863 
	C447.996918,155.952545 447.144135,158.802017 445.411774,160.953217 
	C439.930481,167.759781 440.386780,174.164642 446.050964,180.906952 
z"/>
<path fill="#F5F5F5" opacity="1.000000" stroke="none" 
	d="
M347.152222,271.997894 
	C347.152252,277.968445 347.152252,283.439453 347.152252,289.446503 
	C339.083710,290.366211 331.276367,291.256165 323.226440,292.173737 
	C323.226440,272.844482 323.226440,253.953537 323.226440,234.804825 
	C331.143890,233.902832 338.873993,233.022186 347.152191,232.079102 
	C347.152191,245.322922 347.152191,258.410645 347.152222,271.997894 
z"/>
<path fill="#F5F5F5" opacity="1.000000" stroke="none" 
	d="
M412.891296,203.998016 
	C405.699249,204.756439 398.964478,205.496826 391.562012,206.310608 
	C391.562012,196.313522 391.562012,186.877472 391.562012,177.441437 
	C391.562012,168.138077 391.562012,158.834717 391.562012,149.025375 
	C399.732269,148.087204 407.611511,147.182434 415.993774,146.219910 
	C415.993774,155.914383 415.993805,165.369751 415.993774,174.825104 
	C415.993744,183.155243 416.001099,191.485382 415.988037,199.815491 
	C415.985046,201.737839 416.553955,204.067703 412.891296,203.998016 
z"/>
<path fill="#F0F4FB" opacity="1.000000" stroke="none" 
	d="
M409.054016,241.658813 
	C408.919220,244.201874 408.816040,246.330383 408.699432,248.736298 
	C406.324402,249.038605 404.085510,249.323593 401.398254,249.665649 
	C401.398254,244.276321 401.398254,239.120041 401.398254,233.709457 
	C405.852936,233.339294 410.345032,232.966019 415.166595,232.565384 
	C412.939514,235.743927 411.012573,238.494095 409.054016,241.658813 
z"/>
<path fill="#F3F7FC" opacity="1.000000" stroke="none" 
	d="
M483.056396,234.490112 
	C483.025024,236.553635 483.025024,238.194687 483.025024,240.332443 
	C480.456299,240.666687 478.071259,240.977036 475.320374,241.334976 
	C475.320374,236.145035 475.320374,231.134583 475.320374,225.760895 
	C480.033722,225.198364 484.757172,224.634628 489.293335,224.093246 
	C487.241455,227.391327 485.164612,230.729492 483.056396,234.490112 
z"/>
<path fill="#E4EDF8" opacity="1.000000" stroke="none" 
	d="
M554.045959,190.721497 
	C555.670166,193.516129 557.294434,196.310760 558.954224,199.166580 
	C554.093018,199.694473 548.532776,200.298294 542.477905,200.691879 
	C541.983276,200.481659 541.994873,199.998337 541.994873,199.998337 
	C545.515869,197.107208 549.036926,194.216080 553.040588,191.050598 
	C553.697510,190.757996 553.871704,190.739746 554.045959,190.721497 
z"/>
<path fill="#0552BE" opacity="1.000000" stroke="none" 
	d="
M554.210510,190.429840 
	C553.871704,190.739746 553.697510,190.757996 553.260620,190.786285 
	C553.855591,188.182724 554.713135,185.569107 555.840881,182.131866 
	C557.978088,185.700928 555.138611,187.776855 554.210510,190.429840 
z"/>
<path fill="#0552BE" opacity="1.000000" stroke="none" 
	d="
M541.718994,200.023743 
	C541.994873,199.998337 541.983276,200.481659 542.051025,200.713699 
	C541.562927,201.025330 541.007019,201.104935 540.451172,201.184540 
	C540.781799,200.806061 541.112488,200.427612 541.718994,200.023743 
z"/>
<path fill="#FEB000" opacity="1.000000" stroke="none" 
	d="
M339.054993,615.080322 
	C334.654907,615.602051 330.704926,616.055359 326.366394,616.553223 
	C326.366394,588.552429 326.366394,560.852051 326.366394,532.807373 
	C343.675171,530.868774 360.981964,528.869141 378.305145,527.023254 
	C384.409698,526.372742 390.591766,525.441406 396.672974,525.787842 
	C409.717499,526.530884 416.348297,535.009338 415.316498,548.078918 
	C414.720398,555.630188 411.971405,561.722412 404.654633,565.847229 
	C414.894867,569.173828 417.750427,576.713867 416.899780,585.882812 
	C415.932495,596.309082 409.812714,603.477539 400.136658,606.696594 
	C393.604523,608.869690 386.538239,609.615234 379.646240,610.490662 
	C366.289948,612.187256 352.888062,613.525269 339.054993,615.080322 
M361.986542,556.502686 
	C361.986542,571.089478 361.986542,585.676331 361.986542,600.594727 
	C366.324921,600.123657 370.024292,599.721985 373.593994,599.334351 
	C373.593994,579.229248 373.593994,559.653687 373.593994,539.456665 
	C369.586761,539.860779 365.895660,540.233032 361.986542,540.627197 
	C361.986542,545.876709 361.986542,550.690796 361.986542,556.502686 
z"/>
<path fill="#FEB001" opacity="1.000000" stroke="none" 
	d="
M472.760742,662.703979 
	C468.405945,672.077393 464.041840,681.037415 460.003418,690.141968 
	C458.438782,693.669434 456.342346,695.532715 452.377655,695.945679 
	C434.264191,697.832825 416.176636,699.967529 398.073730,701.958740 
	C396.270966,702.156982 394.427460,701.985291 392.003693,701.985291 
	C392.003693,700.367615 392.003693,698.757080 392.003693,697.146545 
	C392.003662,675.667358 392.080627,654.187561 391.922546,632.709534 
	C391.898224,629.403503 393.209076,627.329529 395.209106,624.911377 
	C400.769196,618.188904 407.976715,616.079346 416.261047,615.949463 
	C419.827484,615.893555 423.384766,615.252258 427.451172,614.823669 
	C427.451172,638.878357 427.451172,662.283508 427.451172,686.288879 
	C431.652313,685.936279 435.359711,685.625122 439.538208,685.274414 
	C439.538208,673.140869 439.306152,661.524658 439.661774,649.926514 
	C439.789368,645.766113 440.790405,641.430298 442.348206,637.558960 
	C445.381012,630.021912 448.988800,622.706970 452.595886,615.417603 
	C453.363892,613.865540 455.022003,611.872192 456.480377,611.680237 
	C470.382019,609.850464 484.329041,608.365234 499.127777,606.682617 
	C490.129242,625.767639 481.505402,644.057983 472.760742,662.703979 
z"/>
<path fill="#F5AC07" opacity="1.000000" stroke="none" 
	d="
M349.326477,662.786987 
	C349.490204,671.828735 349.490204,680.461548 349.490204,689.402954 
	C340.690399,691.259583 332.156158,693.028381 323.637634,694.869812 
	C318.987488,695.875122 318.395935,697.457520 321.369202,701.156555 
	C324.307465,704.812195 327.411102,708.334900 330.984680,712.556763 
	C312.437775,714.980896 295.011902,717.258484 277.585999,719.536072 
	C277.519318,719.181946 277.452637,718.827820 277.385986,718.473755 
	C287.905487,714.816956 298.423035,711.154480 308.945343,707.505798 
	C314.348785,705.632080 314.654297,704.505371 310.868652,700.039368 
	C307.678894,696.276367 304.461578,692.536621 300.957733,688.436951 
	C314.028259,685.869934 326.422546,683.418518 338.824951,681.008606 
	C343.751587,680.051331 344.321167,678.517212 341.040344,674.601624 
	C338.291565,671.321045 335.488556,668.085876 331.767517,663.727112 
	C338.295959,663.220825 343.729340,662.799500 349.326477,662.786987 
z"/>
<path fill="#F7AD06" opacity="1.000000" stroke="none" 
	d="
M479.903229,532.930908 
	C473.169647,535.343262 466.804413,537.627930 460.483307,540.028809 
	C455.660431,541.860657 455.481598,542.889038 458.993256,546.967773 
	C461.354858,549.710815 463.709900,552.459473 466.531799,555.745911 
	C454.122650,558.245239 442.290161,560.628845 430.456848,563.008057 
	C430.296234,563.040405 430.106720,562.971802 429.960876,563.028320 
	C427.582184,563.949524 425.208405,564.883484 422.833527,565.814575 
	C424.036316,568.012634 425.013275,570.378723 426.494629,572.369507 
	C428.742889,575.390991 431.341400,578.151794 434.206055,581.509644 
	C430.948761,581.945190 428.287598,582.301025 426.042694,582.601257 
	C423.740356,576.490356 421.455353,570.425537 419.170380,564.360779 
	C418.769470,564.476013 418.368591,564.591248 417.967682,564.706421 
	C418.155884,564.284363 418.433990,563.879639 418.519073,563.437622 
	C420.453705,553.386292 428.458771,552.283630 436.507782,551.111023 
	C448.141541,549.416016 449.560944,549.321838 440.915619,539.695129 
	C439.164825,537.745605 437.520691,535.700378 435.097076,532.836121 
	C454.395172,531.034973 472.757843,529.321106 491.120514,527.607300 
	C491.208984,527.932556 491.297455,528.257874 491.385925,528.583130 
	C487.687469,530.006531 483.989014,531.429932 479.903229,532.930908 
z"/>
<path fill="#FFFFFF" opacity="1.000000" stroke="none" 
	d="
M348.685730,650.642578 
	C348.880127,650.621948 349.245056,650.800110 349.416626,651.096680 
	C349.100952,651.090637 348.978577,650.966064 348.685730,650.642578 
z"/>
<path fill="#0350BE" opacity="1.000000" stroke="none" 
	d="
M302.996277,203.809448 
	C302.996246,191.373184 302.996246,179.414932 302.996246,167.164780 
	C305.596375,166.778549 307.996887,166.421967 310.710083,166.018936 
	C310.710083,179.734329 310.710083,193.289169 310.710083,207.247406 
	C308.439911,207.513504 306.163513,207.780334 303.423737,208.101486 
	C303.269287,206.723038 303.132812,205.505264 302.996277,203.809448 
z"/>
<path fill="#0751B7" opacity="1.000000" stroke="none" 
	d="
M361.986542,556.003784 
	C361.986542,550.690796 361.986542,545.876709 361.986542,540.627197 
	C365.895660,540.233032 369.586761,539.860779 373.593994,539.456665 
	C373.593994,559.653687 373.593994,579.229248 373.593994,599.334351 
	C370.024292,599.721985 366.324921,600.123657 361.986542,600.594727 
	C361.986542,585.676331 361.986542,571.089478 361.986542,556.003784 
z"/>
</svg>