<?xml version="1.0" encoding="UTF-8"?>
<svg id="Livello_2" data-name="Livello 2" xmlns="http://www.w3.org/2000/svg" viewBox="0 0 790.19 647.95">
  <defs>
    <style>
      .cls-1 {
        fill: #fff;
      }

      .cls-2 {
        fill: #004ebd;
      }

      .cls-3 {
        fill: #ffb000;
      }
    </style>
  </defs>
  <g id="Livello_1-2" data-name="Livello 1">
    <g>
      <path class="cls-2" d="M300.69,511.86l-57.28,10.12c-2.52.45-3.66,3.41-2.09,5.43l25.56,32.88c2.43,3.13,4.95,7.4,2.81,10.74-1.49,2.33-4.57,2.92-7.3,3.31-49.08,6.96-98.18,13.74-147.3,20.35-24.56,3.3-49.13,6.56-73.71,9.77-9.52,1.24-25.61,6.63-34.85,4.13-12.82-3.48-3.97-11.61,3.09-15.14l164.32-55.31c2.25-.76,2.99-3.48,1.49-5.31-11.73-14.25-21.76-29.9-29.81-46.52-.98-2.02.27-4.46,2.48-4.88l110.58-21.21c2.57-.49,3.58-3.53,1.86-5.5-9.58-10.93-18.37-22.55-26.28-34.74-2.76-4.26-.2-10.11,4.79-11.03,20.62-3.78,41.5-6.14,62.44-7.06,1.79-.08,3.2-1.53,3.2-3.32l.04-13.42c0-2.03-1.75-3.61-3.77-3.39l-154.73,17.05c-8.7.96-18.38,1.66-25.31-3.68-8.62-6.64-8.34-17.29-8.37-27.04-.05-14.03-.03-28.05.08-42.08.44-59.44,2.88-118.88,2.88-178.32.1-6.36.23-12.89,2.59-18.8,4.16-10.43,13.22-18.66,20.48-25.85,39.71-39.35,23.9-29.01,39.71-39.35,15.81-10.35,29.05-27.01,46.89-35.91,13.19-6.58,28.12-8.57,42.74-10.46,35.82-4.63,71.63-9.26,107.45-13.89,43.02-5.56,93.78-8.38,122.18,24.41,13.5,15.58,18.96,36.91,18.13,57.58-.09,2.2,1.81,3.9,3.97,3.49l36.77-7.07c2.49-.48,3.6-3.42,2.04-5.42l-25.5-32.76c-2.2-2.83-4.53-6.36-3.28-9.72,1.37-3.7,6.08-4.63,10-5,78.76-7.45,157.53-14.91,236.29-22.36,5.95-.56,14.28.88,14.24,6.86-.03,4.37-4.9,6.83-9.02,8.29l-145.56,51.74c-2.26.8-3,3.62-1.42,5.43l23.92,27.49c1.8,2.07,3.72,4.5,3.36,7.22-.5,3.8-4.91,5.54-8.63,6.5-36.93,9.55-74.27,17.53-111.87,23.93-2.55.43-3.68,3.41-2.06,5.42l23.62,29.3c2.52,3.13,5.19,6.78,4.58,10.75-.69,4.51-4.3,6.21-8.39,6.87-5.84.94-27.24,2.51-31.15,5.2-8.14,5.6-13.57,14.49-17.22,23.5-3.94,9.71-7.53,20.39-13.85,28.43-1.94,2.47.09,6.05,3.17,5.43,10.43-2.07,21.02-3.01,31.08.01,11.11,3.33,20.89,13.4,22.28,24.35.36,2.85,3.76,4.05,5.74,1.97,13.57-14.28,28.31-27.9,46.88-33.91,7.56-2.45,15.49-3.53,23.37-4.6,31.63-4.29,63.26-8.58,94.89-12.87,9.46-1.28,20.53-2.04,27.06,4.93,7.66,8.17,4.12,21.32-.01,31.73-21.36,53.75-46.68,105.82-71.98,157.83-21.38,43.96-43.19,88.57-76.02,124.79-16.08,17.74-34.54,33.14-52.92,48.48-9.36,7.81-18.92,15.74-30.21,20.35-8.59,3.51-17.86,4.95-27.04,6.33-50.56,7.58-101.31,13.92-152.18,19-8.72.87-18.17,1.55-25.59-3.11-13.35-8.37-12.32-27.81-9.68-43.34-4.07-.08-8.14-.15-12.21-.23-.78-5.38,3.72-10.72,8.97-11.5,1.54-.23,2.59-1.71,2.59-3.27v-70.68c0-2.11-1.91-3.71-3.99-3.34ZM235.38,46.44v232.79c0,2.04,1.76,3.59,3.78,3.33,54.25-7.02,110.94-9.16,164.76-17.19,37.41-5.58,77.01-13.72,89.88-54.5,10.09-31.98,1.13-57.2-27.48-71.12-2.41-1.17-2.66-4.35-.46-5.89,54.05-37.9,26.04-124.76-47.24-110.79l-180.21,20c-1.72.19-3.02,1.64-3.02,3.38ZM688.18,31.13l-130.03,11.82c-2.54.23-4.05,3.1-2.59,5.2,7.78,11.26,28.8,29.46,29.33,38.33.06,1-.82,1.66-1.31,2.53-31.26,55.17,1.31-2.53-69.5,17.96-6.14,1.78-4.18,18.43-10.27,25.35-1.12,1.27-1.32,3.02-.2,4.3,10.67,12.22,16.85,28.07,17.59,44.29.1,2.07,1.9,3.59,3.93,3.21l19.15-3.58c-4.07-8.68-33.8-33.4-31.19-43.41.27-1.03,1.36-1.65,2.4-1.87l118.92-24.43c2.43-.5,3.52-3.35,2.05-5.34l-25.33-34.29,2.2-3.45,76.4-30.09c3.65-1.44,2.36-6.9-1.55-6.54ZM527.01,484.31v-200.35c0-2.02-1.76-3.6-3.77-3.38l-58.88,6.52c-.68.07-1.31.35-1.83.79l-35.39,30.23c-.76.65-1.19,1.59-1.19,2.58v206.91c0,2.01,1.73,3.57,3.73,3.37,61.25-6.24,123.45-10.77,183.7-22.35,1.09-.21,2.01-.93,2.48-1.94l113.58-244.09c1.12-2.41-.84-5.12-3.48-4.8l-118.41,14.15c-1.17.14-2.19.88-2.68,1.95l-39.36,85.66c-.2.44-.31.91-.31,1.39l-1.05,119.49-4.32,4.35-29.08,2.9c-2,.2-3.73-1.37-3.73-3.38ZM301.79,491.29v-71.57c0-2.04-1.79-3.62-3.82-3.37l-36.53,4.59c-2.6.33-3.86,3.34-2.28,5.43l27.06,35.54-4.85,7.18-111.54,21.16c-2.17.41-3.51,2.76-2.52,4.73,7.14,14.32,42.32,39.98,29.78,50.13l-100.35,33.9,145.48-16.25c2.33-1.34,4.77-1.95,3.3-5.39-4.03-9.43-36.2-33.46-29.13-43.48,5.55-7.87,76.98-13.37,84.76-20.6.52-.49.62-1.28.62-1.99Z"/>
      <path class="cls-2" d="M232.5,609.3c-1.61-2.47.01-7.55,2.95-10.01,4.92-4.12,47.42-10.4,49-2.91,2.74,12.93-50.26,15.51-51.95,12.92Z"/>
      <path class="cls-2" d="M581.86,225.26c-1.24,1.91-40.73,8.1-44.87,7.5-6.74-.98-8.13-10.44-2.04-13.23,6.64-3.04,58.09-11.54,46.91,5.73Z"/>
      <path class="cls-2" d="M211.96,447.37c-.26.41-.75.63-1.22.8-2.63.96-5.43,1.31-8.2,1.68-11.33,1.5-22.61,3.39-33.82,5.66-1.02.21-5.26,1.44-5.48-.12-.15-1.08.11-2.38.21-3.46.11-1.17.26-2.35.44-3.51.2-1.28.49-2.64,1.41-3.55.75-.74,1.8-1.06,2.81-1.36,10.39-3.08,20.91-6.13,31.72-6.77,2.46-.14,4.93-.16,7.37.21.99.15,2.01.38,2.78,1.02,1.1.91,1.46,2.43,1.68,3.85.22,1.43.39,2.86.48,4.3.03.39.04.81-.19,1.26Z"/>
      <path class="cls-1" d="M235.38,43.4l183.23-20.33c75.55-14.4,106.75,77.83,45.77,113.64,33.11,13.26,40.16,40.14,29.42,74.16-12.87,40.78-52.46,48.92-89.88,54.5-55.08,8.22-113.16,10.27-168.55,17.69V43.4ZM373.98,60.72l-34.65,2.89v176.13l34.65-2.89V60.72Z"/>
      <path class="cls-1" d="M527.01,488.06l32.82-3.28,4.32-4.35,1.06-120.22,40.46-88.04,126.35-15.09-116.9,251.22c-62.02,12.07-126.12,16.57-189.16,23.07v-212.23l37.37-31.93,63.69-7.05v207.9Z"/>
      <path class="cls-3" d="M301.79,492.39c-2.48,7.68-79.61,13.3-85.39,21.5-7.39,10.48,22.29,34.02,27.91,41.36.91,1.19,1.85,2.57,1.65,4.06-.35,2.54-3.53,3.41-6.08,3.7-47.44,5.4-94.9,10.62-142.35,15.92-.26.03-.51.06-.77.09,30.18-10.2,60.36-20.39,90.55-30.59,4.26-1.44,11.86-3.22,13.1-8.37,1.28-5.29-6.31-13.02-9.42-16.8-7.97-9.7-23.95-18.62-24.84-32.42,16.91-5.94,36.24-7.62,53.84-10.72,13.28-2.34,26.61-4.42,39.86-6.93,7.14-1.35,14.41-2.92,21.53-4.04,1.07-3.14,2.13-6.28,3.19-9.42l-28.96-38.03,46.2-5.8v76.52Z"/>
      <path class="cls-3" d="M711.79,28.99l-98.46,38.77-2.2,3.45,28.49,38.57-125.79,25.84c-6.73,8.74,26.14,35.77,30.44,44.94-35.99,6.89-15.23,2.12-23.01,4.3.16-18.58-6.88-37.03-19.73-50.47,8.38-5.86,5.65-25.63,12.54-27.4,70.72-18.15,0,0,70.66-18.94,2.64-9.32-28.34-34.02-31.74-44.61l158.79-14.44Z"/>
      <polygon class="cls-2" points="373.98 60.72 373.98 236.85 339.33 239.74 339.33 63.61 373.98 60.72"/>
    </g>
  </g>
</svg>