<?xml version="1.0" encoding="UTF-8"?>
<svg id="Livello_2" data-name="Livello 2" xmlns="http://www.w3.org/2000/svg" viewBox="0 0 872.47 601.39">
  <defs>
    <style>
      .cls-1 {
        fill: #fff;
      }

      .cls-2 {
        fill: #004ebd;
      }

      .cls-3 {
        fill: #ffb000;
      }
    </style>
  </defs>
  <g id="Livello_1-2" data-name="Livello 1">
    <g>
      <path class="cls-2" d="M868.46,1.41c-4.58-2.23-33.68-1.2-41.21-1.03-81.23,1.77-162.99,8.17-244.64,7.91-9.2,1.33-12.71,3.73-10.33,13.78l34.05,45.33-134.46,17.66c-3.67,1.84-7.64,5.22-6.88,9.66l13.15,20.52c-4.86,1.01-9.63-1.87-14.14-1.71-11.13.4-37.26,3.28-47.89,5.7-4.73,1.08-12.75,6.86-13.52,6.86-1.2-.01-3.41-2.89-5.82-3.09-12.36-1.03-52.52,2.54-62.39,8.25-4.33,2.5-10.58,10.68-14.03,10.76-3.63.07-11.98-6.2-17.73-7.17-6.52-1.09-15.82-.82-22.58-.53-13.49.57-80.71,7.68-88.82,12.59-8.39,5.08-36.96,32.7-45.02,41.08-2.54,2.65-4.62,5.77-6.25,9.06l-1.3,102.02c-2.82,4.02-34.42,1.43-40.32,7.51-8.61,10.46-49.87,40.93-52.2,51.13-2.55,11.17,6.99,24.95,12,35.03,14.32,28.83,31.11,56.71,45.61,85.46,6.4,5.79,15.28,4.8,23.4,4.5,18.89-.72,39.93-5.8,59-7.27l26.04,33.97L2.21,565.35c-3.93,5.55-2.72,11.54,4.36,12.88l301.88-17.63c5.94-1.1,7.55-4.67,5.67-10.42-1.96-5.98-37.3-48.37-34.95-50.34l142.03-17.73,4.41-3.31c4.68-8.98-11.85-20.3-14.43-28.7,8.53-1.06,20.44-.77,28.4-3.19,6.14-1.86,10.76-9.71,13-10.09,2.71-.46,7.53,7.85,16.86,7.6,34.04-.91,72.1-11.45,106.79-12,6.43,1.27,15.77-10.47,17.94-10.86,1.95-.34,8.73,5.84,13.79,6.44,3.59.43,12.16-.61,16.54-.9,32.93-2.17,66.06-9.41,99.04-11.92,10.99-6.86,56.24-44.8,58.42-54.47,1.32-5.85,1.31-33.51,0-39.37-2.54-11.33-15.15-9.68-15.08-17.56.09-10.14,5.02-7.53,9.8-13.4,8.61-10.57,12.16-60.57-10.59-60.42l-90.87,9.64c15.76-13.52,17.28-28.73,15.38-48.85-1.18-12.53-4.28-18.95-16.99-22.2-3.88-12.71,10.6-13.64,13.48-23.16,2.22-7.32,1.34-13.05,1.73-20.37,7.26-2.95,29.64-.64,30.49-10.82.71-8.48-34.5-42.52-30.7-46.76l174.67-50.17c7.96-1.31,13.21-11.94,5.18-15.86ZM451.16,327.44l-15.11,2.11v-32.53l28.72-.94c-7.79,11.19-16.4,15.37-13.61,31.36ZM416.92,137.27c1.21-1.95,2.63-2.46,4.8-2.85,13.25-2.41,29.43-2.25,43.03-3.85v110.97l-47.83,5.74v-110.01ZM344.21,143.96l47.84-5.74v110.98l-47.84,5.74v-110.98ZM334.65,295.11v110.97l-47.84,5.74v-112.89l47.84-3.82ZM200.71,159.27l96.17-9.1c27.41,6.61,29.01,38.32,9.07,55,14.08,1.4,16.92,18.43,13.98,30.29-4.78,19.27-20.68,23.95-38.13,26.9-26.49,4.46-54.34,5.3-81.09,7.88v-110.97ZM162.45,424.39l-55.49-104.38,59.42-6.77c1.18,5.65,19.03,32.52,19.03,34.49v56.45h15.3v-95.67l47.84-3.83v110.98l-86.1,8.73ZM258.21,487.48l-3.6,6.1c-1.49,7.32,37.08,49.63,34.11,52.16l-181.75,9.56,123.46-34.35c1.62-1.42,3.87-3.2,4.43-5.29,2.35-8.77-21.8-32.59-26.48-41.67l16.25-12.39c5.07,6.16,10.72,9.76,19.05,9.6,9.02-.18,43.19-4.04,50.87-6.68,5.28-1.82,12.29-12.39,16.21-12.07,2.11.18,6.44,8.68,15.31,9.24l64.67-7.51,10.84,12.17-143.37,21.13ZM480.06,388.86l-109.06,11.48v-110.97l47.83-3.83v93.75l15.29-1.93,1.81-31.67,44.13-4.66v47.83ZM479.2,224.22c-2.48-7.51-2.35-67.24-1.1-77.43.91-7.4,5.91-12.83,8-19.74l38.96-4.1,16.18.91-28.68,53.76c.92,8.3,32.12,52.93,28.72,56.26l-52.45,5.43c-1.28-.3-9.03-13.28-9.63-15.09ZM621.64,373.55l-109.06,11.48v-110.97l47.84-5.74v95.67l15.3-1.92v-32.52l45.92-3.83v47.83ZM592.96,312.35l-15.32,1.9v-32.53l30.61-1.89c-10.17,9.57-17.54,16.99-15.29,32.52ZM765.14,248.23v31.57l-47.84,3.84v-15.32l-13.38,1.91v28.7l45.96-2.72-.03,16.13-45.93,3.81v30.62l12.56-1.79.84-15.42,47.82-5.75v34.44l-109.06,11.48v-110.98l109.06-10.52ZM673.3,186.05v32.52l-110.97,11.48v-110.97l109.06-11.48v32.53l-45.93,3.83v-15.31l-15.3,1.91v30.61l43-5.84c7.72,1.21,4.22,11.2,4.85,17.33-1.57,1.48-36.98,2.76-43.06,3.82-2.16.37-3.58.98-4.79,2.87v27.74h15.32s-.02-17.23-.02-17.23l47.84-3.81ZM667.67,56.99c-11.84,8.77,11.66,25.99,15.2,35.29-8.39-2.32-17.08-2.35-25.81-1.88-25.15,1.36-60.69,5.89-85.87,9.79-6.58,1.02-20.17,6.7-21.3,6.77-1.73.1-5.97-3.38-11.38-3.28-12.33.25-27.55,4.9-40.37,5.05l-8.51-7.84,138.85-19.93c3.71-3.08,3.4-7.43,1.71-11.55-4.87-11.89-27.27-30.92-33.42-44.06l193.24-5.74-122.34,37.38Z"/>
      <path class="cls-2" d="M765.73,160.56c33.99,7.08-6.3,33.52,6.47,39.79.35,17.28-43.22,43.69-37.68,20.16-6.16-2.04-6.28-1.8,0-3.83-9.89,2.72,9.28-17.72-3.81-17.24,6.18,12.27-26.85,41.04-34.52,35.51-4.07-31.46,46.37-38.65,55.52-59.42-12.96-6.65-21.64,14.16-35.34,14.36,7.54-6.15,39.52-43.77,49.36-29.33Z"/>
      <path class="cls-2" d="M303.64,582.67c5.72-.23,16.28-2.5,20.51,1.31,5.06,6.75,2.61,11.48-4.71,14.48-10.55-1.37-40.37,5.52-47.94,1.82-5.91-2.89-5.76-12.92,1.83-15.4,4.95-1.62,23.43-1.94,30.32-2.21Z"/>
      <path class="cls-2" d="M535.16,39.3c4.64-.25,10.54-2.67,13.65,2.49,3.31,5.2,1.08,10.04-4.47,12.43-4.85,2.09-42.79,6.54-48.03,5.54-6.2-1.18-5.69-6.43-3.85-11.51,2.63-5.18,35.38-8.56,42.7-8.95Z"/>
      <path class="cls-2" d="M469.81,48.56c16.28-5.45,15.62,15.59,3.86,14.6-8.08-.68-9.8-12.61-3.86-14.6Z"/>
      <path class="cls-2" d="M343.56,580.62c11.61-1.07,11.1,17.18-2.15,14.99-9.51-1.57-6.24-14.21,2.15-14.99Z"/>
      <path class="cls-1" d="M305.95,205.16c19.94-16.68,18.34-48.39-9.07-55l-96.17,9.1v110.97c26.75-2.58,54.6-3.42,81.09-7.88,17.45-2.95,33.35-7.63,38.13-26.9,2.94-11.86.1-28.89-13.98-30.29ZM263.85,247.28l-15.3,1.92v-78.45l15.3-1.91v78.44Z"/>
      <path class="cls-1" d="M248.55,304.68v110.97l-86.1,8.74-55.48-104.38,59.42-6.77c1.18,5.65,19.03,32.52,19.03,34.49v56.44h15.31v-95.67l47.83-3.83Z"/>
      <path class="cls-1" d="M671.4,107.61v32.53l-45.93,3.84v-15.31s-15.3,1.91-15.3,1.91v30.61l43-5.84c7.72,1.2,4.21,11.19,4.84,17.32-1.57,1.49-36.98,2.76-43.06,3.82-2.16.37-3.57.98-4.78,2.87v27.74h15.32s-.02-17.23-.02-17.23l47.84-3.82v32.53l-110.97,11.48v-110.97l109.06-11.48Z"/>
      <polygon class="cls-1" points="765.15 279.81 717.31 283.64 717.31 268.32 703.92 270.24 703.92 298.94 749.88 296.21 749.85 312.34 703.92 316.16 703.92 346.77 716.48 344.98 717.33 329.56 765.15 323.81 765.15 358.25 656.09 369.73 656.09 258.76 765.15 248.24 765.15 279.81"/>
      <polygon class="cls-1" points="560.42 268.33 560.42 363.99 575.73 362.08 575.73 329.55 621.65 325.73 621.65 373.56 512.59 385.04 512.59 274.07 560.42 268.33"/>
      <polygon class="cls-1" points="418.84 285.55 418.84 379.3 434.13 377.37 435.93 345.69 480.06 341.03 480.06 388.86 371 400.34 371 289.37 418.84 285.55"/>
      <path class="cls-3" d="M288.72,545.75l-181.75,9.56,123.46-34.35c1.62-1.42,3.87-3.2,4.43-5.29,2.35-8.77-21.8-32.59-26.48-41.67l16.25-12.39c5.07,6.17,10.73,9.77,19.05,9.6,9.02-.18,43.19-4.04,50.87-6.68,5.28-1.82,12.3-12.39,16.21-12.06,2.11.17,6.44,8.67,15.32,9.24l64.66-7.52,10.84,12.17-143.37,21.13-3.6,6.1c-1.49,7.32,37.08,49.63,34.11,52.16Z"/>
      <path class="cls-3" d="M790.01,19.61l-122.34,37.39c-11.84,8.77,11.66,25.99,15.2,35.28-8.39-2.31-17.08-2.35-25.81-1.88-25.15,1.36-60.69,5.89-85.87,9.79-6.57,1.02-20.16,6.7-21.3,6.76-1.73.1-5.97-3.38-11.37-3.27-12.34.24-27.55,4.89-40.37,5.05l-8.51-7.84,138.84-19.93c3.71-3.08,3.4-7.43,1.71-11.55-4.87-11.89-27.27-30.92-33.42-44.06l193.24-5.74Z"/>
      <path class="cls-1" d="M464.76,130.57v110.97l-47.83,5.74v-110.02c1.22-1.94,2.63-2.46,4.8-2.85,13.25-2.4,29.43-2.25,43.03-3.85Z"/>
      <polygon class="cls-1" points="334.65 295.11 334.65 406.08 286.82 411.82 286.82 298.94 334.65 295.11"/>
      <polygon class="cls-1" points="392.05 138.22 392.05 249.19 344.22 254.93 344.22 143.96 392.05 138.22"/>
      <path class="cls-1" d="M541.28,233.88l-52.44,5.43c-1.29-.3-9.04-13.28-9.63-15.09-2.48-7.52-2.35-67.25-1.1-77.44.91-7.4,5.91-12.83,8-19.74l38.96-4.1,16.18.91-28.68,53.76c.92,8.29,32.12,52.93,28.72,56.26Z"/>
      <polygon class="cls-2" points="263.86 247.28 248.55 249.19 248.55 170.75 263.86 168.83 263.86 247.28"/>
    </g>
  </g>
</svg>