<svg xmlns="http://www.w3.org/2000/svg" xmlns:xlink="http://www.w3.org/1999/xlink" width="250" zoomAndPan="magnify" viewBox="0 0 187.5 104.999996" height="140" preserveAspectRatio="xMidYMid meet" version="1.0"><defs><g/><clipPath id="e5c93cc240"><path d="M 60.402344 24.015625 L 126.972656 24.015625 L 126.972656 85.960938 L 60.402344 85.960938 Z M 60.402344 24.015625 " clip-rule="nonzero"/></clipPath><clipPath id="e009dba14d"><path d="M 106 19.402344 L 112 19.402344 L 112 33 L 106 33 Z M 106 19.402344 " clip-rule="nonzero"/></clipPath><clipPath id="56b97254b6"><path d="M 75 19.402344 L 81 19.402344 L 81 33 L 75 33 Z M 75 19.402344 " clip-rule="nonzero"/></clipPath></defs><g clip-path="url(#e5c93cc240)"><path fill="#040606" d="M 65.464844 42.644531 L 121.910156 42.644531 L 121.910156 77.738281 C 121.910156 79.496094 120.484375 80.917969 118.730469 80.917969 L 68.644531 80.917969 C 66.890625 80.917969 65.464844 79.496094 65.464844 77.738281 Z M 66.765625 24.605469 C 63.25 24.605469 60.402344 27.457031 60.402344 30.972656 L 60.402344 79.59375 C 60.402344 83.113281 63.25 85.960938 66.765625 85.960938 L 120.609375 85.960938 C 124.125 85.960938 126.972656 83.113281 126.972656 79.59375 L 126.972656 30.972656 C 126.972656 27.457031 124.125 24.605469 120.609375 24.605469 L 114.472656 24.605469 L 114.472656 29.742188 C 114.449219 32.726562 112.007812 35.132812 109.023438 35.101562 C 106.070312 35.078125 103.683594 32.691406 103.65625 29.742188 L 103.65625 24.605469 L 83.71875 24.605469 L 83.71875 29.742188 C 83.71875 32.726562 81.292969 35.148438 78.308594 35.148438 C 75.320312 35.148438 72.902344 32.726562 72.894531 29.742188 L 72.894531 24.605469 L 66.765625 24.605469 " fill-opacity="1" fill-rule="nonzero"/></g><g clip-path="url(#e009dba14d)"><path fill="#040606" d="M 111.554688 29.671875 L 111.554688 21.957031 C 111.554688 20.582031 110.4375 19.46875 109.058594 19.46875 C 107.6875 19.476562 106.582031 20.585938 106.578125 21.957031 L 106.578125 29.671875 C 106.582031 31.046875 107.699219 32.160156 109.070312 32.152344 C 110.441406 32.148438 111.554688 31.042969 111.554688 29.671875 " fill-opacity="1" fill-rule="nonzero"/></g><g clip-path="url(#56b97254b6)"><path fill="#040606" d="M 80.796875 21.957031 C 80.792969 20.582031 79.675781 19.46875 78.304688 19.476562 C 76.933594 19.476562 75.820312 20.585938 75.820312 21.957031 L 75.820312 29.671875 C 75.820312 31.046875 76.9375 32.160156 78.316406 32.152344 C 79.6875 32.148438 80.792969 31.042969 80.796875 29.671875 L 80.796875 21.957031 " fill-opacity="1" fill-rule="nonzero"/></g><g fill="#000000" fill-opacity="1"><g transform="translate(78.456401, 70.06866)"><g><path d="M 7.3125 0.21875 C 6.125 0.21875 5.066406 0.015625 4.140625 -0.390625 C 3.222656 -0.796875 2.5 -1.359375 1.96875 -2.078125 C 1.445312 -2.804688 1.175781 -3.644531 1.15625 -4.59375 L 4.609375 -4.59375 C 4.640625 -4 4.910156 -3.519531 5.421875 -3.15625 C 5.929688 -2.789062 6.566406 -2.609375 7.328125 -2.609375 C 8.109375 -2.609375 8.75 -2.804688 9.25 -3.203125 C 9.75 -3.609375 9.992188 -4.132812 9.984375 -4.78125 C 9.992188 -5.4375 9.726562 -5.972656 9.1875 -6.390625 C 8.65625 -6.804688 7.929688 -7.015625 7.015625 -7.015625 L 5.5 -7.015625 L 5.5 -9.53125 L 7.015625 -9.53125 C 7.796875 -9.53125 8.429688 -9.726562 8.921875 -10.125 C 9.410156 -10.519531 9.65625 -11.035156 9.65625 -11.671875 C 9.65625 -12.285156 9.441406 -12.78125 9.015625 -13.15625 C 8.597656 -13.539062 8.039062 -13.734375 7.34375 -13.734375 C 6.644531 -13.734375 6.046875 -13.546875 5.546875 -13.171875 C 5.046875 -12.804688 4.785156 -12.3125 4.765625 -11.6875 L 1.484375 -11.6875 C 1.492188 -12.625 1.757812 -13.453125 2.28125 -14.171875 C 2.800781 -14.890625 3.5 -15.445312 4.375 -15.84375 C 5.257812 -16.25 6.253906 -16.453125 7.359375 -16.453125 C 8.484375 -16.453125 9.460938 -16.25 10.296875 -15.84375 C 11.140625 -15.4375 11.796875 -14.882812 12.265625 -14.1875 C 12.734375 -13.5 12.960938 -12.726562 12.953125 -11.875 C 12.960938 -10.96875 12.679688 -10.207031 12.109375 -9.59375 C 11.546875 -8.988281 10.804688 -8.609375 9.890625 -8.453125 L 9.890625 -8.3125 C 11.085938 -8.164062 12 -7.753906 12.625 -7.078125 C 13.25 -6.398438 13.5625 -5.5625 13.5625 -4.5625 C 13.5625 -3.632812 13.289062 -2.8125 12.75 -2.09375 C 12.21875 -1.375 11.484375 -0.804688 10.546875 -0.390625 C 9.609375 0.015625 8.53125 0.21875 7.3125 0.21875 Z M 7.3125 0.21875 "/></g></g></g><g fill="#000000" fill-opacity="1"><g transform="translate(93.164952, 70.06866)"><g><path d="M 7.671875 0.359375 C 6.316406 0.347656 5.144531 0.015625 4.15625 -0.640625 C 3.175781 -1.304688 2.425781 -2.269531 1.90625 -3.53125 C 1.382812 -4.800781 1.125 -6.320312 1.125 -8.09375 C 1.132812 -10.75 1.71875 -12.804688 2.875 -14.265625 C 4.039062 -15.722656 5.640625 -16.453125 7.671875 -16.453125 C 9.035156 -16.453125 10.207031 -16.125 11.1875 -15.46875 C 12.164062 -14.8125 12.914062 -13.859375 13.4375 -12.609375 C 13.96875 -11.367188 14.234375 -9.863281 14.234375 -8.09375 C 14.222656 -5.425781 13.632812 -3.347656 12.46875 -1.859375 C 11.3125 -0.378906 9.710938 0.359375 7.671875 0.359375 Z M 7.671875 -2.484375 C 8.609375 -2.484375 9.351562 -2.953125 9.90625 -3.890625 C 10.457031 -4.828125 10.734375 -6.226562 10.734375 -8.09375 C 10.734375 -9.9375 10.453125 -11.320312 9.890625 -12.25 C 9.335938 -13.175781 8.597656 -13.640625 7.671875 -13.640625 C 6.753906 -13.640625 6.015625 -13.175781 5.453125 -12.25 C 4.898438 -11.320312 4.625 -9.9375 4.625 -8.09375 C 4.613281 -6.226562 4.882812 -4.828125 5.4375 -3.890625 C 6 -2.953125 6.742188 -2.484375 7.671875 -2.484375 Z M 7.671875 -2.484375 "/></g></g></g></svg>