<svg xmlns="http://www.w3.org/2000/svg" xmlns:xlink="http://www.w3.org/1999/xlink" width="60" zoomAndPan="magnify" viewBox="0 0 45 44.999999" height="60" preserveAspectRatio="xMidYMid meet" version="1.0"><defs><clipPath id="1142ca4175"><path d="M 4 0.484375 L 27 0.484375 L 27 32 L 4 32 Z M 4 0.484375 " clip-rule="nonzero"/></clipPath></defs><path fill="#92c730" d="M 38.484375 36.46875 C 34 43.753906 28.503906 44.722656 23.292969 42.535156 C 23.324219 41.484375 23.402344 40.351562 23.558594 39.15625 C 24.578125 31.335938 34.585938 18.351562 34.707031 18.195312 C 34.585938 18.296875 24.449219 26.707031 21.023438 37.21875 C 20.589844 38.550781 20.296875 39.746094 20.121094 40.8125 C 14.695312 37.179688 12.125 31.507812 17.113281 23.40625 C 22.316406 14.964844 39.65625 10.6875 39.65625 10.6875 C 39.65625 10.6875 43.683594 28.027344 38.484375 36.46875 Z M 38.484375 36.46875 " fill-opacity="1" fill-rule="nonzero"/><g clip-path="url(#1142ca4175)"><path fill="#78a831" d="M 26.941406 13.578125 C 23.121094 15.378906 19.207031 17.777344 16.757812 20.757812 C 13.097656 15.058594 9.992188 8.953125 9.917969 8.777344 C 9.949219 8.964844 11.542969 15.753906 15.414062 22.714844 C 13.414062 26.136719 12.777344 29.113281 13.140625 31.679688 C 10.578125 30.796875 8.171875 28.683594 6.136719 24.902344 C 1.683594 16.648438 6.429688 0.496094 6.429688 0.496094 C 6.429688 0.496094 22.382812 5.410156 26.941406 13.578125 Z M 26.941406 13.578125 " fill-opacity="1" fill-rule="nonzero"/></g></svg>