<?xml version="1.0" encoding="UTF-8"?> <svg xmlns="http://www.w3.org/2000/svg" width="154" height="50" viewBox="0 0 154 50" fill="none"><path d="M15.6477 11.7673C17.326 11.4529 19.3667 11.2588 21.5504 11.2588C24.0488 11.2588 25.7747 11.6378 27.0335 12.5623C28.2445 13.3297 28.8834 14.6055 28.502 16.2233C27.8726 18.9321 25.0882 20.7811 22.3037 21.419L22.2846 21.5115C24.3921 22.1124 25.6126 23.7765 25.05 26.2264C24.5256 28.4914 22.7805 30.174 20.778 31.2649C18.4798 32.5407 15.5142 33.0215 11.8811 33.0215C9.45896 33.0215 7.48505 32.892 6.38843 32.7071L15.6477 11.7673ZM11.6045 29.9891C12.272 30.0538 13.0063 30.0816 13.7978 30.0816C16.9064 30.0816 20.0151 28.9629 20.6826 26.097C21.2166 23.8042 19.2332 22.9444 16.6966 22.9444H14.7323L11.6045 29.9891ZM16.0196 20.2079H17.9458C21.0545 20.2079 23.6006 18.9044 24.1155 16.7041C24.5255 14.9475 23.1619 14.1894 20.8829 14.1894C19.9198 14.1894 19.0806 14.2542 18.6324 14.3466L16.0196 20.2079Z" fill="#034EA1"></path><path d="M41.4704 31.9973C39.5728 32.7924 37.1603 33.2084 35.0529 33.2084C30.2373 33.2084 28.5208 30.5921 29.3981 26.8017C30.4852 22.1145 35.5201 17.0205 41.5181 17.0205C44.9415 17.0205 46.7056 18.8048 46.1144 21.3841C45.1894 25.3687 40.2213 26.6445 33.5367 26.5151C33.3364 27.0605 33.2411 28.1052 33.489 28.7154C33.9276 29.7693 35.0433 30.3055 36.693 30.3055C38.6574 30.3055 40.3261 29.8618 41.7088 29.2886L41.4704 31.9973ZM40.3357 19.794C37.7324 19.794 35.5392 21.8649 34.6047 23.7416C38.8767 23.8063 41.747 23.2609 42.1761 21.4119C42.405 20.4042 41.6516 19.794 40.3357 19.794Z" fill="#034EA1"></path><path d="M60.5785 13.1006L58.6999 17.3718H62.6287L61.3223 20.2377H57.4317L54.59 26.515C54.2753 27.2454 53.9511 28.0404 53.7985 28.7153C53.6078 29.5474 53.9129 30.0836 55.0191 30.0836C55.515 30.0836 56.0204 30.0836 56.459 30.0189L55.391 32.9218C54.7426 33.1159 53.6078 33.2361 52.6065 33.2361C49.7553 33.2361 48.7922 31.8309 49.2022 30.0466C49.412 29.1498 49.7172 28.2901 50.2703 27.1437L53.3694 20.2285H51.0141L52.2823 17.3625H54.6377L56.1253 14.0158L60.5785 13.1006Z" fill="#034EA1"></path><path d="M71.8704 32.8941C72.1183 31.9696 72.5474 30.7308 73.0052 29.3903H72.9003C70.5259 32.2562 68.0084 33.2454 65.7961 33.2454C62.6874 33.2454 61.1617 31.0821 61.8864 27.9573C63.1165 22.6692 68.5615 17.0298 76.6574 17.0298C78.5455 17.0298 80.5098 17.3441 81.7399 17.7324L78.0782 25.8217C77.0388 28.1515 76.0852 31.0451 75.7229 32.8941H71.8704V32.8941ZM76.5525 20.0529C76.1424 19.9604 75.6275 19.8957 74.8742 19.8957C71.0217 19.8957 67.1597 23.7509 66.3492 27.2917C65.9677 28.9188 66.3396 30.2593 68.161 30.2593C70.0872 30.2593 72.9479 28.096 74.6835 24.1392L76.5525 20.0529Z" fill="#034EA1"></path><path d="M92.9172 32.3487C91.811 32.7924 89.9325 33.2084 87.7202 33.2084C83.3623 33.2084 81.2644 30.7215 82.1226 27.0236C83.3814 21.606 89.0456 17.0205 95.5014 17.0205C97.0366 17.0205 98.3144 17.3718 98.8961 17.6214L97.1511 20.5243C96.5694 20.2655 95.797 20.0436 94.6527 20.0436C90.619 20.0436 87.3197 23.3533 86.5759 26.5798C86.0419 28.9095 87.2338 30.2131 89.551 30.2131C91.1626 30.2131 92.4594 29.834 93.4321 29.4827L92.9172 32.3487Z" fill="#034EA1"></path><path d="M117.289 23.4643C116.069 28.7246 110.881 33.2454 104.959 33.2454C100.573 33.2454 98.4844 30.5366 99.3426 26.8387C100.563 21.5783 105.722 17.0205 111.644 17.0205C116.316 17.0205 118.09 20.0159 117.289 23.4643ZM103.643 26.7462C103.147 28.8818 104.091 30.3795 106.189 30.3795C109.298 30.3795 112.254 26.5521 112.969 23.4643C113.341 21.8741 113.008 19.8957 110.481 19.8957C107.162 19.8957 104.32 23.8433 103.643 26.7462Z" fill="#034EA1"></path><path d="M117.669 32.8941L122.36 22.1884C123.18 20.3394 123.838 18.7123 124.334 17.3718H127.939L126.957 20.0806H126.995C129.121 18.0097 131.486 17.0205 133.736 17.0205C136.445 17.0205 137.341 18.5459 137.103 20.21C139.134 18.0744 141.584 17.0575 143.978 17.0205C146.371 17.0205 147.907 18.3888 147.268 21.1622C147.115 21.8279 146.705 22.9835 146.371 23.8063L142.338 32.8849H138.304L142.138 24.2131C142.395 23.5752 142.7 22.8726 142.843 22.2347C143.148 20.9311 142.748 20.0344 141.213 20.0344C139.324 20.0344 136.721 22.17 135.281 25.4519L131.991 32.8756H127.996L131.887 24.0837C132.182 23.4457 132.392 22.8448 132.525 22.2624C132.802 21.079 132.649 20.0344 130.971 20.0344C129.045 20.0344 126.289 22.3641 124.916 25.5166L121.712 32.8756H117.669V32.8941Z" fill="#034EA1"></path><path d="M34.8044 13.425C102.194 -5.77678 191.335 -3.13272 136.142 13.4527C169.536 -1.09883 98.5609 0.324888 34.8044 13.425Z" fill="#FE7D43"></path><path d="M118.567 36.576C51.1869 55.7779 -37.9539 53.1338 17.2394 36.5391C-16.1646 51.0999 54.8105 49.6762 118.567 36.576Z" fill="#FE7D43"></path><path d="M150.867 19.7372V17.7588H151.773C151.954 17.7588 152.097 17.7773 152.192 17.8143C152.288 17.8512 152.364 17.916 152.421 17.9992C152.478 18.0916 152.507 18.1933 152.507 18.295C152.507 18.4337 152.459 18.5539 152.364 18.6463C152.268 18.7388 152.125 18.8035 151.925 18.8312C152.001 18.8682 152.049 18.8959 152.087 18.9329C152.164 19.0069 152.24 19.0901 152.307 19.201L152.659 19.7372H152.316L152.049 19.3212C151.973 19.201 151.906 19.1086 151.858 19.0531C151.811 18.9884 151.763 18.9421 151.725 18.9237C151.687 18.8959 151.649 18.8774 151.601 18.8682C151.572 18.8589 151.515 18.8589 151.448 18.8589H151.134V19.7372H150.867V19.7372ZM151.134 18.6278H151.715C151.839 18.6278 151.935 18.6186 152.001 18.5908C152.068 18.5631 152.125 18.5261 152.164 18.4707C152.202 18.4152 152.221 18.3597 152.221 18.295C152.221 18.2025 152.183 18.1286 152.116 18.0639C152.049 17.9992 151.935 17.9714 151.782 17.9714H151.134V18.6278Z" fill="#034EA1"></path><path d="M151.647 20.637C150.598 20.637 149.75 19.8142 149.75 18.7973C149.75 17.7803 150.598 16.9575 151.647 16.9575C152.696 16.9575 153.545 17.7896 153.545 18.7973C153.545 19.8142 152.696 20.637 151.647 20.637ZM151.647 17.2903C150.789 17.2903 150.093 17.9652 150.093 18.7973C150.093 19.6293 150.789 20.3042 151.647 20.3042C152.506 20.3042 153.202 19.6293 153.202 18.7973C153.202 17.9652 152.506 17.2903 151.647 17.2903Z" fill="#034EA1"></path><path d="M115.306 42.9727L116.221 46.8278L116.421 47.9002L116.621 46.8556L117.403 42.9727H118.939L119.759 46.8278L119.978 47.9002L120.188 46.874L121.113 42.9727H122.591L120.636 49.7122H119.253L118.414 45.7739L118.166 44.4703L117.918 45.7739L117.079 49.7122H115.735L113.761 42.9727H115.306Z" fill="#034EA1"></path><path d="M126.539 44.8302C126.901 44.9874 127.197 45.2277 127.426 45.5698C127.636 45.8656 127.769 46.2077 127.836 46.596C127.874 46.8271 127.884 47.1507 127.884 47.5852H124.146C124.165 48.0844 124.346 48.4357 124.68 48.6391C124.889 48.7593 125.128 48.824 125.423 48.824C125.729 48.824 125.976 48.7501 126.167 48.5929C126.272 48.5097 126.367 48.3988 126.444 48.2508H127.817C127.779 48.5467 127.617 48.8425 127.321 49.1476C126.863 49.6283 126.215 49.878 125.385 49.878C124.699 49.878 124.098 49.6746 123.573 49.2678C123.049 48.861 122.792 48.1954 122.792 47.2709C122.792 46.4111 123.03 45.7455 123.497 45.2832C123.964 44.821 124.584 44.5898 125.338 44.5898C125.776 44.5991 126.177 44.673 126.539 44.8302ZM124.527 45.9581C124.336 46.143 124.222 46.4019 124.165 46.7254H126.482C126.453 46.3834 126.339 46.1153 126.119 45.9396C125.9 45.764 125.643 45.6715 125.318 45.6715C124.985 45.6715 124.718 45.764 124.527 45.9581Z" fill="#034EA1"></path><path d="M133.966 44.8139C134.204 44.9434 134.405 45.1283 134.557 45.3686V42.9927H135.921V49.7138H134.614V49.0204C134.424 49.3162 134.204 49.5289 133.956 49.6675C133.709 49.797 133.403 49.8709 133.041 49.8709C132.44 49.8709 131.935 49.6398 131.525 49.1683C131.115 48.6968 130.915 48.0959 130.915 47.3563C130.915 46.5058 131.115 45.8401 131.515 45.3501C131.916 44.8602 132.459 44.6198 133.136 44.6198C133.442 44.6105 133.718 44.6753 133.966 44.8139ZM134.29 48.3548C134.49 48.0774 134.586 47.7261 134.586 47.2916C134.586 46.6814 134.424 46.2469 134.109 45.988C133.918 45.8309 133.689 45.7477 133.432 45.7477C133.041 45.7477 132.755 45.8956 132.564 46.1822C132.383 46.4688 132.288 46.8293 132.288 47.2546C132.288 47.7169 132.383 48.0774 132.564 48.3548C132.755 48.6321 133.032 48.7708 133.413 48.7708C133.804 48.7708 134.09 48.6321 134.29 48.3548Z" fill="#034EA1"></path><path d="M141.415 49.1013C140.986 49.6191 140.328 49.8779 139.441 49.8779C138.554 49.8779 137.896 49.6191 137.467 49.1013C137.038 48.5836 136.818 47.955 136.818 47.2246C136.818 46.5035 137.038 45.8841 137.467 45.3571C137.896 44.8301 138.554 44.5713 139.441 44.5713C140.328 44.5713 140.986 44.8301 141.415 45.3571C141.844 45.8841 142.063 46.5035 142.063 47.2246C142.063 47.955 141.853 48.5836 141.415 49.1013ZM140.347 48.3802C140.556 48.1121 140.661 47.7238 140.661 47.2246C140.661 46.7254 140.556 46.3463 140.347 46.069C140.137 45.8009 139.832 45.6622 139.441 45.6622C139.05 45.6622 138.745 45.8009 138.535 46.069C138.325 46.3371 138.22 46.7254 138.22 47.2246C138.22 47.7238 138.325 48.1121 138.535 48.3802C138.745 48.6483 139.05 48.787 139.441 48.787C139.832 48.787 140.137 48.6483 140.347 48.3802Z" fill="#034EA1"></path><path d="M147.136 42.9727H145.696V49.703H147.136V42.9727Z" fill="#034EA1"></path><path d="M153.544 42.9727V44.1653H151.465V49.7122H150.006V44.1653H147.918V42.9727H153.544Z" fill="#034EA1"></path></svg> 