<svg xmlns="http://www.w3.org/2000/svg" xmlns:xlink="http://www.w3.org/1999/xlink" width="1400" zoomAndPan="magnify" viewBox="0 0 1050 374.999991" height="500" preserveAspectRatio="xMidYMid meet" version="1.0"><defs><clipPath id="10845522d7"><path d="M 385 274 L 664.730469 274 L 664.730469 375 L 385 375 Z M 385 274 " clip-rule="nonzero"/></clipPath><clipPath id="b9a76d9909"><path d="M 571 267 L 664.730469 267 L 664.730469 373 L 571 373 Z M 571 267 " clip-rule="nonzero"/></clipPath></defs><g clip-path="url(#10845522d7)"><path fill="#ffb000" d="M 664.4375 351.960938 C 664.542969 358.136719 664.546875 364.320312 664.816406 370.496094 C 664.960938 373.730469 663.953125 375.015625 660.523438 374.886719 C 654.164062 374.648438 647.792969 374.820312 641.433594 374.820312 C 558.316406 374.820312 475.214844 374.753906 392.097656 374.929688 C 386.785156 374.941406 385.058594 373.542969 385.476562 368.320312 C 386 361.808594 385.921875 355.25 386.097656 348.703125 C 389.3125 348.550781 389.34375 351 389.5625 353.117188 C 389.933594 356.746094 389.574219 360.394531 389.859375 364.023438 C 390.023438 366.046875 390.339844 368.417969 392.875 368.515625 C 395.835938 368.625 396.25 366.046875 396.25 363.847656 C 396.25 354.550781 397.113281 345.449219 399.386719 336.324219 C 402.773438 322.742188 411.078125 312.980469 421.886719 305.167969 C 438.507812 293.160156 457.554688 286.472656 477.277344 281.578125 C 483.976562 279.914062 490.707031 278.363281 497.550781 277.324219 C 500.675781 275.804688 502.738281 277.652344 504.683594 279.664062 C 511.261719 286.449219 518.269531 292.789062 525.304688 299.082031 C 525.851562 299.5625 526.34375 300.097656 526.890625 300.578125 C 534.671875 307.484375 536.070312 307.300781 543.664062 300.394531 C 551.585938 293.179688 559.640625 286.121094 566.414062 277.75 C 567.867188 275.949219 569.636719 274.125 572.457031 275.050781 C 584.207031 277.421875 595.84375 280.1875 606.945312 284.84375 C 620.855469 290.679688 633.421875 298.328125 642.417969 310.90625 C 651.203125 323.199219 654.21875 337.261719 655.167969 351.9375 C 655.421875 355.929688 655.453125 359.917969 656.285156 363.847656 C 656.613281 365.382812 656.523438 367.632812 658.71875 367.410156 C 660.742188 367.203125 660.589844 365.007812 660.710938 363.425781 C 660.90625 360.890625 660.644531 358.332031 661.015625 355.808594 C 661.300781 353.839844 661.496094 351.644531 664.4375 351.960938 Z M 664.4375 351.960938 " fill-opacity="1" fill-rule="nonzero"/></g><path fill="#fe9881" d="M 506.226562 222.992188 C 506.28125 220.347656 504.390625 219.332031 502.433594 218.230469 C 489.867188 211.136719 478 203.171875 469.574219 191.09375 C 467.683594 188.386719 465.148438 189.171875 462.699219 189.207031 C 448.144531 189.402344 436.902344 180.59375 433.621094 166.398438 C 430.488281 152.816406 437.753906 142.621094 451.597656 141.179688 C 452.832031 141.046875 454.1875 141.296875 454.953125 139.933594 C 455.902344 139.332031 456.886719 139.082031 458.046875 139.191406 C 461.257812 139.484375 462.898438 137.746094 462.898438 134.71875 C 462.875 120.734375 463.96875 106.691406 462.351562 92.78125 C 461.367188 84.320312 464.054688 78.222656 470.832031 73.636719 C 481.507812 66.410156 493.769531 64.652344 506.183594 64.421875 C 511.753906 64.3125 516.550781 67.121094 521.140625 71.066406 C 527.609375 76.605469 535.5 80.453125 541.597656 84.539062 C 536.242188 81.078125 529.90625 76.847656 523.371094 72.925781 C 522.300781 72.289062 520.804688 71.722656 521.449219 70.148438 C 522.09375 68.585938 523.65625 68.300781 525.164062 68.773438 C 528.636719 69.855469 532.082031 71.078125 535.226562 72.902344 C 554.644531 84.148438 574.753906 93.753906 596.652344 99.207031 C 599.558594 99.925781 601.613281 101.402344 601.242188 104.886719 C 600.925781 107.847656 602.914062 110.460938 602.707031 113.421875 C 602.871094 120.425781 602.683594 127.429688 602.835938 134.4375 C 602.914062 138.238281 603.863281 141.582031 607.917969 143.070312 C 608.277344 143.070312 608.660156 143.15625 609.011719 143.089844 C 628.484375 139.210938 635.214844 157.570312 628.824219 172.027344 C 623.488281 184.089844 611.753906 190.921875 598.519531 189.457031 C 595.722656 189.140625 594.117188 190.003906 592.621094 192.144531 C 585.550781 202.273438 576.664062 210.535156 566.054688 216.785156 C 562.90625 218.644531 562.601562 221.058594 562.84375 224.054688 C 557.714844 224.128906 553.027344 225.855469 548.449219 227.953125 C 537.992188 232.75 527.578125 233.242188 517.078125 227.921875 C 513.535156 226.128906 509.722656 224.882812 506.214844 222.972656 Z M 506.226562 222.992188 " fill-opacity="1" fill-rule="nonzero"/><path fill="#191919" d="M 600.039062 113.902344 C 599.855469 113.390625 599.4375 112.832031 599.527344 112.375 C 601.152344 103.183594 595.339844 101.402344 588.085938 99.523438 C 569.660156 94.734375 552.875 85.949219 536.351562 76.695312 C 532.144531 74.335938 527.65625 72.476562 523.023438 70.882812 C 531.589844 76.738281 540.253906 82.34375 547.992188 89.390625 C 543.445312 86.574219 538.898438 83.765625 534.363281 80.933594 C 531.742188 79.296875 529 77.820312 526.5625 75.929688 C 510.488281 63.449219 493.570312 65.964844 476.644531 73.382812 C 466.746094 77.722656 464.832031 82.914062 465.246094 93.632812 C 465.847656 109.0625 465.464844 124.523438 465.574219 139.976562 C 465.597656 143.308594 464.21875 144.160156 461.183594 143.089844 C 458.964844 142.316406 456.59375 141.910156 454.988281 139.945312 C 448.636719 122.304688 442.472656 104.605469 437.109375 86.628906 C 436.59375 84.914062 436.421875 83.109375 436.082031 81.351562 C 434.726562 78.683594 434.136719 75.90625 434.976562 72.957031 C 434.660156 63.449219 440.496094 57.570312 447.28125 52.324219 C 451.480469 49.082031 456.175781 46.578125 461.246094 45.070312 C 466.261719 43.574219 471.441406 42.621094 477.496094 41.210938 C 472.351562 38.972656 467.773438 38.152344 462.996094 38.6875 C 457.914062 39.257812 453.042969 40.632812 448.441406 42.960938 C 444.144531 45.136719 440.714844 48.46875 437.121094 51.605469 C 446.789062 37.277344 462.492188 32.40625 479.550781 37.921875 C 481.277344 38.480469 483.101562 38.894531 484.675781 39.75 C 488.097656 41.617188 489.527344 41.398438 489.789062 36.875 C 490.390625 26.535156 496.207031 18.800781 504.019531 12.714844 C 518.640625 1.328125 535.214844 0.015625 552.644531 4.386719 C 553.628906 4.636719 554.503906 5.371094 556.089844 6.253906 C 545.128906 7.960938 535.730469 11.445312 527.882812 19.421875 C 531.382812 20.351562 534.046875 18.820312 536.789062 18.539062 C 572.304688 14.84375 598.75 29.933594 618.738281 58.128906 C 627.871094 71.011719 635.25 85.140625 645.925781 96.953125 C 647.804688 99.03125 646.777344 99.871094 644.832031 100.953125 C 637.457031 105.0625 629.476562 106.691406 621.207031 106.296875 C 616.738281 106.078125 615.929688 107.980469 616.464844 111.640625 C 617.066406 113.238281 615.578125 113.0625 614.855469 113.53125 C 614.375 113.71875 613.875 113.804688 613.359375 113.792969 C 610.039062 113.519531 607.699219 109.835938 603.953125 111.09375 C 602.421875 111.707031 601.960938 113.828125 600.0625 113.902344 Z M 600.039062 113.902344 " fill-opacity="1" fill-rule="nonzero"/><path fill="#fe9881" d="M 571.726562 276.570312 C 562.820312 285.402344 554.328125 294.625 544.953125 303.003906 C 535.5 311.453125 535.578125 311.800781 526.082031 303.367188 C 518.464844 296.601562 511.164062 289.476562 503.691406 282.558594 C 502.105469 281.085938 500.335938 279.804688 498.652344 278.441406 C 493.070312 277.160156 488.863281 272.191406 489.726562 267.90625 C 492.828125 266.332031 496.226562 266.136719 499.59375 265.710938 C 504.75 271.808594 504.902344 271.753906 512.53125 269.535156 C 530.144531 264.398438 543.640625 253.371094 555.378906 239.8125 C 556.449219 238.578125 557.507812 237.332031 558.558594 236.074219 C 560.929688 233.242188 562.734375 234.304688 564.261719 236.96875 C 565.257812 243.722656 566.6875 250.453125 567.09375 257.25 C 567.429688 262.933594 569.046875 266.527344 575.300781 266.726562 C 576.292969 266.757812 577.265625 267.480469 578.25 267.882812 C 579.769531 272.570312 578.074219 274.835938 571.726562 276.59375 Z M 571.726562 276.570312 " fill-opacity="1" fill-rule="nonzero"/><path fill="#ffb000" d="M 489.714844 267.90625 C 492.0625 271.949219 496.476562 274.242188 498.640625 278.441406 C 492.882812 282.40625 485.902344 282.242188 479.484375 283.847656 C 461.597656 288.328125 444.472656 294.480469 428.507812 303.890625 C 408.621094 315.605469 399.855469 333.394531 399.089844 355.820312 C 398.960938 359.804688 398.972656 363.816406 399.070312 367.804688 C 399.179688 372.210938 396.445312 372.691406 392.972656 372.726562 C 389.367188 372.757812 387.136719 371.894531 387.003906 367.632812 C 386.808594 361.316406 388.054688 354.921875 386.097656 348.703125 C 386.601562 327.679688 394.359375 310.335938 411.714844 297.75 C 431.632812 283.292969 454.375 275.621094 477.988281 270.046875 C 481.847656 269.140625 485.660156 267.796875 489.714844 267.917969 Z M 489.714844 267.90625 " fill-opacity="1" fill-rule="nonzero"/><path fill="#f7705c" d="M 564.25 236.949219 C 560.863281 235.289062 560.035156 238.390625 558.589844 240.105469 C 546.277344 254.878906 531.90625 266.714844 513.066406 272.210938 C 511.328125 272.726562 509.582031 273.226562 507.8125 273.621094 C 500.707031 275.214844 498.640625 273.214844 499.570312 265.6875 C 502.621094 257.449219 502.402344 248.671875 503.800781 240.160156 C 504.738281 234.457031 505.417969 228.707031 506.214844 222.980469 C 507.820312 221.09375 509.679688 221.265625 511.558594 222.445312 C 526.824219 232.105469 541.925781 229.789062 556.625 221.367188 C 560.84375 218.949219 561.835938 220.710938 562.84375 224.054688 C 563.542969 228.316406 564.492188 232.566406 564.25 236.925781 Z M 564.25 236.949219 " fill-opacity="1" fill-rule="nonzero"/><g clip-path="url(#b9a76d9909)"><path fill="#ffb000" d="M 571.726562 276.570312 C 573.507812 273.378906 577.34375 271.71875 578.25 267.863281 C 605.503906 272.976562 630.222656 283.160156 648.570312 304.894531 C 659.910156 318.335938 664.085938 334.597656 664.445312 351.960938 C 662.554688 356.898438 663.726562 362.046875 663.527344 367.097656 C 663.398438 370.484375 662.632812 372.679688 658.632812 372.699219 C 654.730469 372.726562 653.957031 370.679688 653.5625 367.25 C 652.460938 357.6875 652.601562 348.035156 650.875 338.507812 C 646.285156 313.082031 630.386719 297.488281 607.425781 288.011719 C 598.355469 284.265625 589.066406 281.050781 579.308594 279.46875 C 576.601562 279.03125 573.988281 278.242188 571.738281 276.5625 Z M 571.726562 276.570312 " fill-opacity="1" fill-rule="nonzero"/></g><path fill="#191919" d="M 600.039062 113.902344 C 600.179688 111.628906 599.855469 109.269531 601.175781 107.203125 C 606.386719 107.050781 610.027344 110.679688 614.34375 112.691406 L 614.277344 112.644531 C 614.683594 113.027344 615.359375 113.117188 615.523438 113.78125 C 615.285156 124.140625 611.164062 133.507812 607.929688 143.089844 C 602.070312 147.285156 601.253906 147.125 600.761719 140.019531 C 600.160156 131.34375 600.246094 122.613281 600.039062 113.902344 Z M 600.039062 113.902344 " fill-opacity="1" fill-rule="nonzero"/><path fill="#191919" d="M 434.964844 72.945312 C 435.339844 75.742188 435.699219 78.542969 436.070312 81.339844 C 433.4375 88.867188 435.753906 96.265625 436.902344 103.632812 C 437.667969 108.546875 439.261719 113.335938 440.582031 118.578125 C 434.574219 112.066406 431.621094 86.046875 434.976562 72.957031 Z M 434.964844 72.945312 " fill-opacity="1" fill-rule="nonzero"/><path fill="#191919" d="M 615.523438 113.78125 C 615.109375 113.398438 614.691406 113.027344 614.277344 112.644531 C 615 112.308594 615.71875 111.96875 616.441406 111.628906 C 623.304688 114.800781 630.929688 115.203125 638.078125 117.433594 C 630.15625 118.492188 623.019531 115.074219 615.523438 113.78125 Z M 615.523438 113.78125 " fill-opacity="1" fill-rule="nonzero"/><path fill="#191919" d="M 628.496094 66.609375 C 625.566406 62.226562 622.648438 57.832031 619.71875 53.453125 C 624.277344 56.761719 626.667969 61.539062 629.730469 65.855469 C 629.3125 66.105469 628.910156 66.355469 628.496094 66.609375 Z M 628.496094 66.609375 " fill-opacity="1" fill-rule="nonzero"/><path fill="#191919" d="M 641.074219 79.140625 C 644.808594 80.082031 648.089844 81.886719 651.726562 82.660156 C 647.433594 83.753906 644.011719 81.960938 641.074219 79.140625 Z M 641.074219 79.140625 " fill-opacity="1" fill-rule="nonzero"/><path fill="#ffffff" d="M 533.71875 195.597656 C 521.882812 195.488281 512.726562 185.335938 513.722656 173.621094 C 513.929688 171.164062 515.109375 170.542969 517.195312 170.53125 C 528.289062 170.484375 539.378906 170.410156 550.472656 170.378906 C 552.417969 170.378906 553.890625 170.683594 554.132812 173.261719 C 555.226562 184.757812 545.300781 195.707031 533.71875 195.609375 Z M 533.71875 195.597656 " fill-opacity="1" fill-rule="nonzero"/><path fill="#f7705c" d="M 485.628906 167.285156 C 476.261719 167.285156 472.339844 164.605469 472.382812 158.300781 C 472.4375 150.019531 477.726562 145.40625 487.144531 145.441406 C 495.769531 145.460938 499.613281 149.011719 499.558594 156.914062 C 499.515625 164.148438 495.277344 167.296875 485.628906 167.285156 Z M 485.628906 167.285156 " fill-opacity="1" fill-rule="nonzero"/><path fill="#f7705c" d="M 580.992188 167.285156 C 579.726562 167.285156 578.457031 167.304688 577.191406 167.285156 C 568.21875 167.097656 564.285156 160.585938 568.359375 152.476562 C 569.847656 149.515625 572.074219 147.441406 575.757812 148.652344 C 577.5625 149.242188 579.289062 149.078125 581.101562 148.957031 C 582.882812 148.839844 584.742188 148.859375 586.476562 149.242188 C 593.078125 150.730469 597.265625 155.363281 596.566406 160.160156 C 595.875 164.914062 592.195312 167.140625 584.796875 167.296875 C 583.527344 167.316406 582.261719 167.296875 580.992188 167.296875 Z M 580.992188 167.285156 " fill-opacity="1" fill-rule="nonzero"/><path fill="#191919" d="M 590.039062 115.300781 C 578.183594 110.484375 565.902344 109.828125 553.585938 109.414062 C 550.339844 109.300781 547.71875 108.144531 547.804688 104.394531 C 547.894531 100.648438 550.65625 99.730469 553.828125 99.578125 C 563.015625 99.140625 571.921875 100.660156 580.488281 103.859375 C 585.570312 105.761719 587.875 110.40625 590.039062 115.289062 Z M 590.039062 115.300781 " fill-opacity="1" fill-rule="nonzero"/><path fill="#191919" d="M 474.613281 116.613281 C 477.210938 110.8125 480.042969 106.394531 485.199219 104.449219 C 493.058594 101.488281 501.253906 99.6875 509.710938 99.71875 C 513.078125 99.71875 516.726562 100.15625 516.824219 104.636719 C 516.914062 108.996094 513.339844 109.949219 509.996094 110.089844 C 502.171875 110.417969 494.335938 110.460938 486.730469 112.59375 C 482.960938 113.652344 479.277344 115.050781 474.613281 116.613281 Z M 474.613281 116.613281 " fill-opacity="1" fill-rule="nonzero"/><path fill="#f7705c" d="M 620.265625 157.527344 C 619.882812 159.820312 618.265625 160.160156 617.183594 160.988281 C 614.605469 162.933594 612.78125 164.378906 616.484375 167.492188 C 619.882812 170.355469 617.820312 173.828125 615.359375 176.507812 C 612.660156 179.457031 609.109375 181.917969 605.351562 179.46875 C 601.960938 177.261719 602.761719 173.195312 604.671875 170.191406 C 608.34375 164.410156 612.757812 159.316406 620.265625 157.527344 Z M 620.265625 157.527344 " fill-opacity="1" fill-rule="nonzero"/><path fill="#f7705c" d="M 452.625 162.78125 C 449.828125 160.652344 447.425781 158.816406 444.898438 156.890625 C 451.542969 156.019531 460.40625 163.800781 460.210938 170.113281 C 460.144531 172.257812 459.597656 174.257812 457.183594 174.617188 C 453.390625 175.183594 449.46875 175.558594 446.648438 172.136719 C 445.085938 170.234375 444.417969 167.875 445.6875 165.558594 C 447.042969 163.089844 450.15625 164.824219 452.625 162.78125 Z M 452.625 162.78125 " fill-opacity="1" fill-rule="nonzero"/><path fill="#191919" d="M 498.304688 129.386719 C 501.363281 130.109375 503.898438 131.398438 503.820312 135.039062 C 503.746094 138.28125 501.703125 140.207031 498.652344 140.261719 C 495.277344 140.316406 493.242188 138.21875 493.265625 134.742188 C 493.289062 131.550781 495.113281 129.78125 498.304688 129.386719 Z M 498.304688 129.386719 " fill-opacity="1" fill-rule="nonzero"/><path fill="#191919" d="M 566.566406 130.164062 C 569.617188 130.371094 571.671875 131.8125 571.605469 135.144531 C 571.539062 138.644531 569.203125 140.488281 566.042969 140.445312 C 562.929688 140.414062 561.160156 138.03125 561.203125 135.027344 C 561.246094 131.867188 563.300781 130.238281 566.578125 130.164062 Z M 566.566406 130.164062 " fill-opacity="1" fill-rule="nonzero"/><path fill="#f7705c" d="M 535.316406 158.882812 C 533.347656 148.773438 535.335938 138.566406 534.625 128.425781 C 536.746094 135.582031 537.378906 152.804688 535.316406 158.882812 Z M 535.316406 158.882812 " fill-opacity="1" fill-rule="nonzero"/><path fill="#191919" d="M 578.171875 133.746094 C 573.015625 128.960938 567.867188 124.6875 559.816406 127.628906 C 562.40625 124.042969 564.261719 122.996094 567.5625 123.847656 C 572.675781 125.167969 576.46875 128.261719 578.164062 133.746094 Z M 578.171875 133.746094 " fill-opacity="1" fill-rule="nonzero"/><path fill="#191919" d="M 506.882812 127.320312 C 497.605469 123.3125 492.804688 130.152344 486.492188 134.4375 C 489.035156 124.535156 499.820312 120.644531 506.882812 127.320312 Z M 506.882812 127.320312 " fill-opacity="1" fill-rule="nonzero"/><path fill="#191919" d="M 614.355469 112.691406 C 609.960938 110.867188 605.578125 109.03125 601.1875 107.203125 C 600.890625 106.089844 601.21875 105.238281 602.433594 105.847656 C 606.53125 107.902344 611.121094 109.136719 614.355469 112.691406 Z M 614.355469 112.691406 " fill-opacity="1" fill-rule="nonzero"/></svg>