<svg xmlns="http://www.w3.org/2000/svg" xmlns:xlink="http://www.w3.org/1999/xlink" width="400" zoomAndPan="magnify" viewBox="0 0 300 374.999991" height="500" preserveAspectRatio="xMidYMid meet" version="1.0"><defs><filter x="0%" y="0%" width="100%" height="100%" id="6b44a76cd2"><feColorMatrix values="0 0 0 0 1 0 0 0 0 1 0 0 0 0 1 0 0 0 1 0" color-interpolation-filters="sRGB"/></filter><mask id="2f1f80559b"><g filter="url(#6b44a76cd2)"><rect x="-30" width="360" fill="#000000" y="-37.499999" height="449.999989" fill-opacity="0.2"/></g></mask><clipPath id="b3d4f93e72"><path d="M 0 0 L 300 0 L 300 375 L 0 375 Z M 0 0 " clip-rule="nonzero"/></clipPath><clipPath id="e3dbed7ef0"><path d="M 463.199219 323.84375 C 462.75 315.539062 462.011719 307.246094 460.910156 299 C 459.785156 290.660156 458.292969 282.351562 456.347656 274.152344 C 454.714844 267.207031 452.710938 260.371094 450.421875 253.601562 C 449.132812 249.777344 447.628906 245.988281 445.90625 242.328125 C 442.621094 235.394531 438.855469 228.742188 434.433594 222.46875 C 429.71875 215.769531 424.355469 209.574219 418.539062 203.816406 C 412.71875 198.054688 406.363281 192.789062 399.628906 188.132812 C 395.007812 184.929688 390.207031 181.960938 385.246094 179.285156 C 378.996094 175.933594 372.484375 173.046875 366.03125 170.089844 C 358.265625 166.523438 350.464844 163.039062 342.640625 159.613281 C 334.804688 156.175781 326.945312 152.789062 319.0625 149.445312 C 311.214844 146.113281 303.355469 142.816406 295.496094 139.53125 C 287.660156 136.257812 279.800781 132.996094 271.953125 129.726562 C 264.117188 126.464844 256.265625 123.191406 248.441406 119.882812 C 240.78125 116.644531 233.144531 113.382812 225.519531 110.050781 C 217.789062 106.675781 210.09375 103.226562 202.433594 99.660156 C 194.867188 96.128906 187.347656 92.480469 179.949219 88.621094 C 172.570312 84.785156 165.285156 80.738281 158.257812 76.304688 C 151.371094 71.949219 144.636719 67.222656 138.714844 61.617188 C 135.839844 58.894531 133.140625 55.9375 130.925781 52.640625 C 128.90625 49.664062 127.160156 46.261719 126.503906 42.683594 C 126.28125 41.390625 126.066406 40.066406 126.101562 38.753906 C 126.136719 37.367188 126.339844 36.019531 126.75 34.683594 C 127.605469 31.867188 129.328125 29.320312 131.277344 27.140625 C 133.976562 24.101562 137.199219 21.554688 140.554688 19.28125 C 143.957031 16.980469 147.535156 14.929688 151.183594 13.039062 C 158.257812 9.367188 165.613281 6.246094 173.027344 3.316406 C 179.582031 0.710938 186.222656 -1.671875 192.78125 -4.285156 C 193.132812 -4.429688 193.496094 -4.582031 193.847656 -4.722656 L 193.742188 -4.933594 C 187.703125 -2.667969 181.613281 -0.570312 175.546875 1.648438 C 168.191406 4.347656 160.875 7.199219 153.765625 10.503906 C 150.058594 12.230469 146.398438 14.09375 142.878906 16.171875 C 139.335938 18.257812 135.898438 20.570312 132.824219 23.292969 C 130.066406 25.71875 127.417969 28.59375 125.855469 31.949219 C 124.859375 34.085938 124.25 36.265625 124.15625 38.636719 C 124.027344 41.605469 124.683594 44.628906 125.703125 47.398438 C 127.101562 51.175781 129.304688 54.636719 131.828125 57.769531 C 136.847656 64.042969 143.136719 69.253906 149.601562 73.980469 C 156.34375 78.90625 163.464844 83.328125 170.703125 87.496094 C 177.882812 91.636719 185.203125 95.519531 192.582031 99.261719 C 200.078125 103.0625 207.632812 106.722656 215.222656 110.296875 C 222.800781 113.851562 230.402344 117.335938 238.039062 120.773438 C 245.734375 124.246094 253.453125 127.683594 261.183594 131.085938 C 268.996094 134.535156 276.808594 137.972656 284.621094 141.421875 C 292.398438 144.84375 300.175781 148.28125 307.941406 151.742188 C 315.753906 155.226562 323.554688 158.722656 331.332031 162.289062 C 339.097656 165.84375 346.851562 169.445312 354.582031 173.105469 C 362.066406 176.671875 369.550781 180.238281 376.929688 184.015625 C 381.890625 186.535156 386.667969 189.433594 391.253906 192.566406 C 397.480469 196.8125 403.324219 201.5625 408.800781 206.738281 C 414.726562 212.332031 420.132812 218.550781 424.859375 225.1875 C 429.496094 231.6875 433.4375 238.621094 436.699219 245.894531 C 438.351562 249.578125 439.769531 253.378906 440.980469 257.238281 C 442.949219 263.476562 444.640625 269.800781 446.035156 276.207031 C 447.816406 284.464844 449.132812 292.839844 450.058594 301.238281 C 450.972656 309.535156 451.5 317.875 451.738281 326.214844 C 451.972656 334.449219 451.890625 342.695312 451.59375 350.929688 C 451.289062 359.046875 450.75 367.167969 450.058594 375.261719 C 449.835938 377.734375 449.601562 380.210938 449.355469 382.699219 L 462.128906 382.699219 C 462.375 379.460938 462.597656 376.234375 462.796875 372.996094 C 463.292969 364.878906 463.609375 356.75 463.703125 348.621094 C 463.785156 340.363281 463.644531 332.089844 463.199219 323.84375 Z M 178.820312 178.148438 C 177.484375 173.820312 175.101562 170.054688 172.277344 166.558594 C 169.90625 163.636719 167.207031 160.976562 164.414062 158.464844 C 161.296875 155.660156 158.011719 153.035156 154.65625 150.511719 C 147.933594 145.433594 140.929688 140.761719 133.855469 136.175781 C 126.714844 131.554688 119.511719 127.039062 112.320312 122.5 C 105.1875 117.992188 98.066406 113.453125 91.039062 108.796875 C 84 104.128906 77.035156 99.355469 70.265625 94.308594 C 63.566406 89.324219 57.019531 84.09375 51.390625 77.921875 C 47.0625 73.183594 42.992188 67.632812 41.511719 61.289062 C 40.949219 58.953125 40.832031 56.570312 41.160156 54.273438 C 41.488281 51.960938 42.300781 49.734375 43.425781 47.679688 C 45.148438 44.535156 47.566406 41.828125 50.21875 39.433594 C 52.925781 36.980469 55.882812 34.824219 58.945312 32.839844 C 65.984375 28.289062 73.632812 24.699219 81.398438 21.566406 C 89.199219 18.433594 97.1875 15.761719 105.234375 13.355469 C 113.058594 11.011719 120.964844 8.910156 128.882812 6.949219 C 136.671875 5.039062 144.496094 3.242188 152.332031 1.519531 C 159.792969 -0.121094 167.253906 -1.71875 174.714844 -3.347656 C 180.640625 -4.652344 186.550781 -5.988281 192.453125 -7.429688 L 192.335938 -7.640625 C 186.070312 -6.222656 179.78125 -4.921875 173.484375 -3.664062 C 165.976562 -2.175781 158.46875 -0.710938 150.960938 0.816406 C 143.078125 2.421875 135.195312 4.089844 127.347656 5.882812 C 119.382812 7.714844 111.464844 9.683594 103.605469 11.925781 C 95.519531 14.210938 87.496094 16.769531 79.660156 19.808594 C 71.859375 22.847656 64.292969 26.378906 57.160156 30.753906 C 51.15625 34.519531 45.148438 39.070312 41.3125 45.144531 C 41.101562 45.488281 40.902344 45.816406 40.703125 46.15625 C 38.664062 49.746094 37.558594 53.769531 37.6875 57.910156 C 37.722656 59.292969 37.910156 60.679688 38.203125 62.027344 C 39.90625 69.96875 45.113281 76.785156 50.570312 82.589844 C 56.292969 88.691406 62.839844 93.945312 69.492188 99.003906 C 76.210938 104.128906 83.121094 109.007812 90.089844 113.792969 C 97.09375 118.582031 104.167969 123.261719 111.265625 127.90625 C 118.40625 132.597656 125.550781 137.257812 132.625 142.054688 C 139.558594 146.757812 146.445312 151.566406 152.976562 156.824219 C 156.203125 159.414062 159.335938 162.125 162.28125 165.035156 C 164.628906 167.367188 166.914062 169.855469 168.792969 172.601562 C 169.964844 174.324219 171.019531 176.097656 171.792969 178.042969 C 172.429688 179.617188 172.851562 181.28125 173.238281 182.921875 C 173.414062 183.652344 173.542969 184.378906 173.683594 185.117188 C 174.667969 190.605469 174.597656 196.273438 173.542969 201.761719 C 172.476562 207.253906 170.433594 212.554688 167.628906 217.421875 C 163.605469 224.425781 158.082031 230.527344 151.734375 235.488281 C 146.246094 239.769531 140.132812 243.136719 134.082031 246.539062 C 126.621094 250.726562 119.101562 254.796875 111.546875 258.820312 C 104.027344 262.820312 96.472656 266.761719 88.90625 270.65625 C 81.398438 274.539062 73.855469 278.363281 66.300781 282.152344 C 58.710938 285.964844 51.109375 289.730469 43.484375 293.449219 C 36.09375 297.0625 28.679688 300.628906 21.253906 304.160156 C 13.839844 307.679688 6.402344 311.164062 -1.058594 314.601562 C -8.53125 318.039062 -16.027344 321.441406 -23.535156 324.769531 C -30.65625 327.925781 -37.785156 331.035156 -44.941406 334.074219 C -52.53125 337.300781 -60.132812 340.457031 -67.78125 343.503906 C -74.691406 346.273438 -81.636719 348.960938 -88.617188 351.527344 C -95.546875 354.085938 -102.515625 356.539062 -109.542969 358.800781 L -109.542969 372.515625 C -103.503906 370.496094 -97.507812 368.351562 -91.546875 366.121094 C -84.40625 363.4375 -77.308594 360.621094 -70.246094 357.722656 C -62.855469 354.683594 -55.488281 351.539062 -48.15625 348.339844 C -40.847656 345.136719 -33.574219 341.863281 -26.3125 338.53125 C -18.980469 335.164062 -11.675781 331.738281 -4.390625 328.265625 C 3.128906 324.6875 10.636719 321.054688 18.109375 317.371094 C 25.394531 313.78125 32.667969 310.15625 39.917969 306.484375 C 47.414062 302.695312 54.886719 298.871094 62.347656 295 C 69.867188 291.09375 77.375 287.152344 84.859375 283.164062 C 92.367188 279.164062 99.863281 275.117188 107.335938 271.019531 C 114.808594 266.925781 122.253906 262.773438 129.65625 258.550781 C 133.351562 256.441406 137.046875 254.316406 140.71875 252.148438 C 144.144531 250.105469 147.628906 248.097656 150.914062 245.835938 C 156.484375 241.976562 161.625 237.554688 166.082031 232.425781 C 169.121094 228.90625 171.792969 225.105469 174.046875 221.035156 C 177.121094 215.453125 179.359375 209.363281 180.464844 203.03125 C 181.015625 199.875 181.285156 196.660156 181.261719 193.445312 C 181.226562 188.238281 180.371094 183.109375 178.820312 178.148438 Z M 183.796875 122.746094 C 182.105469 121.984375 180.300781 121.171875 178.503906 120.363281 C 174.902344 118.722656 171.300781 117.066406 168.628906 115.8125 C 167.277344 115.179688 166.152344 114.652344 165.378906 114.289062 C 164.59375 113.910156 164.144531 113.699219 164.144531 113.699219 L 161.765625 118.617188 C 161.765625 118.617188 162.210938 118.839844 162.984375 119.226562 C 163.769531 119.613281 164.886719 120.164062 166.222656 120.820312 C 168.898438 122.136719 172.476562 123.871094 176.066406 125.59375 C 177.859375 126.441406 179.652344 127.296875 181.332031 128.09375 C 183.019531 128.890625 184.605469 129.632812 185.953125 130.265625 C 188.652344 131.519531 190.457031 132.351562 190.457031 132.351562 L 192.957031 126.804688 C 192.957031 126.804688 191.148438 126.007812 188.429688 124.808594 C 187.078125 124.210938 185.496094 123.507812 183.796875 122.746094 Z M 240.066406 306.964844 C 239.246094 307.621094 238.0625 308.546875 236.628906 309.664062 C 233.792969 311.878906 229.957031 314.789062 226.074219 317.664062 C 222.191406 320.523438 218.273438 323.351562 215.316406 325.464844 C 213.835938 326.507812 212.59375 327.386719 211.738281 327.996094 C 210.871094 328.609375 210.375 328.960938 210.375 328.960938 L 217.34375 338.671875 C 217.34375 338.671875 217.835938 338.308594 218.707031 337.675781 C 219.574219 337.03125 220.804688 336.125 222.273438 335.035156 C 225.226562 332.84375 229.144531 329.898438 233.039062 326.894531 C 236.933594 323.902344 240.792969 320.851562 243.667969 318.53125 C 245.113281 317.371094 246.296875 316.382812 247.128906 315.703125 C 247.960938 315.011719 248.429688 314.625 248.429688 314.625 L 241.359375 305.945312 C 241.359375 305.945312 240.886719 306.320312 240.066406 306.964844 Z M 305.488281 207.746094 C 305.394531 207.5 305.289062 207.21875 305.160156 206.925781 C 305.042969 206.632812 304.902344 206.316406 304.75 205.972656 C 304.46875 205.292969 304.105469 204.554688 303.71875 203.746094 C 302.910156 202.148438 301.910156 200.320312 300.726562 198.453125 C 299.542969 196.601562 298.191406 194.691406 296.773438 192.859375 L 296.234375 192.179688 C 296.058594 191.945312 295.882812 191.722656 295.695312 191.5 C 295.332031 191.054688 294.96875 190.605469 294.601562 190.171875 C 293.875 189.316406 293.148438 188.460938 292.433594 187.675781 C 291.707031 186.863281 291.003906 186.125 290.320312 185.410156 C 289.980469 185.058594 289.652344 184.71875 289.324219 184.378906 C 289.007812 184.050781 288.691406 183.734375 288.398438 183.441406 C 287.179688 182.230469 286.15625 181.257812 285.429688 180.578125 C 284.703125 179.910156 284.28125 179.523438 284.28125 179.523438 L 278.742188 185.480469 C 278.742188 185.480469 279.128906 185.84375 279.800781 186.488281 C 280.46875 187.148438 281.417969 188.074219 282.519531 189.222656 C 282.800781 189.503906 283.070312 189.808594 283.378906 190.113281 C 283.671875 190.429688 283.964844 190.746094 284.28125 191.078125 C 284.878906 191.757812 285.535156 192.460938 286.167969 193.210938 C 286.824219 193.949219 287.460938 194.738281 288.128906 195.535156 C 288.433594 195.933594 288.761719 196.34375 289.078125 196.742188 C 289.253906 196.953125 289.40625 197.152344 289.558594 197.363281 L 290.027344 197.984375 C 291.261719 199.652344 292.421875 201.363281 293.417969 202.996094 C 294.414062 204.636719 295.226562 206.199219 295.882812 207.558594 C 296.1875 208.238281 296.480469 208.859375 296.703125 209.421875 C 296.808594 209.703125 296.925781 209.964844 297.019531 210.199219 C 297.113281 210.445312 297.195312 210.667969 297.265625 210.867188 C 297.417969 211.277344 297.535156 211.59375 297.605469 211.804688 C 297.675781 212.027344 297.710938 212.144531 297.710938 212.144531 L 306.0625 209.316406 C 306.0625 209.316406 306.015625 209.164062 305.921875 208.894531 C 305.828125 208.625 305.675781 208.238281 305.488281 207.746094 Z M 251.726562 155.753906 C 251.328125 155.519531 250.859375 155.226562 250.296875 154.898438 C 249.746094 154.570312 249.125 154.195312 248.441406 153.796875 C 245.722656 152.175781 242.050781 150.078125 238.355469 148.058594 C 236.5 147.050781 234.636719 146.066406 232.886719 145.152344 C 231.140625 144.234375 229.496094 143.390625 228.089844 142.675781 C 225.261719 141.257812 223.363281 140.339844 223.363281 140.339844 L 220.359375 146.359375 C 220.359375 146.359375 222.214844 147.296875 224.945312 148.753906 C 226.320312 149.480469 227.914062 150.335938 229.613281 151.261719 C 231.316406 152.199219 233.121094 153.210938 234.90625 154.230469 C 238.496094 156.28125 242.050781 158.394531 244.675781 160.023438 C 245.335938 160.4375 245.933594 160.8125 246.472656 161.140625 C 247 161.480469 247.46875 161.773438 247.84375 162.007812 C 248.230469 162.253906 248.523438 162.441406 248.722656 162.570312 C 248.925781 162.699219 249.042969 162.769531 249.042969 162.769531 L 252.972656 156.519531 C 252.972656 156.519531 252.855469 156.449219 252.644531 156.316406 C 252.429688 156.1875 252.125 156 251.726562 155.753906 Z M 293.160156 248.734375 C 293.042969 248.957031 292.878906 249.296875 292.667969 249.730469 C 292.234375 250.574219 291.601562 251.792969 290.800781 253.226562 C 289.992188 254.65625 289.019531 256.324219 287.894531 258.058594 C 286.777344 259.808594 285.535156 261.636719 284.222656 263.441406 C 281.628906 267.042969 278.789062 270.503906 276.574219 273.050781 C 276.023438 273.683594 275.527344 274.269531 275.058594 274.773438 C 274.613281 275.292969 274.203125 275.738281 273.886719 276.101562 C 273.21875 276.828125 272.832031 277.238281 272.832031 277.238281 L 280.515625 284.171875 C 280.515625 284.171875 280.902344 283.726562 281.59375 282.953125 C 281.933594 282.550781 282.34375 282.070312 282.8125 281.53125 C 283.296875 280.980469 283.8125 280.347656 284.386719 279.667969 C 286.671875 276.921875 289.628906 273.167969 292.375 269.214844 C 293.734375 267.230469 295.0625 265.214844 296.246094 263.289062 C 297.429688 261.355469 298.472656 259.511719 299.34375 257.90625 C 300.199219 256.300781 300.878906 254.925781 301.335938 253.964844 C 301.558594 253.484375 301.734375 253.097656 301.863281 252.839844 C 301.980469 252.582031 302.050781 252.441406 302.050781 252.441406 L 293.324219 248.382812 C 293.324219 248.382812 293.265625 248.5 293.160156 248.734375 Z M 189.566406 -5.683594 C 187.359375 -5.085938 184.394531 -4.308594 181.414062 -3.558594 C 175.464844 -2.070312 169.507812 -0.582031 169.507812 -0.582031 L 169.824219 0.640625 C 169.824219 0.640625 175.746094 -0.96875 181.671875 -2.585938 C 184.640625 -3.382812 187.597656 -4.214844 189.800781 -4.863281 C 190.914062 -5.191406 191.832031 -5.484375 192.476562 -5.683594 C 192.804688 -5.789062 193.050781 -5.871094 193.226562 -5.929688 L 192.863281 -6.632812 C 192.699219 -6.585938 192.488281 -6.515625 192.242188 -6.445312 C 191.597656 -6.257812 190.679688 -5.988281 189.566406 -5.683594 Z M 167.40625 358.707031 C 166.480469 359.367188 165.167969 360.316406 163.582031 361.476562 C 160.4375 363.800781 156.238281 366.933594 152.121094 370.402344 C 151.089844 371.273438 150.058594 372.164062 149.058594 373.066406 C 148.050781 373.992188 147.078125 374.910156 146.128906 375.859375 C 145.1875 376.808594 144.285156 377.769531 143.429688 378.746094 C 142.585938 379.71875 141.800781 380.726562 141.09375 381.746094 C 140.871094 382.050781 140.660156 382.371094 140.449219 382.699219 L 158.421875 382.699219 C 159.195312 381.96875 159.992188 381.242188 160.816406 380.527344 C 164.472656 377.3125 168.429688 374.226562 171.417969 371.941406 C 172.921875 370.792969 174.1875 369.839844 175.078125 369.183594 C 175.957031 368.515625 176.464844 368.140625 176.464844 368.140625 L 168.863281 357.675781 C 168.863281 357.675781 168.332031 358.050781 167.40625 358.707031 Z M 84.011719 46.0625 C 84.140625 45.371094 84.261719 44.96875 84.261719 44.96875 L 81.140625 44.113281 C 81.140625 44.113281 81 44.570312 80.824219 45.417969 C 80.648438 46.25 80.449219 47.46875 80.425781 48.945312 C 80.425781 49.039062 80.425781 49.132812 80.425781 49.21875 C 80.425781 49.3125 80.425781 49.394531 80.425781 49.488281 C 80.425781 49.675781 80.414062 49.851562 80.425781 50.039062 C 80.425781 50.414062 80.4375 50.8125 80.460938 51.210938 C 80.484375 52.019531 80.554688 52.863281 80.660156 53.746094 C 80.859375 55.515625 81.246094 57.394531 81.84375 59.210938 L 82.066406 59.890625 C 82.148438 60.101562 82.230469 60.335938 82.324219 60.558594 L 82.441406 60.890625 L 82.582031 61.21875 C 82.675781 61.429688 82.757812 61.652344 82.851562 61.863281 C 83.238281 62.71875 83.636719 63.550781 84.058594 64.324219 C 84.90625 65.886719 85.808594 67.257812 86.628906 68.398438 C 87.449219 69.535156 88.191406 70.425781 88.707031 71.058594 C 88.824219 71.210938 88.941406 71.351562 89.046875 71.46875 C 89.152344 71.585938 89.234375 71.691406 89.304688 71.773438 C 89.457031 71.9375 89.527344 72.03125 89.527344 72.03125 L 92.355469 69.511719 C 92.355469 69.511719 92.285156 69.429688 92.15625 69.277344 C 92.085938 69.207031 92.003906 69.113281 91.910156 69.007812 C 91.800781 68.902344 91.695312 68.773438 91.566406 68.621094 C 91.085938 68.054688 90.382812 67.234375 89.621094 66.203125 C 88.847656 65.183594 88 63.949219 87.214844 62.566406 C 86.816406 61.886719 86.453125 61.160156 86.101562 60.40625 C 86.019531 60.21875 85.9375 60.03125 85.855469 59.84375 L 85.726562 59.550781 L 85.609375 59.269531 C 85.539062 59.070312 85.457031 58.882812 85.386719 58.683594 L 85.175781 58.097656 C 84.625 56.511719 84.25 54.882812 84.035156 53.3125 C 83.917969 52.535156 83.847656 51.773438 83.800781 51.035156 C 83.777344 50.671875 83.765625 50.320312 83.753906 49.96875 C 83.742188 49.792969 83.742188 49.628906 83.742188 49.453125 C 83.742188 49.371094 83.742188 49.289062 83.742188 49.207031 C 83.730469 49.121094 83.730469 49.039062 83.730469 48.96875 C 83.730469 47.761719 83.871094 46.753906 84.011719 46.0625 Z M 119.195312 14.859375 C 118.5 15.128906 117.503906 15.527344 116.320312 16.019531 C 113.949219 17.015625 110.816406 18.386719 107.734375 19.902344 C 106.195312 20.664062 104.671875 21.449219 103.25 22.222656 C 101.832031 23 100.53125 23.75 99.414062 24.417969 C 98.3125 25.097656 97.398438 25.671875 96.765625 26.09375 C 96.449219 26.308594 96.203125 26.472656 96.039062 26.578125 C 95.875 26.695312 95.78125 26.765625 95.78125 26.765625 L 97.375 29.050781 C 97.375 29.050781 97.457031 28.992188 97.621094 28.875 C 97.785156 28.769531 98.019531 28.605469 98.3125 28.394531 C 98.910156 27.984375 99.792969 27.398438 100.847656 26.730469 C 101.902344 26.058594 103.15625 25.296875 104.53125 24.523438 C 105.890625 23.738281 107.371094 22.941406 108.871094 22.164062 C 111.863281 20.617188 114.9375 19.210938 117.246094 18.175781 C 118.40625 17.671875 119.382812 17.25 120.0625 16.96875 C 120.742188 16.6875 121.140625 16.523438 121.140625 16.523438 L 120.285156 14.421875 C 120.285156 14.421875 119.886719 14.574219 119.195312 14.859375 Z M 115.546875 87.777344 C 115.066406 87.472656 114.640625 87.199219 114.300781 86.976562 C 113.609375 86.542969 113.222656 86.285156 113.222656 86.285156 L 110.828125 89.886719 C 110.828125 89.886719 111.21875 90.15625 111.910156 90.613281 C 112.261719 90.847656 112.683594 91.128906 113.164062 91.449219 C 113.644531 91.777344 114.195312 92.128906 114.792969 92.515625 C 117.175781 94.074219 120.402344 96.09375 123.652344 98.039062 C 126.902344 100 130.1875 101.886719 132.660156 103.285156 C 133.902344 103.976562 134.925781 104.5625 135.652344 104.960938 C 136.378906 105.359375 136.800781 105.582031 136.800781 105.582031 L 139.125 101.265625 C 139.125 101.265625 138.714844 101.042969 137.988281 100.65625 C 137.257812 100.28125 136.226562 99.730469 134.996094 99.0625 C 132.519531 97.722656 129.234375 95.929688 125.984375 94.0625 C 122.738281 92.199219 119.535156 90.273438 117.164062 88.785156 C 116.566406 88.421875 116.015625 88.082031 115.546875 87.777344 Z M 146.5625 5.613281 C 143.453125 6.515625 140.355469 7.46875 138.035156 8.207031 C 135.722656 8.933594 134.1875 9.449219 134.1875 9.449219 L 134.820312 11.316406 C 134.820312 11.316406 136.332031 10.773438 138.632812 10 C 140.917969 9.226562 143.980469 8.230469 147.054688 7.269531 C 150.128906 6.292969 153.226562 5.378906 155.546875 4.6875 C 157.871094 4.019531 159.417969 3.5625 159.417969 3.5625 L 159.019531 2.140625 C 159.019531 2.140625 157.460938 2.5625 155.125 3.195312 C 152.777344 3.84375 149.660156 4.710938 146.5625 5.613281 Z M 146.5625 5.613281 " clip-rule="nonzero"/></clipPath><clipPath id="251f1e00ec"><path d="M 463.199219 323.84375 C 462.75 315.539062 462.011719 307.246094 460.910156 299 C 459.785156 290.660156 458.292969 282.351562 456.347656 274.152344 C 454.714844 267.207031 452.710938 260.371094 450.421875 253.601562 C 449.132812 249.777344 447.628906 245.988281 445.90625 242.328125 C 442.621094 235.394531 438.855469 228.742188 434.433594 222.46875 C 429.71875 215.769531 424.355469 209.574219 418.539062 203.816406 C 412.71875 198.054688 406.363281 192.789062 399.628906 188.132812 C 395.007812 184.929688 390.207031 181.960938 385.246094 179.285156 C 378.996094 175.933594 372.484375 173.046875 366.03125 170.089844 C 358.265625 166.523438 350.464844 163.039062 342.640625 159.613281 C 334.804688 156.175781 326.945312 152.789062 319.0625 149.445312 C 311.214844 146.113281 303.355469 142.816406 295.496094 139.53125 C 287.660156 136.257812 279.800781 132.996094 271.953125 129.726562 C 264.117188 126.464844 256.265625 123.191406 248.441406 119.882812 C 240.78125 116.644531 233.144531 113.382812 225.519531 110.050781 C 217.789062 106.675781 210.09375 103.226562 202.433594 99.660156 C 194.867188 96.128906 187.347656 92.480469 179.949219 88.621094 C 172.570312 84.785156 165.285156 80.738281 158.257812 76.304688 C 151.371094 71.949219 144.636719 67.222656 138.714844 61.617188 C 135.839844 58.894531 133.140625 55.9375 130.925781 52.640625 C 128.90625 49.664062 127.160156 46.261719 126.503906 42.683594 C 126.28125 41.390625 126.066406 40.066406 126.101562 38.753906 C 126.136719 37.367188 126.339844 36.019531 126.75 34.683594 C 127.605469 31.867188 129.328125 29.320312 131.277344 27.140625 C 133.976562 24.101562 137.199219 21.554688 140.554688 19.28125 C 143.957031 16.980469 147.535156 14.929688 151.183594 13.039062 C 158.257812 9.367188 165.613281 6.246094 173.027344 3.316406 C 179.582031 0.710938 186.222656 -1.671875 192.78125 -4.285156 C 193.132812 -4.429688 193.496094 -4.582031 193.847656 -4.722656 L 193.742188 -4.933594 C 187.703125 -2.667969 181.613281 -0.570312 175.546875 1.648438 C 168.191406 4.347656 160.875 7.199219 153.765625 10.503906 C 150.058594 12.230469 146.398438 14.09375 142.878906 16.171875 C 139.335938 18.257812 135.898438 20.570312 132.824219 23.292969 C 130.066406 25.71875 127.417969 28.59375 125.855469 31.949219 C 124.859375 34.085938 124.25 36.265625 124.15625 38.636719 C 124.027344 41.605469 124.683594 44.628906 125.703125 47.398438 C 127.101562 51.175781 129.304688 54.636719 131.828125 57.769531 C 136.847656 64.042969 143.136719 69.253906 149.601562 73.980469 C 156.34375 78.90625 163.464844 83.328125 170.703125 87.496094 C 177.882812 91.636719 185.203125 95.519531 192.582031 99.261719 C 200.078125 103.0625 207.632812 106.722656 215.222656 110.296875 C 222.800781 113.851562 230.402344 117.335938 238.039062 120.773438 C 245.734375 124.246094 253.453125 127.683594 261.183594 131.085938 C 268.996094 134.535156 276.808594 137.972656 284.621094 141.421875 C 292.398438 144.84375 300.175781 148.28125 307.941406 151.742188 C 315.753906 155.226562 323.554688 158.722656 331.332031 162.289062 C 339.097656 165.84375 346.851562 169.445312 354.582031 173.105469 C 362.066406 176.671875 369.550781 180.238281 376.929688 184.015625 C 381.890625 186.535156 386.667969 189.433594 391.253906 192.566406 C 397.480469 196.8125 403.324219 201.5625 408.800781 206.738281 C 414.726562 212.332031 420.132812 218.550781 424.859375 225.1875 C 429.496094 231.6875 433.4375 238.621094 436.699219 245.894531 C 438.351562 249.578125 439.769531 253.378906 440.980469 257.238281 C 442.949219 263.476562 444.640625 269.800781 446.035156 276.207031 C 447.816406 284.464844 449.132812 292.839844 450.058594 301.238281 C 450.972656 309.535156 451.5 317.875 451.738281 326.214844 C 451.972656 334.449219 451.890625 342.695312 451.59375 350.929688 C 451.289062 359.046875 450.75 367.167969 450.058594 375.261719 C 449.835938 377.734375 449.601562 380.210938 449.355469 382.699219 L 462.128906 382.699219 C 462.375 379.460938 462.597656 376.234375 462.796875 372.996094 C 463.292969 364.878906 463.609375 356.75 463.703125 348.621094 C 463.785156 340.363281 463.644531 332.089844 463.199219 323.84375 Z M 178.820312 178.148438 C 177.484375 173.820312 175.101562 170.054688 172.277344 166.558594 C 169.90625 163.636719 167.207031 160.976562 164.414062 158.464844 C 161.296875 155.660156 158.011719 153.035156 154.65625 150.511719 C 147.933594 145.433594 140.929688 140.761719 133.855469 136.175781 C 126.714844 131.554688 119.511719 127.039062 112.320312 122.5 C 105.1875 117.992188 98.066406 113.453125 91.039062 108.796875 C 84 104.128906 77.035156 99.355469 70.265625 94.308594 C 63.566406 89.324219 57.019531 84.09375 51.390625 77.921875 C 47.0625 73.183594 42.992188 67.632812 41.511719 61.289062 C 40.949219 58.953125 40.832031 56.570312 41.160156 54.273438 C 41.488281 51.960938 42.300781 49.734375 43.425781 47.679688 C 45.148438 44.535156 47.566406 41.828125 50.21875 39.433594 C 52.925781 36.980469 55.882812 34.824219 58.945312 32.839844 C 65.984375 28.289062 73.632812 24.699219 81.398438 21.566406 C 89.199219 18.433594 97.1875 15.761719 105.234375 13.355469 C 113.058594 11.011719 120.964844 8.910156 128.882812 6.949219 C 136.671875 5.039062 144.496094 3.242188 152.332031 1.519531 C 159.792969 -0.121094 167.253906 -1.71875 174.714844 -3.347656 C 180.640625 -4.652344 186.550781 -5.988281 192.453125 -7.429688 L 192.335938 -7.640625 C 186.070312 -6.222656 179.78125 -4.921875 173.484375 -3.664062 C 165.976562 -2.175781 158.46875 -0.710938 150.960938 0.816406 C 143.078125 2.421875 135.195312 4.089844 127.347656 5.882812 C 119.382812 7.714844 111.464844 9.683594 103.605469 11.925781 C 95.519531 14.210938 87.496094 16.769531 79.660156 19.808594 C 71.859375 22.847656 64.292969 26.378906 57.160156 30.753906 C 51.15625 34.519531 45.148438 39.070312 41.3125 45.144531 C 41.101562 45.488281 40.902344 45.816406 40.703125 46.15625 C 38.664062 49.746094 37.558594 53.769531 37.6875 57.910156 C 37.722656 59.292969 37.910156 60.679688 38.203125 62.027344 C 39.90625 69.96875 45.113281 76.785156 50.570312 82.589844 C 56.292969 88.691406 62.839844 93.945312 69.492188 99.003906 C 76.210938 104.128906 83.121094 109.007812 90.089844 113.792969 C 97.09375 118.582031 104.167969 123.261719 111.265625 127.90625 C 118.40625 132.597656 125.550781 137.257812 132.625 142.054688 C 139.558594 146.757812 146.445312 151.566406 152.976562 156.824219 C 156.203125 159.414062 159.335938 162.125 162.28125 165.035156 C 164.628906 167.367188 166.914062 169.855469 168.792969 172.601562 C 169.964844 174.324219 171.019531 176.097656 171.792969 178.042969 C 172.429688 179.617188 172.851562 181.28125 173.238281 182.921875 C 173.414062 183.652344 173.542969 184.378906 173.683594 185.117188 C 174.667969 190.605469 174.597656 196.273438 173.542969 201.761719 C 172.476562 207.253906 170.433594 212.554688 167.628906 217.421875 C 163.605469 224.425781 158.082031 230.527344 151.734375 235.488281 C 146.246094 239.769531 140.132812 243.136719 134.082031 246.539062 C 126.621094 250.726562 119.101562 254.796875 111.546875 258.820312 C 104.027344 262.820312 96.472656 266.761719 88.90625 270.65625 C 81.398438 274.539062 73.855469 278.363281 66.300781 282.152344 C 58.710938 285.964844 51.109375 289.730469 43.484375 293.449219 C 36.09375 297.0625 28.679688 300.628906 21.253906 304.160156 C 13.839844 307.679688 6.402344 311.164062 -1.058594 314.601562 C -8.53125 318.039062 -16.027344 321.441406 -23.535156 324.769531 C -30.65625 327.925781 -37.785156 331.035156 -44.941406 334.074219 C -52.53125 337.300781 -60.132812 340.457031 -67.78125 343.503906 C -74.691406 346.273438 -81.636719 348.960938 -88.617188 351.527344 C -95.546875 354.085938 -102.515625 356.539062 -109.542969 358.800781 L -109.542969 372.515625 C -103.503906 370.496094 -97.507812 368.351562 -91.546875 366.121094 C -84.40625 363.4375 -77.308594 360.621094 -70.246094 357.722656 C -62.855469 354.683594 -55.488281 351.539062 -48.15625 348.339844 C -40.847656 345.136719 -33.574219 341.863281 -26.3125 338.53125 C -18.980469 335.164062 -11.675781 331.738281 -4.390625 328.265625 C 3.128906 324.6875 10.636719 321.054688 18.109375 317.371094 C 25.394531 313.78125 32.667969 310.15625 39.917969 306.484375 C 47.414062 302.695312 54.886719 298.871094 62.347656 295 C 69.867188 291.09375 77.375 287.152344 84.859375 283.164062 C 92.367188 279.164062 99.863281 275.117188 107.335938 271.019531 C 114.808594 266.925781 122.253906 262.773438 129.65625 258.550781 C 133.351562 256.441406 137.046875 254.316406 140.71875 252.148438 C 144.144531 250.105469 147.628906 248.097656 150.914062 245.835938 C 156.484375 241.976562 161.625 237.554688 166.082031 232.425781 C 169.121094 228.90625 171.792969 225.105469 174.046875 221.035156 C 177.121094 215.453125 179.359375 209.363281 180.464844 203.03125 C 181.015625 199.875 181.285156 196.660156 181.261719 193.445312 C 181.226562 188.238281 180.371094 183.109375 178.820312 178.148438 Z M 183.796875 122.746094 C 182.105469 121.984375 180.300781 121.171875 178.503906 120.363281 C 174.902344 118.722656 171.300781 117.066406 168.628906 115.8125 C 167.277344 115.179688 166.152344 114.652344 165.378906 114.289062 C 164.59375 113.910156 164.144531 113.699219 164.144531 113.699219 L 161.765625 118.617188 C 161.765625 118.617188 162.210938 118.839844 162.984375 119.226562 C 163.769531 119.613281 164.886719 120.164062 166.222656 120.820312 C 168.898438 122.136719 172.476562 123.871094 176.066406 125.59375 C 177.859375 126.441406 179.652344 127.296875 181.332031 128.09375 C 183.019531 128.890625 184.605469 129.632812 185.953125 130.265625 C 188.652344 131.519531 190.457031 132.351562 190.457031 132.351562 L 192.957031 126.804688 C 192.957031 126.804688 191.148438 126.007812 188.429688 124.808594 C 187.078125 124.210938 185.496094 123.507812 183.796875 122.746094 Z M 240.066406 306.964844 C 239.246094 307.621094 238.0625 308.546875 236.628906 309.664062 C 233.792969 311.878906 229.957031 314.789062 226.074219 317.664062 C 222.191406 320.523438 218.273438 323.351562 215.316406 325.464844 C 213.835938 326.507812 212.59375 327.386719 211.738281 327.996094 C 210.871094 328.609375 210.375 328.960938 210.375 328.960938 L 217.34375 338.671875 C 217.34375 338.671875 217.835938 338.308594 218.707031 337.675781 C 219.574219 337.03125 220.804688 336.125 222.273438 335.035156 C 225.226562 332.84375 229.144531 329.898438 233.039062 326.894531 C 236.933594 323.902344 240.792969 320.851562 243.667969 318.53125 C 245.113281 317.371094 246.296875 316.382812 247.128906 315.703125 C 247.960938 315.011719 248.429688 314.625 248.429688 314.625 L 241.359375 305.945312 C 241.359375 305.945312 240.886719 306.320312 240.066406 306.964844 Z M 305.488281 207.746094 C 305.394531 207.5 305.289062 207.21875 305.160156 206.925781 C 305.042969 206.632812 304.902344 206.316406 304.75 205.972656 C 304.46875 205.292969 304.105469 204.554688 303.71875 203.746094 C 302.910156 202.148438 301.910156 200.320312 300.726562 198.453125 C 299.542969 196.601562 298.191406 194.691406 296.773438 192.859375 L 296.234375 192.179688 C 296.058594 191.945312 295.882812 191.722656 295.695312 191.5 C 295.332031 191.054688 294.96875 190.605469 294.601562 190.171875 C 293.875 189.316406 293.148438 188.460938 292.433594 187.675781 C 291.707031 186.863281 291.003906 186.125 290.320312 185.410156 C 289.980469 185.058594 289.652344 184.71875 289.324219 184.378906 C 289.007812 184.050781 288.691406 183.734375 288.398438 183.441406 C 287.179688 182.230469 286.15625 181.257812 285.429688 180.578125 C 284.703125 179.910156 284.28125 179.523438 284.28125 179.523438 L 278.742188 185.480469 C 278.742188 185.480469 279.128906 185.84375 279.800781 186.488281 C 280.46875 187.148438 281.417969 188.074219 282.519531 189.222656 C 282.800781 189.503906 283.070312 189.808594 283.378906 190.113281 C 283.671875 190.429688 283.964844 190.746094 284.28125 191.078125 C 284.878906 191.757812 285.535156 192.460938 286.167969 193.210938 C 286.824219 193.949219 287.460938 194.738281 288.128906 195.535156 C 288.433594 195.933594 288.761719 196.34375 289.078125 196.742188 C 289.253906 196.953125 289.40625 197.152344 289.558594 197.363281 L 290.027344 197.984375 C 291.261719 199.652344 292.421875 201.363281 293.417969 202.996094 C 294.414062 204.636719 295.226562 206.199219 295.882812 207.558594 C 296.1875 208.238281 296.480469 208.859375 296.703125 209.421875 C 296.808594 209.703125 296.925781 209.964844 297.019531 210.199219 C 297.113281 210.445312 297.195312 210.667969 297.265625 210.867188 C 297.417969 211.277344 297.535156 211.59375 297.605469 211.804688 C 297.675781 212.027344 297.710938 212.144531 297.710938 212.144531 L 306.0625 209.316406 C 306.0625 209.316406 306.015625 209.164062 305.921875 208.894531 C 305.828125 208.625 305.675781 208.238281 305.488281 207.746094 Z M 251.726562 155.753906 C 251.328125 155.519531 250.859375 155.226562 250.296875 154.898438 C 249.746094 154.570312 249.125 154.195312 248.441406 153.796875 C 245.722656 152.175781 242.050781 150.078125 238.355469 148.058594 C 236.5 147.050781 234.636719 146.066406 232.886719 145.152344 C 231.140625 144.234375 229.496094 143.390625 228.089844 142.675781 C 225.261719 141.257812 223.363281 140.339844 223.363281 140.339844 L 220.359375 146.359375 C 220.359375 146.359375 222.214844 147.296875 224.945312 148.753906 C 226.320312 149.480469 227.914062 150.335938 229.613281 151.261719 C 231.316406 152.199219 233.121094 153.210938 234.90625 154.230469 C 238.496094 156.28125 242.050781 158.394531 244.675781 160.023438 C 245.335938 160.4375 245.933594 160.8125 246.472656 161.140625 C 247 161.480469 247.46875 161.773438 247.84375 162.007812 C 248.230469 162.253906 248.523438 162.441406 248.722656 162.570312 C 248.925781 162.699219 249.042969 162.769531 249.042969 162.769531 L 252.972656 156.519531 C 252.972656 156.519531 252.855469 156.449219 252.644531 156.316406 C 252.429688 156.1875 252.125 156 251.726562 155.753906 Z M 293.160156 248.734375 C 293.042969 248.957031 292.878906 249.296875 292.667969 249.730469 C 292.234375 250.574219 291.601562 251.792969 290.800781 253.226562 C 289.992188 254.65625 289.019531 256.324219 287.894531 258.058594 C 286.777344 259.808594 285.535156 261.636719 284.222656 263.441406 C 281.628906 267.042969 278.789062 270.503906 276.574219 273.050781 C 276.023438 273.683594 275.527344 274.269531 275.058594 274.773438 C 274.613281 275.292969 274.203125 275.738281 273.886719 276.101562 C 273.21875 276.828125 272.832031 277.238281 272.832031 277.238281 L 280.515625 284.171875 C 280.515625 284.171875 280.902344 283.726562 281.59375 282.953125 C 281.933594 282.550781 282.34375 282.070312 282.8125 281.53125 C 283.296875 280.980469 283.8125 280.347656 284.386719 279.667969 C 286.671875 276.921875 289.628906 273.167969 292.375 269.214844 C 293.734375 267.230469 295.0625 265.214844 296.246094 263.289062 C 297.429688 261.355469 298.472656 259.511719 299.34375 257.90625 C 300.199219 256.300781 300.878906 254.925781 301.335938 253.964844 C 301.558594 253.484375 301.734375 253.097656 301.863281 252.839844 C 301.980469 252.582031 302.050781 252.441406 302.050781 252.441406 L 293.324219 248.382812 C 293.324219 248.382812 293.265625 248.5 293.160156 248.734375 Z M 189.566406 -5.683594 C 187.359375 -5.085938 184.394531 -4.308594 181.414062 -3.558594 C 175.464844 -2.070312 169.507812 -0.582031 169.507812 -0.582031 L 169.824219 0.640625 C 169.824219 0.640625 175.746094 -0.96875 181.671875 -2.585938 C 184.640625 -3.382812 187.597656 -4.214844 189.800781 -4.863281 C 190.914062 -5.191406 191.832031 -5.484375 192.476562 -5.683594 C 192.804688 -5.789062 193.050781 -5.871094 193.226562 -5.929688 L 192.863281 -6.632812 C 192.699219 -6.585938 192.488281 -6.515625 192.242188 -6.445312 C 191.597656 -6.257812 190.679688 -5.988281 189.566406 -5.683594 Z M 167.40625 358.707031 C 166.480469 359.367188 165.167969 360.316406 163.582031 361.476562 C 160.4375 363.800781 156.238281 366.933594 152.121094 370.402344 C 151.089844 371.273438 150.058594 372.164062 149.058594 373.066406 C 148.050781 373.992188 147.078125 374.910156 146.128906 375.859375 C 145.1875 376.808594 144.285156 377.769531 143.429688 378.746094 C 142.585938 379.71875 141.800781 380.726562 141.09375 381.746094 C 140.871094 382.050781 140.660156 382.371094 140.449219 382.699219 L 158.421875 382.699219 C 159.195312 381.96875 159.992188 381.242188 160.816406 380.527344 C 164.472656 377.3125 168.429688 374.226562 171.417969 371.941406 C 172.921875 370.792969 174.1875 369.839844 175.078125 369.183594 C 175.957031 368.515625 176.464844 368.140625 176.464844 368.140625 L 168.863281 357.675781 C 168.863281 357.675781 168.332031 358.050781 167.40625 358.707031 Z M 84.011719 46.0625 C 84.140625 45.371094 84.261719 44.96875 84.261719 44.96875 L 81.140625 44.113281 C 81.140625 44.113281 81 44.570312 80.824219 45.417969 C 80.648438 46.25 80.449219 47.46875 80.425781 48.945312 C 80.425781 49.039062 80.425781 49.132812 80.425781 49.21875 C 80.425781 49.3125 80.425781 49.394531 80.425781 49.488281 C 80.425781 49.675781 80.414062 49.851562 80.425781 50.039062 C 80.425781 50.414062 80.4375 50.8125 80.460938 51.210938 C 80.484375 52.019531 80.554688 52.863281 80.660156 53.746094 C 80.859375 55.515625 81.246094 57.394531 81.84375 59.210938 L 82.066406 59.890625 C 82.148438 60.101562 82.230469 60.335938 82.324219 60.558594 L 82.441406 60.890625 L 82.582031 61.21875 C 82.675781 61.429688 82.757812 61.652344 82.851562 61.863281 C 83.238281 62.71875 83.636719 63.550781 84.058594 64.324219 C 84.90625 65.886719 85.808594 67.257812 86.628906 68.398438 C 87.449219 69.535156 88.191406 70.425781 88.707031 71.058594 C 88.824219 71.210938 88.941406 71.351562 89.046875 71.46875 C 89.152344 71.585938 89.234375 71.691406 89.304688 71.773438 C 89.457031 71.9375 89.527344 72.03125 89.527344 72.03125 L 92.355469 69.511719 C 92.355469 69.511719 92.285156 69.429688 92.15625 69.277344 C 92.085938 69.207031 92.003906 69.113281 91.910156 69.007812 C 91.800781 68.902344 91.695312 68.773438 91.566406 68.621094 C 91.085938 68.054688 90.382812 67.234375 89.621094 66.203125 C 88.847656 65.183594 88 63.949219 87.214844 62.566406 C 86.816406 61.886719 86.453125 61.160156 86.101562 60.40625 C 86.019531 60.21875 85.9375 60.03125 85.855469 59.84375 L 85.726562 59.550781 L 85.609375 59.269531 C 85.539062 59.070312 85.457031 58.882812 85.386719 58.683594 L 85.175781 58.097656 C 84.625 56.511719 84.25 54.882812 84.035156 53.3125 C 83.917969 52.535156 83.847656 51.773438 83.800781 51.035156 C 83.777344 50.671875 83.765625 50.320312 83.753906 49.96875 C 83.742188 49.792969 83.742188 49.628906 83.742188 49.453125 C 83.742188 49.371094 83.742188 49.289062 83.742188 49.207031 C 83.730469 49.121094 83.730469 49.039062 83.730469 48.96875 C 83.730469 47.761719 83.871094 46.753906 84.011719 46.0625 Z M 119.195312 14.859375 C 118.5 15.128906 117.503906 15.527344 116.320312 16.019531 C 113.949219 17.015625 110.816406 18.386719 107.734375 19.902344 C 106.195312 20.664062 104.671875 21.449219 103.25 22.222656 C 101.832031 23 100.53125 23.75 99.414062 24.417969 C 98.3125 25.097656 97.398438 25.671875 96.765625 26.09375 C 96.449219 26.308594 96.203125 26.472656 96.039062 26.578125 C 95.875 26.695312 95.78125 26.765625 95.78125 26.765625 L 97.375 29.050781 C 97.375 29.050781 97.457031 28.992188 97.621094 28.875 C 97.785156 28.769531 98.019531 28.605469 98.3125 28.394531 C 98.910156 27.984375 99.792969 27.398438 100.847656 26.730469 C 101.902344 26.058594 103.15625 25.296875 104.53125 24.523438 C 105.890625 23.738281 107.371094 22.941406 108.871094 22.164062 C 111.863281 20.617188 114.9375 19.210938 117.246094 18.175781 C 118.40625 17.671875 119.382812 17.25 120.0625 16.96875 C 120.742188 16.6875 121.140625 16.523438 121.140625 16.523438 L 120.285156 14.421875 C 120.285156 14.421875 119.886719 14.574219 119.195312 14.859375 Z M 115.546875 87.777344 C 115.066406 87.472656 114.640625 87.199219 114.300781 86.976562 C 113.609375 86.542969 113.222656 86.285156 113.222656 86.285156 L 110.828125 89.886719 C 110.828125 89.886719 111.21875 90.15625 111.910156 90.613281 C 112.261719 90.847656 112.683594 91.128906 113.164062 91.449219 C 113.644531 91.777344 114.195312 92.128906 114.792969 92.515625 C 117.175781 94.074219 120.402344 96.09375 123.652344 98.039062 C 126.902344 100 130.1875 101.886719 132.660156 103.285156 C 133.902344 103.976562 134.925781 104.5625 135.652344 104.960938 C 136.378906 105.359375 136.800781 105.582031 136.800781 105.582031 L 139.125 101.265625 C 139.125 101.265625 138.714844 101.042969 137.988281 100.65625 C 137.257812 100.28125 136.226562 99.730469 134.996094 99.0625 C 132.519531 97.722656 129.234375 95.929688 125.984375 94.0625 C 122.738281 92.199219 119.535156 90.273438 117.164062 88.785156 C 116.566406 88.421875 116.015625 88.082031 115.546875 87.777344 Z M 146.5625 5.613281 C 143.453125 6.515625 140.355469 7.46875 138.035156 8.207031 C 135.722656 8.933594 134.1875 9.449219 134.1875 9.449219 L 134.820312 11.316406 C 134.820312 11.316406 136.332031 10.773438 138.632812 10 C 140.917969 9.226562 143.980469 8.230469 147.054688 7.269531 C 150.128906 6.292969 153.226562 5.378906 155.546875 4.6875 C 157.871094 4.019531 159.417969 3.5625 159.417969 3.5625 L 159.019531 2.140625 C 159.019531 2.140625 157.460938 2.5625 155.125 3.195312 C 152.777344 3.84375 149.660156 4.710938 146.5625 5.613281 " clip-rule="nonzero"/></clipPath><linearGradient x1="0.019721" gradientTransform="matrix(0, -390.335365, 390.335365, 0, 177.09011, 382.697788)" y1="0" x2="0.980433" gradientUnits="userSpaceOnUse" y2="0" id="9bc1b738d3"><stop stop-opacity="1" stop-color="rgb(91.398621%, 91.398621%, 90.698242%)" offset="0"/><stop stop-opacity="1" stop-color="rgb(91.445923%, 91.398621%, 90.847778%)" offset="0.015625"/><stop stop-opacity="1" stop-color="rgb(91.645813%, 91.43219%, 91.03241%)" offset="0.03125"/><stop stop-opacity="1" stop-color="rgb(91.810608%, 91.644287%, 91.2323%)" offset="0.046875"/><stop stop-opacity="1" stop-color="rgb(91.917419%, 91.917419%, 91.398621%)" offset="0.0625"/><stop stop-opacity="1" stop-color="rgb(92.106628%, 92.106628%, 91.409302%)" offset="0.078125"/><stop stop-opacity="1" stop-color="rgb(92.199707%, 92.199707%, 91.519165%)" offset="0.0859375"/><stop stop-opacity="1" stop-color="rgb(92.205811%, 92.199707%, 91.719055%)" offset="0.09375"/><stop stop-opacity="1" stop-color="rgb(92.355347%, 92.271423%, 92.008972%)" offset="0.125"/><stop stop-opacity="1" stop-color="rgb(92.498779%, 92.414856%, 92.199707%)" offset="0.140625"/><stop stop-opacity="1" stop-color="rgb(92.671204%, 92.666626%, 92.329407%)" offset="0.15625"/><stop stop-opacity="1" stop-color="rgb(92.871094%, 92.871094%, 92.636108%)" offset="0.1875"/><stop stop-opacity="1" stop-color="rgb(93.04657%, 93.04657%, 92.855835%)" offset="0.203125"/><stop stop-opacity="1" stop-color="rgb(93.247986%, 93.247986%, 92.89856%)" offset="0.21875"/><stop stop-opacity="1" stop-color="rgb(93.435669%, 93.435669%, 93.034363%)" offset="0.234375"/><stop stop-opacity="1" stop-color="rgb(93.69812%, 93.635559%, 93.29834%)" offset="0.25"/><stop stop-opacity="1" stop-color="rgb(94.018555%, 93.754578%, 93.618774%)" offset="0.28125"/><stop stop-opacity="1" stop-color="rgb(94.303894%, 93.904114%, 93.904114%)" offset="0.296875"/><stop stop-opacity="1" stop-color="rgb(94.448853%, 94.140625%, 94.140625%)" offset="0.3125"/><stop stop-opacity="1" stop-color="rgb(94.586182%, 94.477844%, 94.390869%)" offset="0.328125"/><stop stop-opacity="1" stop-color="rgb(94.786072%, 94.786072%, 94.537354%)" offset="0.34375"/><stop stop-opacity="1" stop-color="rgb(94.898987%, 94.898987%, 94.671631%)" offset="0.359375"/><stop stop-opacity="1" stop-color="rgb(94.961548%, 94.961548%, 94.895935%)" offset="0.375"/><stop stop-opacity="1" stop-color="rgb(95.211792%, 95.211792%, 95.161438%)" offset="0.40625"/><stop stop-opacity="1" stop-color="rgb(95.549011%, 95.549011%, 95.336914%)" offset="0.421875"/><stop stop-opacity="1" stop-color="rgb(95.71228%, 95.71228%, 95.550537%)" offset="0.4375"/><stop stop-opacity="1" stop-color="rgb(95.822144%, 95.822144%, 95.822144%)" offset="0.453125"/><stop stop-opacity="1" stop-color="rgb(96.009827%, 96.009827%, 96.02356%)" offset="0.46875"/><stop stop-opacity="1" stop-color="rgb(96.099854%, 96.112061%, 96.313477%)" offset="0.484375"/><stop stop-opacity="1" stop-color="rgb(96.099854%, 96.311951%, 96.499634%)" offset="0.5"/><stop stop-opacity="1" stop-color="rgb(96.29364%, 96.499634%, 96.499634%)" offset="0.53125"/><stop stop-opacity="1" stop-color="rgb(96.49353%, 96.681213%, 96.681213%)" offset="0.5625"/><stop stop-opacity="1" stop-color="rgb(96.661377%, 96.881104%, 96.881104%)" offset="0.578125"/><stop stop-opacity="1" stop-color="rgb(96.861267%, 97.050476%, 97.050476%)" offset="0.59375"/><stop stop-opacity="1" stop-color="rgb(97.067261%, 97.250366%, 97.250366%)" offset="0.625"/><stop stop-opacity="1" stop-color="rgb(97.267151%, 97.421265%, 97.421265%)" offset="0.65625"/><stop stop-opacity="1" stop-color="rgb(97.384644%, 97.685242%, 97.685242%)" offset="0.671875"/><stop stop-opacity="1" stop-color="rgb(97.535706%, 97.914124%, 97.914124%)" offset="0.6875"/><stop stop-opacity="1" stop-color="rgb(97.743225%, 97.999573%, 97.999573%)" offset="0.71875"/><stop stop-opacity="1" stop-color="rgb(97.943115%, 98.08197%, 98.08197%)" offset="0.734375"/><stop stop-opacity="1" stop-color="rgb(98.077393%, 98.28186%, 98.28186%)" offset="0.75"/><stop stop-opacity="1" stop-color="rgb(98.277283%, 98.464966%, 98.464966%)" offset="0.765625"/><stop stop-opacity="1" stop-color="rgb(98.399353%, 98.664856%, 98.664856%)" offset="0.78125"/><stop stop-opacity="1" stop-color="rgb(98.452759%, 98.799133%, 98.799133%)" offset="0.796875"/><stop stop-opacity="1" stop-color="rgb(98.652649%, 98.840332%, 98.840332%)" offset="0.8125"/><stop stop-opacity="1" stop-color="rgb(98.910522%, 99.040222%, 99.040222%)" offset="0.84375"/><stop stop-opacity="1" stop-color="rgb(99.127197%, 99.215698%, 99.215698%)" offset="0.875"/><stop stop-opacity="1" stop-color="rgb(99.415588%, 99.415588%, 99.415588%)" offset="0.90625"/><stop stop-opacity="1" stop-color="rgb(99.688721%, 99.688721%, 99.688721%)" offset="0.9375"/><stop stop-opacity="1" stop-color="rgb(99.888611%, 99.888611%, 99.888611%)" offset="1"/></linearGradient><clipPath id="a05af43182"><path d="M 129 0 L 194 0 L 194 47 L 129 47 Z M 129 0 " clip-rule="nonzero"/></clipPath><clipPath id="4563e84536"><rect x="0" width="300" y="0" height="375"/></clipPath></defs><g mask="url(#2f1f80559b)"><g transform="matrix(1, 0, 0, 1, 0, 0)"><g clip-path="url(#4563e84536)"><g clip-path="url(#b3d4f93e72)"><g clip-path="url(#e3dbed7ef0)"><g clip-path="url(#251f1e00ec)"><rect x="-66" fill="url(#9bc1b738d3)" width="432" height="539.999987" y="-82.499998"/></g></g></g><path fill="#e6e6e6" d="M 59.214844 103.472656 C 104.039062 137.75 152.144531 159.601562 159.910156 183.382812 C 163.253906 193.574219 159.453125 204.671875 152.226562 214.984375 C 160.921875 203.828125 165.90625 191.5 162.222656 180.261719 C 154.445312 156.484375 106.347656 134.628906 61.515625 100.351562 C 36.574219 81.289062 28.023438 60.75 38.109375 45.085938 C 24.632812 61.078125 32.574219 83.105469 59.214844 103.472656 " fill-opacity="1" fill-rule="nonzero"/><g clip-path="url(#a05af43182)"><path fill="#e6e6e6" d="M 129.246094 37.746094 C 129.246094 40.734375 129.890625 43.691406 131.148438 46.601562 C 130.808594 45.085938 130.632812 43.5625 130.632812 42.027344 C 130.632812 23.703125 173.4375 3.398438 193.882812 -4.640625 C 173.4375 3.398438 129.246094 19.433594 129.246094 37.746094 " fill-opacity="1" fill-rule="nonzero"/></g></g></g></g></svg>