<svg xmlns="http://www.w3.org/2000/svg" xmlns:xlink="http://www.w3.org/1999/xlink" width="500" zoomAndPan="magnify" viewBox="0 0 375 374.999991" height="500" preserveAspectRatio="xMidYMid meet" version="1.0"><defs><clipPath id="ea4c24373d"><path d="M 1 1 L 374 1 L 374 373.5 L 1 373.5 Z M 1 1 " clip-rule="nonzero"/></clipPath></defs><path fill="#ffb000" d="M 353.160156 173.3125 C 353.128906 172.878906 353.09375 172.453125 353.050781 172.015625 C 353.015625 171.589844 352.960938 171.167969 352.925781 170.742188 C 352.390625 165.539062 351.617188 160.335938 350.597656 155.144531 C 347.65625 140.25 342.777344 126.054688 336.164062 112.828125 C 336.066406 112.625 335.964844 112.425781 335.863281 112.234375 C 335.460938 111.429688 335.035156 110.625 334.621094 109.828125 C 334.207031 109.046875 333.792969 108.261719 333.367188 107.492188 C 333.257812 107.277344 333.132812 107.066406 333.023438 106.851562 C 325.839844 93.941406 316.886719 81.902344 306.257812 71.070312 C 302.554688 67.300781 298.707031 63.730469 294.722656 60.351562 C 294.386719 60.074219 294.050781 59.78125 293.703125 59.503906 C 293.378906 59.234375 293.042969 58.964844 292.71875 58.695312 C 288.65625 55.394531 284.441406 52.261719 280.03125 49.308594 C 267.242188 40.75 253.558594 34.09375 239.328125 29.402344 C 239.003906 29.292969 238.667969 29.191406 238.34375 29.078125 C 237.859375 28.921875 237.367188 28.777344 236.886719 28.621094 C 221.648438 23.910156 205.636719 21.382812 189.234375 21.214844 C 188.664062 21.203125 188.09375 21.203125 187.523438 21.203125 C 182.152344 21.203125 176.824219 21.460938 171.554688 21.964844 C 166.140625 22.5 160.714844 23.296875 155.308594 24.371094 C 140.351562 27.335938 126.097656 32.222656 112.824219 38.882812 C 112.757812 38.914062 112.703125 38.949219 112.636719 38.980469 C 111.664062 39.472656 110.6875 39.976562 109.726562 40.480469 C 108.796875 40.972656 107.859375 41.476562 106.941406 41.992188 C 106.851562 42.035156 106.761719 42.082031 106.683594 42.136719 C 93.894531 49.285156 81.980469 58.183594 71.238281 68.710938 C 67.464844 72.414062 63.898438 76.261719 60.519531 80.246094 C 60.226562 80.582031 59.949219 80.929688 59.65625 81.265625 C 59.386719 81.589844 59.132812 81.914062 58.863281 82.238281 C 55.5625 86.300781 52.417969 90.527344 49.476562 94.925781 C 41.027344 107.546875 34.4375 121.027344 29.761719 135.046875 C 29.691406 135.261719 29.625 135.460938 29.558594 135.675781 C 29.28125 136.535156 29 137.398438 28.730469 138.269531 C 28.472656 139.109375 28.214844 139.960938 27.96875 140.800781 C 27.902344 141.035156 27.835938 141.269531 27.769531 141.503906 C 23.71875 155.714844 21.535156 170.550781 21.390625 185.734375 C 21.335938 191.027344 21.535156 196.296875 21.972656 201.511719 C 22.007812 201.933594 22.039062 202.347656 22.085938 202.773438 C 22.128906 203.210938 22.175781 203.660156 22.21875 204.09375 C 22.757812 209.285156 23.527344 214.488281 24.546875 219.667969 C 27.488281 234.5625 32.367188 248.75 38.96875 261.964844 C 39.082031 262.175781 39.179688 262.386719 39.292969 262.601562 C 39.695312 263.394531 40.109375 264.179688 40.511719 264.972656 C 40.9375 265.765625 41.351562 266.5625 41.789062 267.34375 C 41.898438 267.546875 42.011719 267.746094 42.113281 267.949219 C 49.296875 280.871094 58.257812 292.898438 68.875 303.742188 C 72.578125 307.523438 76.429688 311.09375 80.421875 314.460938 C 80.757812 314.742188 81.082031 315.03125 81.429688 315.300781 C 81.753906 315.570312 82.089844 315.835938 82.425781 316.105469 C 86.476562 319.40625 90.707031 322.539062 95.101562 325.480469 C 107.914062 334.0625 121.621094 340.722656 135.875 345.410156 C 136.164062 345.511719 136.46875 345.609375 136.757812 345.699219 C 137.261719 345.867188 137.777344 346.023438 138.28125 346.179688 C 153.507812 350.890625 169.507812 353.410156 185.898438 353.578125 C 191.28125 353.632812 196.628906 353.421875 201.921875 352.972656 C 202.203125 352.949219 202.492188 352.929688 202.773438 352.894531 C 203.367188 352.839844 203.96875 352.769531 204.5625 352.714844 C 209.652344 352.179688 214.746094 351.429688 219.835938 350.421875 C 234.683594 347.480469 248.835938 342.632812 262.015625 336.054688 C 262.34375 335.886719 262.667969 335.730469 262.992188 335.5625 C 263.671875 335.214844 264.355469 334.859375 265.039062 334.5 C 265.921875 334.03125 266.816406 333.558594 267.691406 333.066406 C 267.800781 333.011719 267.914062 332.945312 268.027344 332.890625 C 280.980469 325.707031 293.042969 316.722656 303.910156 306.070312 C 307.691406 302.367188 311.257812 298.503906 314.636719 294.523438 C 314.917969 294.1875 315.199219 293.863281 315.476562 293.527344 C 315.757812 293.191406 316.027344 292.855469 316.292969 292.53125 C 319.59375 288.480469 322.726562 284.25 325.671875 279.855469 C 334.117188 267.246094 340.707031 253.761719 345.386719 239.742188 C 345.464844 239.519531 345.53125 239.292969 345.609375 239.070312 C 345.886719 238.21875 346.15625 237.371094 346.425781 236.519531 C 346.695312 235.660156 346.953125 234.808594 347.199219 233.933594 C 347.265625 233.710938 347.320312 233.5 347.386719 233.273438 C 351.449219 219.066406 353.621094 204.21875 353.765625 189.035156 C 353.800781 183.777344 353.597656 178.527344 353.160156 173.3125 Z M 345.441406 153.710938 L 341.535156 154.484375 C 340.675781 154.652344 340.027344 155.265625 339.746094 156.039062 L 213 181.125 C 212.988281 181.078125 212.976562 181.035156 212.964844 181 C 212.910156 180.753906 212.832031 180.519531 212.765625 180.285156 C 212.71875 180.128906 212.675781 179.972656 212.628906 179.816406 C 212.539062 179.511719 212.441406 179.210938 212.339844 178.921875 C 212.304688 178.832031 212.28125 178.753906 212.25 178.664062 L 331.835938 129.769531 C 332.496094 130.261719 333.378906 130.40625 334.183594 130.082031 L 337.910156 128.558594 C 341.078125 136.625 343.59375 145.039062 345.441406 153.710938 Z M 328.859375 109.167969 C 328.972656 109.359375 329.070312 109.5625 329.183594 109.75 C 329.609375 110.511719 330.011719 111.285156 330.425781 112.054688 C 330.828125 112.816406 331.230469 113.589844 331.621094 114.359375 C 331.722656 114.5625 331.835938 114.773438 331.9375 114.976562 C 333.425781 117.953125 334.8125 120.984375 336.121094 124.0625 L 332.382812 125.582031 C 331.566406 125.917969 331.050781 126.644531 330.917969 127.453125 L 211.320312 176.359375 C 211.308594 176.347656 211.308594 176.324219 211.296875 176.3125 C 211.140625 175.976562 210.972656 175.640625 210.804688 175.316406 C 210.785156 175.273438 210.761719 175.226562 210.738281 175.183594 C 210.570312 174.871094 210.402344 174.554688 210.222656 174.253906 C 210.191406 174.199219 210.15625 174.132812 210.113281 174.074219 C 210.054688 173.984375 210.011719 173.894531 209.957031 173.796875 L 317.066406 101.539062 C 317.804688 101.886719 318.699219 101.851562 319.425781 101.359375 L 322.773438 99.097656 C 324.921875 102.378906 326.957031 105.746094 328.859375 109.167969 Z M 304.523438 76.128906 C 310.21875 82.113281 315.410156 88.449219 320.066406 95.105469 L 316.730469 97.355469 C 316.003906 97.847656 315.632812 98.664062 315.679688 99.480469 L 208.570312 171.738281 C 208.46875 171.601562 208.355469 171.46875 208.242188 171.324219 C 208.121094 171.167969 208.007812 171.019531 207.886719 170.863281 C 207.761719 170.71875 207.640625 170.574219 207.515625 170.425781 C 207.382812 170.269531 207.25 170.113281 207.113281 169.957031 L 299.386719 79.519531 C 300.183594 79.71875 301.054688 79.53125 301.679688 78.914062 Z M 197.289062 197.136719 C 198.757812 195.667969 201.128906 195.667969 202.59375 197.136719 C 204.058594 198.601562 204.058594 200.972656 202.59375 202.4375 C 201.128906 203.90625 198.757812 203.90625 197.289062 202.4375 C 195.824219 200.972656 195.824219 198.601562 197.289062 197.136719 Z M 197.289062 172.375 C 198.757812 170.910156 201.128906 170.910156 202.59375 172.375 C 204.058594 173.839844 204.058594 176.210938 202.59375 177.679688 C 201.128906 179.144531 198.757812 179.144531 197.289062 177.679688 C 195.824219 176.210938 195.824219 173.839844 197.289062 172.375 Z M 201.316406 187.402344 C 201.316406 185.332031 202.996094 183.652344 205.066406 183.652344 C 207.136719 183.652344 208.816406 185.332031 208.816406 187.402344 C 208.816406 189.472656 207.136719 191.148438 205.066406 191.148438 C 202.996094 191.148438 201.316406 189.472656 201.316406 187.402344 Z M 277.15625 57.925781 L 279.371094 54.625 C 282.929688 57.085938 286.375 59.660156 289.6875 62.367188 C 290.011719 62.636719 290.347656 62.902344 290.671875 63.171875 C 290.996094 63.441406 291.308594 63.710938 291.621094 63.976562 C 294.890625 66.742188 298.066406 69.660156 301.144531 72.703125 L 298.300781 75.492188 C 297.675781 76.105469 297.464844 76.980469 297.652344 77.773438 L 205.378906 168.210938 C 205.324219 168.15625 205.269531 168.113281 205.210938 168.066406 C 205.15625 168.023438 205.101562 167.976562 205.054688 167.921875 C 204.785156 167.6875 204.53125 167.453125 204.25 167.226562 C 204.214844 167.195312 204.171875 167.160156 204.136719 167.136719 C 203.847656 166.902344 203.554688 166.667969 203.265625 166.445312 C 203.230469 166.421875 203.199219 166.386719 203.152344 166.367188 C 203.152344 166.367188 203.152344 166.367188 203.140625 166.355469 L 275.03125 59 C 275.847656 59.019531 276.664062 58.652344 277.15625 57.925781 Z M 250.695312 43.15625 L 252.25 39.441406 C 260.214844 42.941406 267.949219 47.105469 275.375 51.925781 L 273.160156 55.238281 C 272.667969 55.964844 272.648438 56.863281 272.992188 57.601562 L 201.105469 164.957031 C 201.050781 164.921875 201.003906 164.902344 200.949219 164.867188 C 200.679688 164.710938 200.402344 164.542969 200.132812 164.398438 C 199.988281 164.320312 199.839844 164.25 199.707031 164.171875 C 199.484375 164.0625 199.257812 163.9375 199.035156 163.828125 C 198.96875 163.792969 198.902344 163.757812 198.835938 163.726562 L 248.816406 44.585938 C 249.621094 44.488281 250.347656 43.960938 250.695312 43.15625 Z M 219.949219 33.308594 L 220.71875 29.347656 C 225.710938 30.390625 230.632812 31.652344 235.476562 33.152344 C 235.949219 33.296875 236.417969 33.441406 236.875 33.589844 C 237.199219 33.6875 237.523438 33.800781 237.847656 33.902344 C 241.207031 35.007812 244.527344 36.21875 247.808594 37.550781 L 246.242188 41.277344 C 245.90625 42.082031 246.039062 42.964844 246.53125 43.625 L 196.550781 162.761719 C 195.644531 162.425781 194.71875 162.160156 193.765625 161.925781 L 218.402344 35.089844 C 219.164062 34.832031 219.78125 34.171875 219.949219 33.308594 Z M 189.851562 194.929688 C 189.714844 194.976562 189.582031 195 189.445312 195.03125 C 189.335938 195.054688 189.222656 195.085938 189.109375 195.109375 C 188.898438 195.15625 188.6875 195.175781 188.472656 195.210938 C 188.429688 195.210938 188.394531 195.222656 188.351562 195.234375 C 187.847656 195.289062 187.332031 195.289062 186.816406 195.234375 C 186.796875 195.234375 186.773438 195.234375 186.75 195.234375 C 186.726562 195.234375 186.714844 195.222656 186.695312 195.222656 C 186.167969 195.167969 185.664062 195.054688 185.183594 194.910156 C 185.148438 194.898438 185.117188 194.886719 185.082031 194.875 C 184.871094 194.808594 184.667969 194.730469 184.46875 194.640625 C 184.367188 194.59375 184.265625 194.539062 184.164062 194.496094 C 184.042969 194.4375 183.910156 194.371094 183.785156 194.304688 C 183.652344 194.226562 183.527344 194.148438 183.394531 194.070312 C 183.304688 194.011719 183.214844 193.96875 183.136719 193.914062 C 183.003906 193.824219 182.878906 193.722656 182.746094 193.621094 C 182.675781 193.566406 182.597656 193.511719 182.53125 193.453125 C 182.410156 193.351562 182.296875 193.242188 182.183594 193.140625 C 182.117188 193.074219 182.039062 193.007812 181.972656 192.941406 C 181.871094 192.839844 181.78125 192.738281 181.691406 192.636719 C 181.613281 192.546875 181.535156 192.46875 181.457031 192.367188 C 181.378906 192.28125 181.324219 192.179688 181.246094 192.089844 C 181.167969 191.976562 181.078125 191.867188 181 191.753906 C 180.941406 191.675781 180.898438 191.585938 180.84375 191.507812 C 180.765625 191.375 180.675781 191.238281 180.609375 191.105469 C 180.5625 191.027344 180.53125 190.949219 180.496094 190.871094 C 180.429688 190.722656 180.351562 190.578125 180.28125 190.421875 C 180.25 190.332031 180.214844 190.230469 180.183594 190.140625 C 180.125 189.996094 180.070312 189.851562 180.027344 189.707031 C 179.980469 189.570312 179.957031 189.4375 179.925781 189.304688 C 179.902344 189.191406 179.871094 189.078125 179.847656 188.96875 C 179.800781 188.753906 179.769531 188.542969 179.746094 188.320312 C 179.746094 188.285156 179.734375 188.238281 179.734375 188.207031 C 179.679688 187.703125 179.679688 187.175781 179.734375 186.664062 C 179.734375 186.640625 179.734375 186.628906 179.734375 186.605469 C 179.734375 186.585938 179.746094 186.5625 179.746094 186.539062 C 179.800781 186.023438 179.914062 185.519531 180.058594 185.039062 C 180.070312 185.007812 180.09375 184.960938 180.105469 184.929688 C 180.171875 184.726562 180.25 184.515625 180.328125 184.324219 C 180.371094 184.222656 180.429688 184.121094 180.472656 184.011719 C 180.53125 183.886719 180.585938 183.753906 180.652344 183.640625 C 180.730469 183.507812 180.808594 183.382812 180.886719 183.25 C 180.941406 183.160156 180.988281 183.082031 181.042969 182.992188 C 181.132812 182.859375 181.234375 182.722656 181.335938 182.601562 C 181.390625 182.535156 181.445312 182.457031 181.503906 182.386719 C 181.601562 182.265625 181.714844 182.152344 181.816406 182.042969 C 181.882812 181.972656 181.949219 181.894531 182.015625 181.828125 C 182.117188 181.726562 182.21875 181.640625 182.320312 181.550781 C 182.410156 181.472656 182.488281 181.394531 182.589844 181.3125 C 182.675781 181.234375 182.777344 181.179688 182.867188 181.101562 C 182.980469 181.023438 183.089844 180.933594 183.203125 180.855469 C 183.28125 180.800781 183.371094 180.753906 183.449219 180.699219 C 183.582031 180.621094 183.71875 180.53125 183.851562 180.464844 C 183.929688 180.417969 184.007812 180.386719 184.085938 180.351562 C 184.234375 180.285156 184.378906 180.207031 184.535156 180.140625 C 184.625 180.105469 184.726562 180.074219 184.816406 180.039062 C 184.960938 179.984375 185.105469 179.925781 185.25 179.882812 C 185.386719 179.835938 185.519531 179.816406 185.652344 179.78125 C 185.765625 179.757812 185.878906 179.726562 185.988281 179.703125 C 186.203125 179.660156 186.414062 179.636719 186.628906 179.601562 C 186.671875 179.601562 186.707031 179.589844 186.75 179.578125 C 187.253906 179.523438 187.769531 179.523438 188.28125 179.578125 C 188.304688 179.578125 188.328125 179.578125 188.351562 179.578125 C 188.371094 179.578125 188.382812 179.589844 188.40625 179.589844 C 188.933594 179.648438 189.4375 179.757812 189.917969 179.90625 C 189.949219 179.914062 189.984375 179.925781 190.027344 179.949219 C 190.242188 180.015625 190.441406 180.09375 190.644531 180.171875 C 190.746094 180.21875 190.84375 180.273438 190.945312 180.320312 C 191.070312 180.375 191.203125 180.441406 191.328125 180.507812 C 191.460938 180.585938 191.582031 180.664062 191.71875 180.742188 C 191.808594 180.800781 191.886719 180.84375 191.976562 180.898438 C 192.109375 180.988281 192.234375 181.089844 192.367188 181.191406 C 192.433594 181.246094 192.511719 181.304688 192.578125 181.359375 C 192.703125 181.460938 192.816406 181.570312 192.925781 181.671875 C 192.992188 181.738281 193.070312 181.804688 193.140625 181.875 C 193.238281 181.972656 193.328125 182.074219 193.417969 182.175781 C 193.496094 182.265625 193.574219 182.34375 193.652344 182.445312 C 193.730469 182.535156 193.800781 182.632812 193.867188 182.722656 C 193.945312 182.835938 194.035156 182.949219 194.113281 183.058594 C 194.167969 183.136719 194.214844 183.226562 194.269531 183.316406 C 194.347656 183.453125 194.4375 183.585938 194.503906 183.71875 C 194.550781 183.796875 194.582031 183.875 194.617188 183.964844 C 194.683594 184.113281 194.761719 184.257812 194.816406 184.414062 C 194.851562 184.503906 194.882812 184.605469 194.917969 184.691406 C 194.972656 184.839844 195.03125 184.972656 195.074219 185.117188 C 195.121094 185.253906 195.140625 185.386719 195.175781 185.519531 C 195.199219 185.632812 195.230469 185.746094 195.253906 185.855469 C 195.296875 186.070312 195.332031 186.28125 195.355469 186.507812 C 195.355469 186.539062 195.367188 186.585938 195.367188 186.617188 C 195.421875 187.121094 195.421875 187.648438 195.367188 188.160156 C 195.367188 188.183594 195.367188 188.195312 195.367188 188.21875 C 195.367188 188.238281 195.355469 188.261719 195.355469 188.285156 C 195.296875 188.800781 195.1875 189.304688 195.042969 189.785156 C 195.03125 189.816406 195.019531 189.863281 194.996094 189.894531 C 194.929688 190.097656 194.851562 190.308594 194.773438 190.511719 C 194.726562 190.613281 194.671875 190.710938 194.628906 190.824219 C 194.570312 190.949219 194.515625 191.082031 194.449219 191.195312 C 194.371094 191.328125 194.292969 191.453125 194.214844 191.585938 C 194.15625 191.675781 194.113281 191.753906 194.054688 191.84375 C 193.96875 191.976562 193.867188 192.101562 193.765625 192.234375 C 193.710938 192.300781 193.652344 192.378906 193.597656 192.445312 C 193.496094 192.570312 193.386719 192.683594 193.285156 192.792969 C 193.21875 192.859375 193.148438 192.941406 193.082031 193.007812 C 192.984375 193.105469 192.882812 193.195312 192.78125 193.285156 C 192.691406 193.363281 192.613281 193.441406 192.511719 193.519531 C 192.421875 193.597656 192.324219 193.65625 192.234375 193.734375 C 192.121094 193.8125 192.007812 193.902344 191.898438 193.980469 C 191.820312 194.035156 191.730469 194.082031 191.652344 194.136719 C 191.515625 194.214844 191.382812 194.304688 191.25 194.371094 C 191.167969 194.417969 191.089844 194.449219 191.003906 194.484375 C 190.855469 194.550781 190.710938 194.628906 190.554688 194.695312 C 190.464844 194.730469 190.363281 194.761719 190.273438 194.796875 C 190.140625 194.832031 189.996094 194.886719 189.851562 194.929688 Z M 191.304688 204.921875 C 191.304688 206.992188 189.625 208.671875 187.554688 208.671875 C 185.484375 208.671875 183.808594 206.992188 183.808594 204.921875 C 183.808594 202.851562 185.484375 201.175781 187.554688 201.175781 C 189.625 201.175781 191.304688 202.851562 191.304688 204.921875 Z M 183.808594 169.890625 C 183.808594 167.820312 185.484375 166.140625 187.554688 166.140625 C 189.625 166.140625 191.304688 167.820312 191.304688 169.890625 C 191.304688 171.960938 189.625 173.640625 187.554688 173.640625 C 185.484375 173.640625 183.808594 171.960938 183.808594 169.890625 Z M 190.34375 32.042969 C 191.046875 31.628906 191.527344 30.871094 191.539062 29.996094 L 191.582031 26.015625 C 199.839844 26.214844 207.996094 27.03125 215.988281 28.441406 L 215.214844 32.390625 C 215.046875 33.253906 215.371094 34.09375 215.976562 34.640625 L 191.335938 161.476562 C 191.011719 161.433594 190.6875 161.386719 190.363281 161.355469 C 190.320312 161.355469 190.285156 161.34375 190.242188 161.34375 C 190.207031 161.34375 190.175781 161.34375 190.128906 161.332031 C 189.769531 161.296875 189.402344 161.265625 189.042969 161.242188 Z M 171.992188 26.683594 C 176.871094 26.226562 181.804688 25.980469 186.761719 25.957031 L 186.714844 29.941406 C 186.707031 30.8125 187.175781 31.585938 187.871094 32.011719 L 186.570312 161.207031 C 185.597656 161.242188 184.625 161.332031 183.671875 161.476562 L 158.589844 34.730469 C 159.191406 34.183594 159.515625 33.34375 159.335938 32.480469 L 158.566406 28.574219 C 163.050781 27.769531 167.515625 27.132812 171.992188 26.683594 Z M 153.855469 29.527344 L 154.628906 33.433594 C 154.796875 34.292969 155.410156 34.941406 156.183594 35.222656 L 181.269531 161.96875 C 181.222656 161.980469 181.179688 161.992188 181.144531 162.003906 C 180.898438 162.058594 180.664062 162.136719 180.417969 162.203125 C 180.261719 162.25 180.105469 162.292969 179.949219 162.339844 C 179.644531 162.425781 179.34375 162.527344 179.050781 162.628906 C 178.964844 162.664062 178.882812 162.683594 178.796875 162.71875 L 129.898438 43.132812 C 130.390625 42.472656 130.539062 41.589844 130.214844 40.78125 L 128.691406 37.058594 C 136.78125 33.878906 145.195312 31.375 153.855469 29.527344 Z M 172.519531 197.136719 C 173.984375 195.667969 176.355469 195.667969 177.820312 197.136719 C 179.289062 198.601562 179.289062 200.972656 177.820312 202.4375 C 176.355469 203.90625 173.984375 203.90625 172.519531 202.4375 C 171.050781 200.972656 171.050781 198.601562 172.519531 197.136719 Z M 170.046875 191.148438 C 167.976562 191.148438 166.296875 189.472656 166.296875 187.402344 C 166.296875 185.332031 167.976562 183.652344 170.046875 183.652344 C 172.117188 183.652344 173.792969 185.332031 173.792969 187.402344 C 173.792969 189.472656 172.117188 191.148438 170.046875 191.148438 Z M 177.820312 177.679688 C 176.355469 179.144531 173.984375 179.144531 172.519531 177.679688 C 171.050781 176.210938 171.050781 173.839844 172.519531 172.375 C 173.984375 170.910156 176.355469 170.910156 177.820312 172.375 C 179.289062 173.839844 179.289062 176.210938 177.820312 177.679688 Z M 108.988281 46.277344 C 109.054688 46.242188 109.121094 46.199219 109.191406 46.164062 C 110.105469 45.648438 111.023438 45.15625 111.953125 44.664062 C 112.871094 44.183594 113.789062 43.703125 114.71875 43.234375 C 114.796875 43.1875 114.875 43.15625 114.964844 43.109375 C 117.996094 41.589844 121.082031 40.179688 124.214844 38.847656 L 125.738281 42.574219 C 126.074219 43.390625 126.800781 43.90625 127.605469 44.039062 L 176.511719 163.636719 C 176.5 163.648438 176.480469 163.648438 176.46875 163.660156 C 176.132812 163.816406 175.796875 163.984375 175.472656 164.152344 C 175.425781 164.171875 175.382812 164.195312 175.335938 164.21875 C 175.023438 164.386719 174.710938 164.554688 174.410156 164.734375 C 174.351562 164.765625 174.285156 164.800781 174.21875 164.832031 C 174.128906 164.890625 174.039062 164.933594 173.9375 164.988281 L 101.683594 57.878906 C 102.027344 57.140625 101.996094 56.246094 101.503906 55.519531 L 99.242188 52.171875 C 102.421875 50.101562 105.675781 48.132812 108.988281 46.277344 Z M 95.25 54.902344 L 97.496094 58.238281 C 97.988281 58.964844 98.804688 59.335938 99.625 59.289062 L 171.890625 166.386719 C 171.746094 166.488281 171.613281 166.601562 171.476562 166.714844 C 171.320312 166.835938 171.175781 166.949219 171.019531 167.070312 C 170.875 167.195312 170.726562 167.316406 170.570312 167.441406 C 170.414062 167.574219 170.257812 167.707031 170.101562 167.84375 L 79.664062 75.570312 C 79.863281 74.773438 79.671875 73.902344 79.058594 73.277344 L 76.273438 70.433594 C 82.269531 64.75 88.601562 59.558594 95.25 54.902344 Z M 62.511719 85.269531 C 62.777344 84.945312 63.046875 84.609375 63.316406 84.285156 C 63.585938 83.960938 63.851562 83.648438 64.121094 83.335938 C 66.886719 80.066406 69.804688 76.890625 72.847656 73.8125 L 75.632812 76.65625 C 76.25 77.28125 77.121094 77.492188 77.917969 77.304688 L 168.355469 169.578125 C 168.300781 169.632812 168.253906 169.6875 168.210938 169.746094 C 168.164062 169.800781 168.121094 169.855469 168.066406 169.902344 C 167.832031 170.171875 167.59375 170.425781 167.371094 170.707031 C 167.335938 170.742188 167.304688 170.785156 167.269531 170.832031 C 167.035156 171.121094 166.800781 171.414062 166.589844 171.703125 C 166.566406 171.738281 166.53125 171.78125 166.511719 171.816406 C 166.511719 171.816406 166.511719 171.816406 166.511719 171.828125 L 59.152344 99.9375 C 59.199219 99.121094 58.828125 98.304688 58.101562 97.8125 L 54.800781 95.597656 C 57.230469 92.027344 59.800781 88.59375 62.511719 85.269531 Z M 52.082031 99.589844 L 55.382812 101.808594 C 56.109375 102.300781 57.003906 102.320312 57.742188 101.976562 L 165.101562 173.863281 C 165.066406 173.917969 165.042969 173.964844 165.011719 174.019531 C 164.855469 174.289062 164.6875 174.554688 164.539062 174.835938 C 164.460938 174.980469 164.394531 175.125 164.316406 175.273438 C 164.203125 175.496094 164.082031 175.707031 163.980469 175.945312 C 163.949219 176.011719 163.914062 176.078125 163.878906 176.144531 L 44.742188 126.164062 C 44.628906 125.359375 44.105469 124.621094 43.300781 124.285156 L 39.585938 122.730469 C 43.097656 114.753906 47.269531 107.019531 52.082031 99.589844 Z M 32.3125 142.824219 C 32.378906 142.601562 32.433594 142.386719 32.5 142.164062 C 32.746094 141.335938 32.992188 140.507812 33.25 139.679688 C 33.507812 138.851562 33.777344 138.015625 34.046875 137.1875 C 34.113281 136.972656 34.179688 136.761719 34.257812 136.546875 C 35.308594 133.382812 36.472656 130.261719 37.726562 127.160156 L 41.441406 128.714844 C 42.246094 129.050781 43.132812 128.917969 43.792969 128.425781 L 162.929688 178.40625 C 162.59375 179.3125 162.324219 180.242188 162.089844 181.191406 L 35.253906 156.554688 C 34.972656 155.78125 34.3125 155.175781 33.453125 155.007812 L 29.492188 154.238281 C 30.296875 150.398438 31.238281 146.585938 32.3125 142.824219 Z M 28.597656 158.980469 L 32.546875 159.742188 C 33.40625 159.910156 34.246094 159.585938 34.796875 158.980469 L 161.632812 183.621094 C 161.585938 183.945312 161.542969 184.269531 161.507812 184.59375 C 161.507812 184.636719 161.496094 184.671875 161.496094 184.714844 C 161.496094 184.75 161.496094 184.78125 161.484375 184.828125 C 161.453125 185.1875 161.417969 185.554688 161.398438 185.914062 L 32.199219 184.613281 C 31.785156 183.910156 31.023438 183.429688 30.152344 183.417969 L 26.167969 183.375 C 26.371094 175.128906 27.1875 166.96875 28.597656 158.980469 Z M 26.90625 203.589844 C 26.863281 203.175781 26.816406 202.761719 26.785156 202.347656 C 26.738281 201.925781 26.71875 201.511719 26.671875 201.085938 C 26.3125 196.820312 26.136719 192.515625 26.113281 188.195312 L 30.097656 188.238281 C 30.96875 188.25 31.742188 187.78125 32.164062 187.085938 L 161.363281 188.386719 C 161.398438 189.359375 161.484375 190.332031 161.632812 191.285156 L 34.886719 216.367188 C 34.335938 215.765625 33.496094 215.441406 32.636719 215.621094 L 28.730469 216.390625 C 27.960938 212.117188 27.34375 207.855469 26.90625 203.589844 Z M 29.671875 221.101562 L 33.574219 220.328125 C 34.4375 220.160156 35.085938 219.546875 35.367188 218.773438 L 162.113281 193.6875 C 162.125 193.734375 162.136719 193.777344 162.144531 193.8125 C 162.203125 194.058594 162.28125 194.292969 162.347656 194.539062 C 162.390625 194.695312 162.4375 194.851562 162.480469 195.007812 C 162.570312 195.3125 162.671875 195.613281 162.773438 195.90625 C 162.804688 195.992188 162.828125 196.074219 162.863281 196.160156 L 43.277344 245.058594 C 42.617188 244.566406 41.730469 244.417969 40.925781 244.742188 L 37.199219 246.265625 C 34.035156 238.1875 31.515625 229.773438 29.671875 221.101562 Z M 46.253906 265.65625 C 46.140625 265.453125 46.027344 265.253906 45.929688 265.0625 C 45.515625 264.300781 45.101562 263.539062 44.699219 262.769531 C 44.292969 261.996094 43.890625 261.226562 43.5 260.453125 C 43.398438 260.25 43.300781 260.050781 43.199219 259.847656 C 41.710938 256.871094 40.324219 253.828125 39.011719 250.753906 L 42.738281 249.230469 C 43.554688 248.894531 44.070312 248.167969 44.207031 247.363281 L 163.800781 198.457031 C 163.8125 198.464844 163.8125 198.488281 163.824219 198.5 C 163.980469 198.835938 164.148438 199.171875 164.316406 199.496094 C 164.339844 199.539062 164.363281 199.585938 164.382812 199.628906 C 164.550781 199.945312 164.71875 200.257812 164.898438 200.558594 C 164.933594 200.613281 164.964844 200.683594 165.011719 200.75 C 165.066406 200.839844 165.109375 200.929688 165.167969 201.027344 L 58.058594 273.285156 C 57.320312 272.9375 56.421875 272.972656 55.695312 273.464844 L 52.351562 275.726562 C 50.191406 272.4375 48.15625 269.066406 46.253906 265.65625 Z M 70.589844 298.671875 C 64.894531 292.6875 59.703125 286.355469 55.058594 279.699219 L 58.390625 277.449219 C 59.121094 276.957031 59.488281 276.140625 59.445312 275.324219 L 166.554688 203.066406 C 166.65625 203.210938 166.765625 203.34375 166.878906 203.480469 C 167.003906 203.636719 167.113281 203.78125 167.238281 203.9375 C 167.359375 204.082031 167.484375 204.230469 167.605469 204.386719 C 167.742188 204.542969 167.875 204.699219 168.007812 204.855469 L 75.734375 295.292969 C 74.941406 295.09375 74.066406 295.285156 73.441406 295.898438 Z M 97.957031 316.890625 L 95.742188 320.191406 C 92.183594 317.726562 88.726562 315.144531 85.402344 312.4375 C 85.078125 312.179688 84.765625 311.910156 84.441406 311.652344 C 84.117188 311.382812 83.792969 311.105469 83.464844 310.824219 C 80.199219 308.0625 77.03125 305.152344 73.957031 302.109375 L 76.796875 299.324219 C 77.425781 298.707031 77.636719 297.835938 77.445312 297.039062 L 169.722656 206.601562 C 169.777344 206.65625 169.832031 206.703125 169.890625 206.746094 C 169.945312 206.792969 170 206.835938 170.046875 206.890625 C 170.3125 207.125 170.570312 207.363281 170.851562 207.585938 C 170.882812 207.621094 170.929688 207.652344 170.964844 207.675781 C 171.253906 207.910156 171.542969 208.144531 171.835938 208.367188 C 171.871094 208.390625 171.914062 208.425781 171.949219 208.445312 L 100.058594 315.804688 C 99.265625 315.792969 98.4375 316.160156 97.957031 316.890625 Z M 124.417969 331.65625 L 122.863281 335.371094 C 114.90625 331.871094 107.175781 327.699219 99.746094 322.875 L 101.960938 319.574219 C 102.453125 318.847656 102.476562 317.953125 102.128906 317.214844 L 174.015625 209.855469 C 174.074219 209.890625 174.117188 209.914062 174.175781 209.945312 C 174.441406 210.101562 174.710938 210.269531 174.992188 210.417969 C 175.136719 210.496094 175.28125 210.5625 175.417969 210.640625 C 175.640625 210.753906 175.863281 210.875 176.085938 210.988281 C 176.15625 211.019531 176.222656 211.054688 176.289062 211.085938 L 126.308594 330.226562 C 125.492188 330.328125 124.765625 330.839844 124.417969 331.65625 Z M 155.164062 341.503906 L 154.390625 345.464844 C 150.542969 344.671875 146.726562 343.730469 142.96875 342.65625 C 142.746094 342.589844 142.519531 342.523438 142.296875 342.464844 C 141.46875 342.230469 140.640625 341.972656 139.824219 341.726562 C 138.984375 341.46875 138.15625 341.203125 137.316406 340.933594 C 137.105469 340.867188 136.902344 340.800781 136.691406 340.730469 C 133.523438 339.679688 130.402344 338.515625 127.292969 337.265625 L 128.847656 333.550781 C 129.183594 332.742188 129.050781 331.859375 128.558594 331.199219 L 178.558594 212.027344 C 179.464844 212.363281 180.394531 212.632812 181.347656 212.867188 L 156.707031 339.703125 C 155.949219 339.984375 155.332031 340.644531 155.164062 341.503906 Z M 184.769531 342.769531 C 184.066406 343.183594 183.582031 343.945312 183.574219 344.816406 L 183.527344 348.800781 C 175.269531 348.597656 167.113281 347.78125 159.125 346.371094 L 159.898438 342.421875 C 160.066406 341.558594 159.742188 340.722656 159.136719 340.171875 L 183.773438 213.335938 C 184.097656 213.382812 184.421875 213.425781 184.746094 213.460938 C 184.792969 213.460938 184.824219 213.472656 184.871094 213.472656 C 184.902344 213.472656 184.9375 213.472656 184.984375 213.480469 C 185.339844 213.515625 185.710938 213.550781 186.066406 213.570312 Z M 203.097656 348.117188 C 198.21875 348.574219 193.296875 348.820312 188.339844 348.84375 L 188.382812 344.859375 C 188.394531 343.988281 187.925781 343.214844 187.230469 342.789062 L 188.53125 213.59375 C 189.503906 213.558594 190.476562 213.472656 191.425781 213.324219 L 216.511719 340.070312 C 215.910156 340.621094 215.582031 341.460938 215.761719 342.320312 L 216.535156 346.226562 C 212.058594 347.042969 207.574219 347.679688 203.097656 348.117188 Z M 221.257812 345.285156 L 220.484375 341.382812 C 220.316406 340.519531 219.703125 339.871094 218.929688 339.589844 L 193.84375 212.84375 C 193.890625 212.832031 193.933594 212.820312 193.96875 212.8125 C 194.214844 212.753906 194.449219 212.675781 194.695312 212.609375 C 194.851562 212.566406 195.007812 212.519531 195.164062 212.476562 C 195.464844 212.386719 195.769531 212.285156 196.058594 212.183594 C 196.148438 212.152344 196.226562 212.128906 196.316406 212.09375 L 245.210938 331.679688 C 244.71875 332.339844 244.574219 333.226562 244.898438 334.03125 L 246.421875 337.757812 C 238.332031 340.921875 229.917969 343.441406 221.257812 345.285156 Z M 266.125 328.523438 C 266.054688 328.558594 265.988281 328.605469 265.921875 328.636719 C 265.003906 329.140625 264.085938 329.644531 263.167969 330.136719 C 262.253906 330.617188 261.324219 331.097656 260.394531 331.570312 C 260.316406 331.613281 260.238281 331.648438 260.160156 331.691406 C 257.128906 333.214844 254.039062 334.625 250.90625 335.953125 L 249.386719 332.21875 C 249.050781 331.402344 248.324219 330.886719 247.515625 330.75 L 198.609375 211.15625 C 198.621094 211.144531 198.644531 211.144531 198.65625 211.132812 C 198.992188 210.976562 199.328125 210.808594 199.652344 210.640625 C 199.695312 210.617188 199.742188 210.59375 199.785156 210.574219 C 200.097656 210.40625 200.410156 210.238281 200.714844 210.058594 C 200.78125 210.023438 200.835938 209.992188 200.902344 209.945312 C 200.992188 209.890625 201.082031 209.847656 201.171875 209.789062 L 273.429688 316.898438 C 273.082031 317.636719 273.117188 318.535156 273.609375 319.261719 L 275.867188 322.605469 C 272.691406 324.710938 269.433594 326.679688 266.125 328.523438 Z M 279.863281 319.910156 L 277.613281 316.574219 C 277.121094 315.847656 276.304688 315.480469 275.488281 315.523438 L 203.21875 208.414062 C 203.367188 208.3125 203.5 208.199219 203.632812 208.089844 C 203.789062 207.964844 203.9375 207.855469 204.09375 207.730469 C 204.238281 207.609375 204.382812 207.484375 204.539062 207.363281 C 204.695312 207.226562 204.855469 207.09375 205.011719 206.960938 L 295.449219 299.234375 C 295.25 300.027344 295.4375 300.898438 296.054688 301.527344 L 298.839844 304.367188 C 292.84375 310.0625 286.507812 315.253906 279.863281 319.910156 Z M 312.601562 289.542969 C 312.332031 289.867188 312.074219 290.191406 311.808594 290.515625 C 311.539062 290.839844 311.269531 291.15625 310.992188 291.480469 C 308.226562 294.746094 305.316406 297.925781 302.261719 300.988281 L 299.476562 298.148438 C 298.863281 297.519531 297.988281 297.308594 297.195312 297.5 L 206.757812 205.226562 C 206.8125 205.167969 206.855469 205.113281 206.902344 205.058594 C 206.945312 205 206.992188 204.957031 207.046875 204.898438 C 207.28125 204.632812 207.515625 204.363281 207.742188 204.09375 C 207.773438 204.0625 207.808594 204.015625 207.828125 203.984375 C 208.066406 203.691406 208.300781 203.402344 208.523438 203.109375 C 208.546875 203.078125 208.578125 203.03125 208.601562 203 C 208.601562 203 208.601562 203 208.601562 202.988281 L 315.957031 274.875 C 315.914062 275.691406 316.28125 276.507812 317.011719 277 L 320.3125 279.214844 C 317.882812 282.785156 315.296875 286.230469 312.601562 289.542969 Z M 323.03125 275.222656 L 319.730469 273.007812 C 319 272.515625 318.105469 272.492188 317.367188 272.839844 L 210.011719 200.949219 C 210.046875 200.894531 210.066406 200.851562 210.101562 200.792969 C 210.257812 200.527344 210.414062 200.257812 210.570312 199.976562 C 210.648438 199.832031 210.726562 199.6875 210.796875 199.539062 C 210.90625 199.316406 211.03125 199.105469 211.128906 198.878906 C 211.164062 198.8125 211.199219 198.746094 211.230469 198.679688 L 330.371094 248.660156 C 330.480469 249.464844 331.007812 250.203125 331.8125 250.539062 L 335.527344 252.09375 C 332.015625 260.0625 327.839844 267.78125 323.03125 275.222656 Z M 342.800781 231.988281 C 342.734375 232.210938 342.675781 232.425781 342.609375 232.648438 C 342.363281 233.476562 342.117188 234.316406 341.859375 235.144531 C 341.601562 235.972656 341.347656 236.800781 341.066406 237.628906 C 341 237.839844 340.933594 238.054688 340.855469 238.265625 C 339.800781 241.421875 338.636719 244.554688 337.386719 247.652344 L 333.671875 246.097656 C 332.863281 245.761719 331.980469 245.894531 331.320312 246.386719 L 212.183594 196.40625 C 212.519531 195.5 212.785156 194.574219 213.023438 193.621094 L 339.859375 218.261719 C 340.136719 219.03125 340.796875 219.636719 341.660156 219.804688 L 345.621094 220.574219 C 344.8125 224.414062 343.875 228.230469 342.800781 231.988281 Z M 346.515625 215.832031 L 342.566406 215.058594 C 341.703125 214.890625 340.863281 215.214844 340.316406 215.820312 L 213.480469 191.183594 C 213.523438 190.859375 213.570312 190.535156 213.601562 190.210938 C 213.601562 190.164062 213.613281 190.132812 213.613281 190.085938 C 213.613281 190.054688 213.613281 190.007812 213.625 189.972656 C 213.660156 189.617188 213.691406 189.257812 213.714844 188.890625 L 342.914062 190.1875 C 343.328125 190.890625 344.085938 191.375 344.960938 191.382812 L 348.941406 191.429688 C 348.742188 199.6875 347.925781 207.84375 346.515625 215.832031 Z M 345.015625 186.574219 C 344.144531 186.5625 343.371094 187.03125 342.945312 187.726562 L 213.75 186.425781 C 213.714844 185.453125 213.625 184.480469 213.480469 183.53125 L 340.226562 158.445312 C 340.773438 159.046875 341.613281 159.375 342.476562 159.195312 L 346.378906 158.421875 C 347.164062 162.675781 347.769531 166.9375 348.203125 171.199219 C 348.25 171.613281 348.292969 172.027344 348.328125 172.453125 C 348.371094 172.867188 348.394531 173.292969 348.441406 173.707031 C 348.796875 177.96875 348.976562 182.277344 349 186.59375 Z M 345.015625 186.574219 " fill-opacity="1" fill-rule="nonzero"/><g clip-path="url(#ea4c24373d)"><path fill="#ffb000" d="M 373.03125 171.613281 C 372.988281 171.132812 372.953125 170.664062 372.910156 170.179688 C 372.863281 169.699219 372.808594 169.207031 372.765625 168.726562 C 370.515625 145.957031 364.136719 124.050781 354 103.898438 C 353.886719 103.664062 353.765625 103.429688 353.640625 103.195312 C 353.195312 102.300781 352.734375 101.414062 352.265625 100.53125 C 351.796875 99.648438 351.328125 98.761719 350.84375 97.878906 C 350.722656 97.65625 350.597656 97.421875 350.464844 97.195312 C 339.554688 77.449219 325.078125 59.828125 307.554688 45.101562 C 307.175781 44.789062 306.804688 44.464844 306.425781 44.152344 C 306.054688 43.847656 305.6875 43.546875 305.316406 43.246094 C 287.617188 28.722656 267.613281 17.734375 246.175781 10.652344 C 245.9375 10.574219 245.703125 10.496094 245.457031 10.417969 C 244.496094 10.101562 243.535156 9.789062 242.558594 9.5 C 241.609375 9.207031 240.667969 8.929688 239.71875 8.648438 C 239.460938 8.570312 239.191406 8.492188 238.933594 8.425781 C 217.238281 2.171875 194.515625 -0.0546875 171.703125 1.9375 C 171.253906 1.96875 170.804688 2.015625 170.359375 2.046875 C 169.832031 2.09375 169.316406 2.148438 168.792969 2.203125 C 146.058594 4.464844 124.195312 10.832031 104.066406 20.945312 C 103.796875 21.078125 103.527344 21.214844 103.269531 21.347656 C 102.410156 21.785156 101.546875 22.222656 100.699219 22.679688 C 99.78125 23.160156 98.875 23.652344 97.96875 24.144531 C 97.765625 24.257812 97.566406 24.371094 97.363281 24.480469 C 77.605469 35.390625 59.96875 49.867188 45.246094 67.402344 C 44.933594 67.78125 44.609375 68.152344 44.292969 68.53125 C 43.992188 68.902344 43.691406 69.269531 43.386719 69.640625 C 28.867188 87.339844 17.878906 107.34375 10.796875 128.773438 C 10.71875 129.019531 10.640625 129.253906 10.558594 129.5 C 10.246094 130.460938 9.945312 131.414062 9.644531 132.375 C 9.351562 133.324219 9.0625 134.277344 8.78125 135.226562 C 8.703125 135.484375 8.625 135.742188 8.558594 136 C 2.304688 157.683594 0.078125 180.386719 2.066406 203.175781 C 2.113281 203.660156 2.148438 204.140625 2.191406 204.621094 C 2.234375 205.101562 2.292969 205.582031 2.335938 206.0625 C 4.585938 228.84375 10.964844 250.753906 21.113281 270.902344 C 21.222656 271.125 21.335938 271.351562 21.445312 271.574219 C 21.90625 272.46875 22.363281 273.375 22.835938 274.269531 C 23.292969 275.15625 23.773438 276.027344 24.246094 276.890625 C 24.378906 277.125 24.5 277.359375 24.636719 277.59375 C 35.546875 297.34375 50.011719 314.964844 67.535156 329.679688 C 67.914062 330.003906 68.292969 330.316406 68.675781 330.640625 C 69.03125 330.941406 69.402344 331.234375 69.773438 331.535156 C 87.640625 346.191406 107.847656 357.246094 129.507812 364.328125 C 129.910156 364.464844 130.3125 364.597656 130.71875 364.722656 C 131.230469 364.890625 131.757812 365.046875 132.273438 365.214844 C 150.007812 370.75 168.46875 373.582031 187.152344 373.582031 C 193.25 373.582031 199.359375 373.28125 205.480469 372.675781 C 228.574219 370.484375 250.785156 364.050781 271.191406 353.757812 C 271.359375 353.675781 271.515625 353.589844 271.683594 353.511719 C 272.679688 353.007812 273.675781 352.492188 274.660156 351.964844 C 275.789062 351.371094 276.910156 350.757812 278.015625 350.140625 C 278.039062 350.128906 278.050781 350.121094 278.074219 350.109375 C 297.6875 339.222656 315.199219 324.8125 329.832031 307.378906 C 330.144531 307.007812 330.460938 306.640625 330.761719 306.269531 C 331.074219 305.902344 331.375 305.519531 331.679688 305.140625 C 346.191406 287.441406 357.179688 267.445312 364.261719 246.019531 C 364.339844 245.773438 364.417969 245.527344 364.507812 245.28125 C 364.820312 244.328125 365.121094 243.378906 365.414062 242.417969 C 365.714844 241.464844 365.996094 240.503906 366.273438 239.539062 C 366.351562 239.292969 366.421875 239.039062 366.5 238.792969 C 372.785156 217.128906 375.011719 194.417969 373.03125 171.613281 Z M 318.578125 294.433594 C 318.296875 294.769531 318.027344 295.117188 317.75 295.453125 C 317.46875 295.785156 317.179688 296.132812 316.898438 296.46875 C 303.59375 312.300781 287.683594 325.402344 269.859375 335.292969 C 269.847656 335.304688 269.828125 335.316406 269.816406 335.316406 C 268.796875 335.875 267.78125 336.4375 266.761719 336.972656 C 265.867188 337.453125 264.960938 337.914062 264.066406 338.371094 C 263.910156 338.449219 263.761719 338.527344 263.605469 338.605469 C 245.054688 347.960938 224.871094 353.8125 203.878906 355.804688 C 198.320312 356.351562 192.757812 356.632812 187.21875 356.632812 C 170.222656 356.632812 153.429688 354.058594 137.308594 349.011719 C 136.859375 348.878906 136.410156 348.730469 135.976562 348.585938 C 135.574219 348.453125 135.171875 348.328125 134.765625 348.195312 C 115.109375 341.761719 96.769531 331.726562 80.558594 318.433594 C 80.222656 318.152344 79.875 317.875 79.539062 317.59375 C 79.203125 317.3125 78.867188 317.023438 78.53125 316.742188 C 62.597656 303.363281 49.441406 287.339844 39.527344 269.382812 C 39.417969 269.179688 39.304688 268.976562 39.203125 268.777344 C 38.765625 267.972656 38.320312 267.164062 37.894531 266.347656 C 37.46875 265.554688 37.066406 264.75 36.652344 263.953125 C 36.539062 263.730469 36.429688 263.519531 36.316406 263.292969 C 27.097656 244.976562 21.3125 225.074219 19.265625 204.386719 C 19.21875 203.9375 19.175781 203.5 19.132812 203.054688 C 19.085938 202.617188 19.050781 202.191406 19.019531 201.757812 C 17.21875 181.035156 19.242188 160.390625 24.925781 140.6875 C 24.992188 140.453125 25.0625 140.230469 25.128906 139.992188 C 25.386719 139.121094 25.644531 138.25 25.910156 137.386719 C 26.179688 136.515625 26.460938 135.652344 26.738281 134.78125 C 26.816406 134.554688 26.886719 134.332031 26.964844 134.109375 C 33.398438 114.628906 43.378906 96.457031 56.570312 80.378906 C 56.847656 80.042969 57.128906 79.699219 57.40625 79.363281 C 57.6875 79.027344 57.976562 78.691406 58.257812 78.355469 C 71.640625 62.421875 87.664062 49.265625 105.621094 39.351562 C 105.820312 39.238281 106.011719 39.136719 106.214844 39.027344 C 107.03125 38.578125 107.835938 38.140625 108.664062 37.707031 C 109.445312 37.292969 110.242188 36.890625 111.035156 36.488281 C 111.269531 36.363281 111.503906 36.25 111.730469 36.128906 C 129.976562 26.953125 149.792969 21.167969 170.414062 19.109375 C 170.972656 19.054688 171.535156 19 172.105469 18.941406 C 172.417969 18.910156 172.742188 18.886719 173.054688 18.863281 C 193.855469 17.027344 214.566406 19.042969 234.347656 24.75 C 234.558594 24.804688 234.773438 24.871094 234.984375 24.941406 C 235.867188 25.195312 236.765625 25.464844 237.636719 25.734375 C 238.5 26.003906 239.347656 26.269531 240.199219 26.550781 C 240.433594 26.628906 240.679688 26.707031 240.914062 26.785156 C 260.382812 33.21875 278.554688 43.199219 294.632812 56.390625 C 294.980469 56.671875 295.316406 56.949219 295.660156 57.230469 C 295.996094 57.511719 296.332031 57.789062 296.667969 58.082031 C 312.601562 71.460938 325.761719 87.472656 335.671875 105.433594 C 335.796875 105.644531 335.90625 105.855469 336.019531 106.070312 C 336.457031 106.863281 336.882812 107.660156 337.308594 108.453125 C 337.730469 109.257812 338.15625 110.074219 338.570312 110.890625 C 338.671875 111.09375 338.785156 111.304688 338.882812 111.507812 C 348.105469 129.835938 353.898438 149.75 355.945312 170.460938 C 355.992188 170.886719 356.035156 171.3125 356.070312 171.738281 C 356.113281 172.183594 356.148438 172.632812 356.183594 173.089844 C 357.984375 193.8125 355.957031 214.433594 350.273438 234.136719 C 350.207031 234.359375 350.140625 234.585938 350.074219 234.820312 C 349.816406 235.691406 349.558594 236.566406 349.289062 237.4375 C 349.019531 238.308594 348.742188 239.171875 348.460938 240.03125 C 348.382812 240.257812 348.316406 240.480469 348.238281 240.714844 C 341.75 260.171875 331.769531 278.355469 318.578125 294.433594 Z M 318.578125 294.433594 " fill-opacity="1" fill-rule="nonzero"/></g></svg>